<?xml version="1.0" encoding="utf-8" standalone="no"?>
<!DOCTYPE svg PUBLIC "-//W3C//DTD SVG 1.1//EN"
  "http://www.w3.org/Graphics/SVG/1.1/DTD/svg11.dtd">
<svg xmlns:xlink="http://www.w3.org/1999/xlink" width="1105.92pt" height="551.232pt" viewBox="0 0 1105.92 551.232" xmlns="http://www.w3.org/2000/svg" version="1.1">
 <metadata>
  <rdf:RDF xmlns:dc="http://purl.org/dc/elements/1.1/" xmlns:cc="http://creativecommons.org/ns#" xmlns:rdf="http://www.w3.org/1999/02/22-rdf-syntax-ns#">
   <cc:Work>
    <dc:type rdf:resource="http://purl.org/dc/dcmitype/StillImage"/>
    <dc:date>2023-05-22T16:37:03.986153</dc:date>
    <dc:format>image/svg+xml</dc:format>
    <dc:creator>
     <cc:Agent>
      <dc:title>Matplotlib v3.7.1, https://matplotlib.org/</dc:title>
     </cc:Agent>
    </dc:creator>
   </cc:Work>
  </rdf:RDF>
 </metadata>
 <defs>
  <style type="text/css">*{stroke-linejoin: round; stroke-linecap: butt}</style>
 </defs>
 <g id="figure_1">
  <g id="patch_1">
   <path d="M 0 551.232 
L 1105.92 551.232 
L 1105.92 0 
L 0 0 
z
" style="fill: #ffffff"/>
  </g>
  <g id="axes_1">
   <g id="patch_2">
    <path d="M 54.769371 506.083474 
L 1074.322286 506.083474 
L 1074.322286 20.999314 
L 54.769371 20.999314 
z
" style="fill: #ffffff"/>
   </g>
   <g id="matplotlib.axis_1">
    <g id="xtick_1">
     <g id="line2d_1">
      <defs>
       <path id="m48d7a9ec93" d="M 0 0 
L 0 3.5 
" style="stroke: #000000; stroke-width: 0.8"/>
      </defs>
      <g>
       <use xlink:href="#m48d7a9ec93" x="101.112686" y="506.083474" style="stroke: #000000; stroke-width: 0.8"/>
      </g>
     </g>
     <g id="text_1">
      <!-- 0 -->
      <g transform="translate(98.180654 521.077224) scale(0.1 -0.1)">
       <defs>
        <path id="MicrosoftYaHei-30" d="M 284 2325 
Q 284 3606 709 4264 
Q 1134 4922 1941 4922 
Q 3478 4922 3478 2441 
Q 3478 1216 3045 567 
Q 2613 -81 1831 -81 
Q 1094 -81 689 534 
Q 284 1150 284 2325 
z
M 909 2353 
Q 909 425 1888 425 
Q 2850 425 2850 2384 
Q 2850 4413 1906 4413 
Q 909 4413 909 2353 
z
" transform="scale(0.015625)"/>
       </defs>
       <use xlink:href="#MicrosoftYaHei-30"/>
      </g>
     </g>
    </g>
    <g id="xtick_2">
     <g id="line2d_2">
      <g>
       <use xlink:href="#m48d7a9ec93" x="147.456" y="506.083474" style="stroke: #000000; stroke-width: 0.8"/>
      </g>
     </g>
     <g id="text_2">
      <!-- $\varepsilon_0/20$ -->
      <g transform="translate(134.506 521.077224) scale(0.1 -0.1)">
       <defs>
        <path id="DejaVuSans-Oblique-3b5" d="M 1263 1888 
Q 925 1963 778 2166 
Q 669 2309 669 2503 
Q 669 3034 1175 3344 
Q 1575 3588 2188 3588 
Q 2425 3588 2684 3550 
Q 2944 3513 3234 3438 
L 3134 2916 
Q 2847 3006 2606 3047 
Q 2359 3088 2138 3088 
Q 1766 3088 1522 2944 
Q 1228 2772 1228 2522 
Q 1228 2356 1381 2241 
Q 1563 2103 1925 2103 
L 2409 2103 
L 2319 1628 
L 1856 1628 
Q 1425 1628 1172 1469 
Q 828 1253 828 916 
Q 828 703 1013 563 
Q 1244 388 1716 388 
Q 2006 388 2284 444 
Q 2563 503 2806 619 
L 2700 84 
Q 2403 -3 2131 -47 
Q 1859 -91 1609 -91 
Q 866 -91 516 194 
Q 250 413 250 781 
Q 250 1278 600 1584 
Q 859 1813 1263 1888 
z
" transform="scale(0.015625)"/>
        <path id="DejaVuSans-30" d="M 2034 4250 
Q 1547 4250 1301 3770 
Q 1056 3291 1056 2328 
Q 1056 1369 1301 889 
Q 1547 409 2034 409 
Q 2525 409 2770 889 
Q 3016 1369 3016 2328 
Q 3016 3291 2770 3770 
Q 2525 4250 2034 4250 
z
M 2034 4750 
Q 2819 4750 3233 4129 
Q 3647 3509 3647 2328 
Q 3647 1150 3233 529 
Q 2819 -91 2034 -91 
Q 1250 -91 836 529 
Q 422 1150 422 2328 
Q 422 3509 836 4129 
Q 1250 4750 2034 4750 
z
" transform="scale(0.015625)"/>
        <path id="DejaVuSans-2f" d="M 1625 4666 
L 2156 4666 
L 531 -594 
L 0 -594 
L 1625 4666 
z
" transform="scale(0.015625)"/>
        <path id="DejaVuSans-32" d="M 1228 531 
L 3431 531 
L 3431 0 
L 469 0 
L 469 531 
Q 828 903 1448 1529 
Q 2069 2156 2228 2338 
Q 2531 2678 2651 2914 
Q 2772 3150 2772 3378 
Q 2772 3750 2511 3984 
Q 2250 4219 1831 4219 
Q 1534 4219 1204 4116 
Q 875 4013 500 3803 
L 500 4441 
Q 881 4594 1212 4672 
Q 1544 4750 1819 4750 
Q 2544 4750 2975 4387 
Q 3406 4025 3406 3419 
Q 3406 3131 3298 2873 
Q 3191 2616 2906 2266 
Q 2828 2175 2409 1742 
Q 1991 1309 1228 531 
z
" transform="scale(0.015625)"/>
       </defs>
       <use xlink:href="#DejaVuSans-Oblique-3b5" transform="translate(0 0.78125)"/>
       <use xlink:href="#DejaVuSans-30" transform="translate(54.052734 -15.625) scale(0.7)"/>
       <use xlink:href="#DejaVuSans-2f" transform="translate(101.323242 0.78125)"/>
       <use xlink:href="#DejaVuSans-32" transform="translate(131.389648 0.78125)"/>
       <use xlink:href="#DejaVuSans-30" transform="translate(195.012695 0.78125)"/>
      </g>
     </g>
    </g>
    <g id="xtick_3">
     <g id="line2d_3">
      <g>
       <use xlink:href="#m48d7a9ec93" x="193.799314" y="506.083474" style="stroke: #000000; stroke-width: 0.8"/>
      </g>
     </g>
     <g id="text_3">
      <!-- $\varepsilon_0/10$ -->
      <g transform="translate(180.649314 521.077224) scale(0.1 -0.1)">
       <defs>
        <path id="DejaVuSans-31" d="M 794 531 
L 1825 531 
L 1825 4091 
L 703 3866 
L 703 4441 
L 1819 4666 
L 2450 4666 
L 2450 531 
L 3481 531 
L 3481 0 
L 794 0 
L 794 531 
z
" transform="scale(0.015625)"/>
       </defs>
       <use xlink:href="#DejaVuSans-Oblique-3b5" transform="translate(0 0.78125)"/>
       <use xlink:href="#DejaVuSans-30" transform="translate(54.052734 -15.625) scale(0.7)"/>
       <use xlink:href="#DejaVuSans-2f" transform="translate(101.323242 0.78125)"/>
       <use xlink:href="#DejaVuSans-31" transform="translate(135.014648 0.78125)"/>
       <use xlink:href="#DejaVuSans-30" transform="translate(198.637695 0.78125)"/>
      </g>
     </g>
    </g>
    <g id="xtick_4">
     <g id="line2d_4">
      <g>
       <use xlink:href="#m48d7a9ec93" x="286.485943" y="506.083474" style="stroke: #000000; stroke-width: 0.8"/>
      </g>
     </g>
     <g id="text_4">
      <!-- $\varepsilon_0/5$ -->
      <g transform="translate(276.535943 521.077224) scale(0.1 -0.1)">
       <defs>
        <path id="DejaVuSans-35" d="M 691 4666 
L 3169 4666 
L 3169 4134 
L 1269 4134 
L 1269 2991 
Q 1406 3038 1543 3061 
Q 1681 3084 1819 3084 
Q 2600 3084 3056 2656 
Q 3513 2228 3513 1497 
Q 3513 744 3044 326 
Q 2575 -91 1722 -91 
Q 1428 -91 1123 -41 
Q 819 9 494 109 
L 494 744 
Q 775 591 1075 516 
Q 1375 441 1709 441 
Q 2250 441 2565 725 
Q 2881 1009 2881 1497 
Q 2881 1984 2565 2268 
Q 2250 2553 1709 2553 
Q 1456 2553 1204 2497 
Q 953 2441 691 2322 
L 691 4666 
z
" transform="scale(0.015625)"/>
       </defs>
       <use xlink:href="#DejaVuSans-Oblique-3b5" transform="translate(0 0.09375)"/>
       <use xlink:href="#DejaVuSans-30" transform="translate(54.052734 -16.3125) scale(0.7)"/>
       <use xlink:href="#DejaVuSans-2f" transform="translate(101.323242 0.09375)"/>
       <use xlink:href="#DejaVuSans-35" transform="translate(135.014648 0.09375)"/>
      </g>
     </g>
    </g>
    <g id="xtick_5">
     <g id="line2d_5">
      <g>
       <use xlink:href="#m48d7a9ec93" x="1027.978971" y="506.083474" style="stroke: #000000; stroke-width: 0.8"/>
      </g>
     </g>
     <g id="text_5">
      <!-- $\varepsilon_0$ -->
      <g transform="translate(1022.878971 521.077224) scale(0.1 -0.1)">
       <use xlink:href="#DejaVuSans-Oblique-3b5" transform="translate(0 0.9375)"/>
       <use xlink:href="#DejaVuSans-30" transform="translate(54.052734 -15.46875) scale(0.7)"/>
      </g>
     </g>
    </g>
    <g id="text_6">
     <!-- 应变$\varepsilon$ -->
     <g transform="translate(551.795829 535.556912) scale(0.1 -0.1)">
      <defs>
       <path id="MicrosoftYaHei-5e94" d="M 2969 5134 
L 3425 5378 
Q 3694 5034 3938 4634 
L 3634 4459 
L 6169 4459 
L 6169 3984 
L 1300 3984 
L 1300 2453 
Q 1300 241 388 -853 
Q 238 -647 25 -422 
Q 775 416 775 2441 
L 775 4459 
L 3419 4459 
Q 3216 4803 2969 5134 
z
M 1263 -9 
L 4153 -9 
Q 4641 1238 5188 3403 
L 5731 3253 
Q 5147 1191 4694 -9 
L 6238 -9 
L 6238 -484 
L 1263 -484 
L 1263 -9 
z
M 1600 3059 
L 2075 3222 
Q 2463 2084 2825 672 
L 2294 509 
Q 2006 1747 1600 3059 
z
M 3106 3372 
L 3588 3509 
Q 3913 2384 4163 991 
L 3613 847 
Q 3431 2084 3106 3372 
z
" transform="scale(0.015625)"/>
       <path id="MicrosoftYaHei-53d8" d="M 838 1634 
L 838 2066 
L 5088 2066 
L 5088 1634 
Q 4494 853 3659 309 
Q 4675 -178 6313 -297 
Q 6088 -609 5950 -822 
Q 4275 -594 3178 34 
Q 2122 -509 425 -866 
Q 269 -622 106 -403 
Q 1741 -122 2728 328 
Q 2047 838 1553 1634 
L 838 1634 
z
M 231 4534 
L 3081 4534 
Q 2888 4884 2725 5141 
L 3175 5359 
Q 3481 4884 3600 4659 
L 3359 4534 
L 6200 4534 
L 6200 4091 
L 4181 4091 
L 4181 2353 
L 3700 2353 
L 3700 4091 
L 2694 4091 
L 2694 2341 
L 2213 2341 
L 2213 4091 
L 231 4091 
L 231 4534 
z
M 4475 1634 
L 2116 1634 
Q 2575 953 3197 572 
Q 3947 1016 4475 1634 
z
M 4556 3434 
L 4900 3728 
Q 5700 3009 6213 2459 
L 5825 2116 
Q 5219 2797 4556 3434 
z
M 1381 3741 
L 1756 3422 
Q 1119 2691 500 2097 
Q 344 2272 138 2447 
Q 794 3009 1381 3741 
z
" transform="scale(0.015625)"/>
      </defs>
      <use xlink:href="#MicrosoftYaHei-5e94" transform="translate(0 0.96875)"/>
      <use xlink:href="#MicrosoftYaHei-53d8" transform="translate(100 0.96875)"/>
      <use xlink:href="#DejaVuSans-Oblique-3b5" transform="translate(200 0.96875)"/>
     </g>
    </g>
   </g>
   <g id="matplotlib.axis_2">
    <g id="ytick_1">
     <g id="line2d_6">
      <defs>
       <path id="m8fdd69a1eb" d="M 0 0 
L -3.5 0 
" style="stroke: #000000; stroke-width: 0.8"/>
      </defs>
      <g>
       <use xlink:href="#m8fdd69a1eb" x="54.769371" y="484.034194" style="stroke: #000000; stroke-width: 0.8"/>
      </g>
     </g>
     <g id="text_7">
      <!-- 0 -->
      <g transform="translate(41.905309 488.031069) scale(0.1 -0.1)">
       <use xlink:href="#MicrosoftYaHei-30"/>
      </g>
     </g>
    </g>
    <g id="ytick_2">
     <g id="line2d_7">
      <g>
       <use xlink:href="#m8fdd69a1eb" x="54.769371" y="43.048594" style="stroke: #000000; stroke-width: 0.8"/>
      </g>
     </g>
     <g id="text_8">
      <!-- $\sigma_0$ -->
      <g transform="translate(36.669371 47.045469) scale(0.1 -0.1)">
       <defs>
        <path id="DejaVuSans-Oblique-3c3" d="M 2219 3044 
Q 1744 3044 1422 2700 
Q 1081 2341 969 1747 
Q 844 1119 1044 756 
Q 1241 397 1706 397 
Q 2166 397 2503 759 
Q 2844 1122 2966 1747 
Q 3075 2319 2881 2700 
Q 2700 3044 2219 3044 
z
M 2309 3503 
L 4219 3500 
L 4106 2925 
L 3463 2925 
Q 3706 2438 3575 1747 
Q 3406 888 2884 400 
Q 2359 -91 1609 -91 
Q 856 -91 525 400 
Q 194 888 363 1747 
Q 528 2609 1050 3097 
Q 1484 3503 2309 3503 
z
" transform="scale(0.015625)"/>
       </defs>
       <use xlink:href="#DejaVuSans-Oblique-3c3" transform="translate(0 0.265625)"/>
       <use xlink:href="#DejaVuSans-30" transform="translate(63.378906 -16.140625) scale(0.7)"/>
      </g>
     </g>
    </g>
    <g id="text_9">
     <!-- 应力$\sigma$ -->
     <g transform="translate(30.183434 276.741394) rotate(-90) scale(0.1 -0.1)">
      <defs>
       <path id="MicrosoftYaHei-529b" d="M 400 3916 
L 2425 3916 
Q 2444 4603 2450 5316 
L 2994 5316 
Q 2981 4653 2963 3916 
L 5831 3916 
Q 5756 1472 5688 459 
Q 5606 -616 4538 -628 
Q 4025 -628 3300 -603 
Q 3275 -359 3206 -9 
L 3225 -9 
Q 4038 -84 4488 -78 
Q 5094 -66 5156 591 
Q 5231 1709 5269 3403 
L 2950 3403 
Q 2894 1775 2431 953 
Q 1938 41 506 -803 
Q 331 -578 131 -328 
Q 1488 434 1913 1209 
Q 2353 1913 2406 3403 
L 400 3403 
L 400 3916 
z
" transform="scale(0.015625)"/>
      </defs>
      <use xlink:href="#MicrosoftYaHei-5e94" transform="translate(0 0.96875)"/>
      <use xlink:href="#MicrosoftYaHei-529b" transform="translate(100 0.96875)"/>
      <use xlink:href="#DejaVuSans-Oblique-3c3" transform="translate(200 0.96875)"/>
     </g>
    </g>
   </g>
   <g id="line2d_8">
    <path d="M 101.112686 484.034194 
L 120.028324 466.21845 
L 138.943963 448.77004 
L 157.859601 431.688965 
L 176.77524 414.975225 
L 195.690878 398.62882 
L 214.606517 382.64975 
L 233.522155 367.038015 
L 252.437794 351.793615 
L 271.353432 336.916549 
L 290.269071 322.406819 
L 309.184709 308.264424 
L 328.100348 294.489363 
L 347.015986 281.081638 
L 365.931624 268.041247 
L 384.847263 255.368192 
L 403.762901 243.062471 
L 422.67854 231.124085 
L 441.594178 219.553035 
L 460.509817 208.349319 
L 479.425455 197.512938 
L 498.341094 187.043892 
L 517.256732 176.942181 
L 536.172371 167.207805 
L 555.088009 157.840764 
L 574.003648 148.841058 
L 592.919286 140.208687 
L 611.834925 131.943651 
L 630.750563 124.045949 
L 649.666202 116.515583 
L 668.58184 109.352552 
L 687.497479 102.556855 
L 706.413117 96.128494 
L 725.328756 90.067467 
L 744.244394 84.373775 
L 763.160033 79.047419 
L 782.075671 74.088397 
L 800.99131 69.49671 
L 819.906948 65.272358 
L 838.822587 61.415341 
L 857.738225 57.92566 
L 876.653864 54.803312 
L 895.569502 52.0483 
L 914.485141 49.660623 
L 933.400779 47.640281 
L 952.316417 45.987274 
L 971.232056 44.701602 
L 990.147694 43.783264 
L 1009.063333 43.232262 
L 1027.978971 43.048594 
" clip-path="url(#p35d7beae78)" style="fill: none; stroke: #e41a1c; stroke-width: 1.5; stroke-linecap: square"/>
   </g>
   <g id="line2d_9">
    <path d="M 101.112686 484.034194 
L 286.485943 325.279378 
" clip-path="url(#p35d7beae78)" style="fill: none; stroke: #377eb8; stroke-width: 1.5; stroke-linecap: square"/>
   </g>
   <g id="line2d_10">
    <path d="M 101.112686 484.034194 
L 193.799314 400.24693 
" clip-path="url(#p35d7beae78)" style="fill: none; stroke: #4daf4a; stroke-width: 1.5; stroke-linecap: square"/>
   </g>
   <g id="line2d_11">
    <path d="M 101.112686 484.034194 
L 147.456 441.038098 
" clip-path="url(#p35d7beae78)" style="fill: none; stroke: #984ea3; stroke-width: 1.5; stroke-linecap: square"/>
   </g>
   <g id="patch_3">
    <path d="M 54.769371 506.083474 
L 54.769371 20.999314 
" style="fill: none; stroke: #000000; stroke-width: 0.8; stroke-linejoin: miter; stroke-linecap: square"/>
   </g>
   <g id="patch_4">
    <path d="M 1074.322286 506.083474 
L 1074.322286 20.999314 
" style="fill: none; stroke: #000000; stroke-width: 0.8; stroke-linejoin: miter; stroke-linecap: square"/>
   </g>
   <g id="patch_5">
    <path d="M 54.769371 506.083474 
L 1074.322286 506.083474 
" style="fill: none; stroke: #000000; stroke-width: 0.8; stroke-linejoin: miter; stroke-linecap: square"/>
   </g>
   <g id="patch_6">
    <path d="M 54.769371 20.999314 
L 1074.322286 20.999314 
" style="fill: none; stroke: #000000; stroke-width: 0.8; stroke-linejoin: miter; stroke-linecap: square"/>
   </g>
   <g id="legend_1">
    <g id="patch_7">
     <path d="M 61.769371 90.918064 
L 145.633434 90.918064 
Q 147.633434 90.918064 147.633434 88.918064 
L 147.633434 27.999314 
Q 147.633434 25.999314 145.633434 25.999314 
L 61.769371 25.999314 
Q 59.769371 25.999314 59.769371 27.999314 
L 59.769371 88.918064 
Q 59.769371 90.918064 61.769371 90.918064 
z
" style="fill: #ffffff; opacity: 0.8; stroke: #cccccc; stroke-linejoin: miter"/>
    </g>
    <g id="line2d_12">
     <path d="M 63.769371 34.493064 
L 73.769371 34.493064 
L 83.769371 34.493064 
" style="fill: none; stroke: #e41a1c; stroke-width: 1.5; stroke-linecap: square"/>
    </g>
    <g id="text_10">
     <!-- 塑性本构 -->
     <g transform="translate(91.769371 37.993064) scale(0.1 -0.1)">
      <defs>
       <path id="MicrosoftYaHei-5851" d="M 3675 4922 
L 5888 4922 
L 5888 2078 
Q 5888 1391 5250 1391 
Q 5019 1384 4481 1384 
Q 4475 1422 4406 1866 
Q 4781 1847 5175 1847 
Q 5438 1847 5438 2147 
L 5438 2484 
L 3975 2484 
Q 3788 1834 3175 1291 
Q 3019 1466 2800 1628 
Q 3331 2041 3506 2534 
Q 3675 2991 3675 4078 
L 3675 4922 
z
M 2756 2216 
L 2756 2384 
L 1975 2384 
Q 1794 1672 888 1059 
Q 775 1241 600 1441 
Q 1300 1834 1513 2384 
L 594 2384 
L 594 3678 
L 994 3678 
L 994 2784 
L 1613 2784 
Q 1675 3122 1669 3934 
L 313 3934 
L 313 4334 
L 1213 4334 
Q 950 4759 731 5028 
L 1075 5259 
Q 1275 5028 1600 4584 
L 1244 4334 
L 2081 4334 
Q 2394 4859 2594 5291 
L 3031 5097 
Q 2844 4816 2506 4334 
L 3413 4334 
L 3413 3934 
L 2094 3934 
Q 2100 3134 2050 2784 
L 2756 2784 
L 2756 3697 
L 3156 3697 
L 3156 2216 
L 2756 2216 
z
M 138 -166 
L 2994 -166 
L 2994 516 
L 919 516 
L 919 928 
L 2994 928 
L 2994 1278 
L 3456 1278 
L 3456 928 
L 5481 928 
L 5481 516 
L 3456 516 
L 3456 -166 
L 6275 -166 
L 6275 -578 
L 138 -578 
L 138 -166 
z
M 4056 2872 
L 5438 2872 
L 5438 3503 
L 4113 3503 
Q 4094 3147 4056 2872 
z
M 5438 4522 
L 4125 4522 
L 4125 3891 
L 5438 3891 
L 5438 4522 
z
" transform="scale(0.015625)"/>
       <path id="MicrosoftYaHei-6027" d="M 1963 -153 
L 3988 -153 
L 3988 1522 
L 2375 1522 
L 2375 1959 
L 3988 1959 
L 3988 3472 
L 2975 3472 
Q 2744 2878 2438 2291 
Q 2169 2509 2019 2578 
Q 2644 3709 2894 4891 
L 3388 4759 
Q 3281 4328 3138 3909 
L 3988 3909 
L 3988 5284 
L 4481 5284 
L 4481 3909 
L 6125 3909 
L 6125 3472 
L 4481 3472 
L 4481 1959 
L 6000 1959 
L 6000 1522 
L 4481 1522 
L 4481 -153 
L 6319 -153 
L 6319 -591 
L 1963 -591 
L 1963 -153 
z
M 988 5291 
L 1469 5291 
L 1469 4091 
L 1738 4241 
Q 2063 3734 2294 3291 
L 1906 3041 
Q 1688 3503 1469 3859 
L 1469 -872 
L 988 -872 
L 988 5291 
z
M 406 3878 
L 819 3784 
Q 706 3028 506 2178 
Q 338 2241 75 2297 
Q 263 2978 406 3878 
z
" transform="scale(0.015625)"/>
       <path id="MicrosoftYaHei-672c" d="M 6281 803 
Q 6119 641 5856 366 
Q 4344 1531 3444 3353 
L 3444 878 
L 4875 878 
L 4875 441 
L 3444 441 
L 3444 -841 
L 2956 -841 
L 2956 441 
L 1475 441 
L 1475 878 
L 2956 878 
L 2956 3353 
Q 2159 1766 513 291 
Q 269 522 100 666 
Q 1878 2125 2759 3753 
L 238 3753 
L 238 4216 
L 2956 4216 
L 2956 5341 
L 3444 5341 
L 3444 4216 
L 6163 4216 
L 6163 3753 
L 3622 3753 
Q 4616 1884 6281 803 
z
" transform="scale(0.015625)"/>
       <path id="MicrosoftYaHei-6784" d="M 2138 3059 
Q 2838 4047 3256 5309 
L 3738 5153 
Q 3556 4722 3388 4347 
L 6081 4347 
Q 5994 1153 5956 397 
Q 5925 -259 5656 -503 
Q 5400 -747 4731 -747 
Q 4238 -747 3700 -716 
Q 3663 -466 3594 -166 
Q 4213 -234 4713 -247 
Q 5144 -253 5294 -97 
Q 5450 34 5469 472 
Q 5513 1316 5575 3891 
L 3169 3891 
Q 2838 3241 2525 2797 
Q 2369 2916 2138 3059 
z
M 81 1359 
Q 731 2372 1000 3578 
L 125 3578 
L 125 3997 
L 1006 3997 
L 1006 5234 
L 1438 5234 
L 1438 3997 
L 2250 3997 
L 2250 3578 
L 1438 3578 
L 1438 2734 
L 1613 2916 
Q 2038 2528 2494 2091 
L 2163 1747 
Q 1775 2191 1438 2516 
L 1438 -834 
L 1006 -834 
L 1006 2384 
Q 700 1409 281 809 
Q 200 1078 81 1359 
z
M 3925 2253 
L 4306 2453 
Q 4763 1666 5250 734 
L 4806 497 
Q 4731 666 4650 834 
Q 3838 784 3050 722 
Q 2856 703 2500 628 
L 2288 1078 
Q 2488 1216 2625 1416 
Q 3138 2222 3638 3397 
L 4106 3203 
Q 3738 2391 2981 1172 
Q 3881 1197 4463 1222 
Q 4213 1741 3925 2253 
z
" transform="scale(0.015625)"/>
      </defs>
      <use xlink:href="#MicrosoftYaHei-5851"/>
      <use xlink:href="#MicrosoftYaHei-6027" x="100"/>
      <use xlink:href="#MicrosoftYaHei-672c" x="200"/>
      <use xlink:href="#MicrosoftYaHei-6784" x="300"/>
     </g>
    </g>
    <g id="line2d_13">
     <path d="M 63.769371 49.972752 
L 73.769371 49.972752 
L 83.769371 49.972752 
" style="fill: none; stroke: #377eb8; stroke-width: 1.5; stroke-linecap: square"/>
    </g>
    <g id="text_11">
     <!-- 1/5弹性段 -->
     <g transform="translate(91.769371 53.472752) scale(0.1 -0.1)">
      <defs>
       <path id="MicrosoftYaHei-31" d="M 1781 0 
L 1781 4141 
Q 1638 3997 1295 3819 
Q 953 3641 663 3569 
L 663 4169 
Q 1047 4275 1484 4508 
Q 1922 4741 2156 4947 
L 2388 4947 
L 2388 0 
L 1781 0 
z
" transform="scale(0.015625)"/>
       <path id="MicrosoftYaHei-2f" d="M 2791 4841 
L 469 -803 
L -103 -803 
L 2219 4841 
L 2791 4841 
z
" transform="scale(0.015625)"/>
       <path id="MicrosoftYaHei-35" d="M 3294 1494 
Q 3294 784 2823 350 
Q 2353 -84 1559 -84 
Q 878 -84 544 119 
L 544 744 
Q 1034 425 1544 425 
Q 2050 425 2361 704 
Q 2672 984 2672 1447 
Q 2672 1909 2348 2167 
Q 2025 2425 1434 2425 
Q 978 2425 613 2384 
L 791 4841 
L 3053 4841 
L 3053 4303 
L 1306 4303 
L 1206 2931 
L 1647 2950 
Q 2416 2950 2855 2567 
Q 3294 2184 3294 1494 
z
" transform="scale(0.015625)"/>
       <path id="MicrosoftYaHei-5f39" d="M 2950 5084 
L 3325 5341 
Q 3631 4997 3956 4534 
L 3584 4284 
L 4494 4284 
Q 4834 4828 5119 5341 
L 5581 5072 
Q 5325 4697 5028 4284 
L 6006 4284 
L 6006 1309 
L 5569 1309 
L 5569 1528 
L 4506 1528 
L 4506 759 
L 6319 759 
L 6319 341 
L 4506 341 
L 4506 -834 
L 4056 -834 
L 4056 341 
L 2213 341 
L 2213 759 
L 4056 759 
L 4056 1528 
L 2994 1528 
L 2994 1309 
L 2556 1309 
L 2556 4284 
L 3509 4284 
Q 3266 4684 2950 5084 
z
M 156 4972 
L 1969 4972 
L 1969 2859 
L 1531 2859 
L 1531 3072 
L 831 3072 
L 731 1997 
L 1956 1997 
Q 1944 1103 1906 241 
Q 1863 -703 1063 -703 
Q 844 -703 281 -691 
Q 244 -453 175 -197 
Q 750 -241 981 -241 
Q 1425 -241 1444 272 
Q 1481 966 1494 1572 
L 250 1572 
L 431 3497 
L 1531 3497 
L 1531 4547 
L 156 4547 
L 156 4972 
z
M 4506 1947 
L 5569 1947 
L 5569 2703 
L 4506 2703 
L 4506 1947 
z
M 2994 3866 
L 2994 3109 
L 4056 3109 
L 4056 3866 
L 2994 3866 
z
M 5569 3866 
L 4506 3866 
L 4506 3109 
L 5569 3109 
L 5569 3866 
z
M 2994 1947 
L 4056 1947 
L 4056 2703 
L 2994 2703 
L 2994 1947 
z
" transform="scale(0.015625)"/>
       <path id="MicrosoftYaHei-6bb5" d="M 2844 1978 
L 2844 2422 
L 5763 2422 
L 5763 1953 
Q 5397 1069 4731 416 
Q 5378 -63 6338 -266 
Q 6144 -516 6019 -747 
Q 5031 -456 4359 88 
Q 3638 -488 2631 -853 
Q 2450 -559 2331 -422 
Q 3313 -75 3997 428 
Q 3400 1069 3138 1978 
L 2844 1978 
z
M 88 722 
Q 325 744 569 769 
L 569 4897 
Q 1931 4972 2719 5116 
L 2888 4653 
Q 2175 4559 1031 4484 
L 1031 3616 
L 2613 3616 
L 2613 3203 
L 1031 3203 
L 1031 2259 
L 2594 2259 
L 2594 1847 
L 1031 1847 
L 1031 819 
Q 1891 916 2838 1041 
Q 2831 916 2831 591 
Q 1894 484 1031 366 
L 1031 -816 
L 569 -816 
L 569 303 
Q 381 275 200 247 
L 88 722 
z
M 5738 3209 
Q 5981 3209 6306 3228 
L 6219 2759 
Q 5906 2747 5625 2747 
Q 4988 2747 4988 3459 
L 4988 4553 
L 3831 4553 
L 3831 4216 
Q 3831 3053 2938 2522 
Q 2781 2709 2600 2909 
Q 3363 3272 3363 4241 
L 3363 4997 
L 5456 4997 
L 5456 3497 
Q 5456 3209 5738 3209 
z
M 5256 1978 
L 3613 1978 
Q 3863 1241 4363 731 
Q 4956 1275 5256 1978 
z
" transform="scale(0.015625)"/>
      </defs>
      <use xlink:href="#MicrosoftYaHei-31"/>
      <use xlink:href="#MicrosoftYaHei-2f" x="58.642578"/>
      <use xlink:href="#MicrosoftYaHei-35" x="101.367188"/>
      <use xlink:href="#MicrosoftYaHei-5f39" x="160.009766"/>
      <use xlink:href="#MicrosoftYaHei-6027" x="260.009766"/>
      <use xlink:href="#MicrosoftYaHei-6bb5" x="360.009766"/>
     </g>
    </g>
    <g id="line2d_14">
     <path d="M 63.769371 65.452439 
L 73.769371 65.452439 
L 83.769371 65.452439 
" style="fill: none; stroke: #4daf4a; stroke-width: 1.5; stroke-linecap: square"/>
    </g>
    <g id="text_12">
     <!-- 1/10弹性段 -->
     <g transform="translate(91.769371 68.952439) scale(0.1 -0.1)">
      <use xlink:href="#MicrosoftYaHei-31"/>
      <use xlink:href="#MicrosoftYaHei-2f" x="58.642578"/>
      <use xlink:href="#MicrosoftYaHei-31" x="101.367188"/>
      <use xlink:href="#MicrosoftYaHei-30" x="160.009766"/>
      <use xlink:href="#MicrosoftYaHei-5f39" x="218.652344"/>
      <use xlink:href="#MicrosoftYaHei-6027" x="318.652344"/>
      <use xlink:href="#MicrosoftYaHei-6bb5" x="418.652344"/>
     </g>
    </g>
    <g id="line2d_15">
     <path d="M 63.769371 80.932127 
L 73.769371 80.932127 
L 83.769371 80.932127 
" style="fill: none; stroke: #984ea3; stroke-width: 1.5; stroke-linecap: square"/>
    </g>
    <g id="text_13">
     <!-- 1/20弹性段 -->
     <g transform="translate(91.769371 84.432127) scale(0.1 -0.1)">
      <defs>
       <path id="MicrosoftYaHei-32" d="M 2666 3572 
Q 2666 3963 2419 4186 
Q 2172 4409 1747 4409 
Q 1447 4409 1140 4256 
Q 834 4103 569 3819 
L 569 4413 
Q 806 4659 1107 4790 
Q 1409 4922 1816 4922 
Q 2472 4922 2872 4570 
Q 3272 4219 3272 3619 
Q 3272 3084 3026 2693 
Q 2781 2303 2188 1894 
Q 1581 1475 1376 1294 
Q 1172 1113 1090 947 
Q 1009 781 1009 544 
L 3416 544 
L 3416 0 
L 372 0 
L 372 241 
Q 372 659 486 951 
Q 600 1244 862 1520 
Q 1125 1797 1681 2184 
Q 2250 2584 2458 2886 
Q 2666 3188 2666 3572 
z
" transform="scale(0.015625)"/>
      </defs>
      <use xlink:href="#MicrosoftYaHei-31"/>
      <use xlink:href="#MicrosoftYaHei-2f" x="58.642578"/>
      <use xlink:href="#MicrosoftYaHei-32" x="101.367188"/>
      <use xlink:href="#MicrosoftYaHei-30" x="160.009766"/>
      <use xlink:href="#MicrosoftYaHei-5f39" x="218.652344"/>
      <use xlink:href="#MicrosoftYaHei-6027" x="318.652344"/>
      <use xlink:href="#MicrosoftYaHei-6bb5" x="418.652344"/>
     </g>
    </g>
   </g>
  </g>
 </g>
 <defs>
  <clipPath id="p35d7beae78">
   <rect x="54.769371" y="20.999314" width="1019.552914" height="485.08416"/>
  </clipPath>
 </defs>
</svg>
