<?xml version="1.0" encoding="utf-8" standalone="no"?>
<!DOCTYPE svg PUBLIC "-//W3C//DTD SVG 1.1//EN"
  "http://www.w3.org/Graphics/SVG/1.1/DTD/svg11.dtd">
<svg xmlns:xlink="http://www.w3.org/1999/xlink" width="1105.92pt" height="551.232pt" viewBox="0 0 1105.92 551.232" xmlns="http://www.w3.org/2000/svg" version="1.1">
 <metadata>
  <rdf:RDF xmlns:dc="http://purl.org/dc/elements/1.1/" xmlns:cc="http://creativecommons.org/ns#" xmlns:rdf="http://www.w3.org/1999/02/22-rdf-syntax-ns#">
   <cc:Work>
    <dc:type rdf:resource="http://purl.org/dc/dcmitype/StillImage"/>
    <dc:date>2023-05-22T16:23:34.845213</dc:date>
    <dc:format>image/svg+xml</dc:format>
    <dc:creator>
     <cc:Agent>
      <dc:title>Matplotlib v3.7.1, https://matplotlib.org/</dc:title>
     </cc:Agent>
    </dc:creator>
   </cc:Work>
  </rdf:RDF>
 </metadata>
 <defs>
  <style type="text/css">*{stroke-linejoin: round; stroke-linecap: butt}</style>
 </defs>
 <g id="figure_1">
  <g id="patch_1">
   <path d="M 0 551.232 
L 1105.92 551.232 
L 1105.92 0 
L 0 0 
z
" style="fill: #ffffff"/>
  </g>
  <g id="axes_1">
   <g id="patch_2">
    <path d="M 73.728 511.333303 
L 1061.6832 511.333303 
L 1061.6832 25.199177 
L 73.728 25.199177 
z
" style="fill: #ffffff"/>
   </g>
   <g id="matplotlib.axis_1">
    <g id="xtick_1">
     <g id="line2d_1">
      <defs>
       <path id="m4e503d0999" d="M 0 0 
L 0 3.5 
" style="stroke: #000000; stroke-width: 0.8"/>
      </defs>
      <g>
       <use xlink:href="#m4e503d0999" x="118.635055" y="511.333303" style="stroke: #000000; stroke-width: 0.8"/>
      </g>
     </g>
     <g id="text_1">
      <!-- 15.0 -->
      <g transform="translate(108.635055 526.327053) scale(0.1 -0.1)">
       <defs>
        <path id="MicrosoftYaHei-31" d="M 1781 0 
L 1781 4141 
Q 1638 3997 1295 3819 
Q 953 3641 663 3569 
L 663 4169 
Q 1047 4275 1484 4508 
Q 1922 4741 2156 4947 
L 2388 4947 
L 2388 0 
L 1781 0 
z
" transform="scale(0.015625)"/>
        <path id="MicrosoftYaHei-35" d="M 3294 1494 
Q 3294 784 2823 350 
Q 2353 -84 1559 -84 
Q 878 -84 544 119 
L 544 744 
Q 1034 425 1544 425 
Q 2050 425 2361 704 
Q 2672 984 2672 1447 
Q 2672 1909 2348 2167 
Q 2025 2425 1434 2425 
Q 978 2425 613 2384 
L 791 4841 
L 3053 4841 
L 3053 4303 
L 1306 4303 
L 1206 2931 
L 1647 2950 
Q 2416 2950 2855 2567 
Q 3294 2184 3294 1494 
z
" transform="scale(0.015625)"/>
        <path id="MicrosoftYaHei-2e" d="M 372 322 
Q 372 491 487 606 
Q 603 722 775 722 
Q 950 722 1065 605 
Q 1181 488 1181 322 
Q 1181 159 1065 42 
Q 950 -75 772 -75 
Q 600 -75 486 42 
Q 372 159 372 322 
z
" transform="scale(0.015625)"/>
        <path id="MicrosoftYaHei-30" d="M 284 2325 
Q 284 3606 709 4264 
Q 1134 4922 1941 4922 
Q 3478 4922 3478 2441 
Q 3478 1216 3045 567 
Q 2613 -81 1831 -81 
Q 1094 -81 689 534 
Q 284 1150 284 2325 
z
M 909 2353 
Q 909 425 1888 425 
Q 2850 425 2850 2384 
Q 2850 4413 1906 4413 
Q 909 4413 909 2353 
z
" transform="scale(0.015625)"/>
       </defs>
       <use xlink:href="#MicrosoftYaHei-31"/>
       <use xlink:href="#MicrosoftYaHei-35" x="58.642578"/>
       <use xlink:href="#MicrosoftYaHei-2e" x="117.285156"/>
       <use xlink:href="#MicrosoftYaHei-30" x="141.357422"/>
      </g>
     </g>
    </g>
    <g id="xtick_2">
     <g id="line2d_2">
      <g>
       <use xlink:href="#m4e503d0999" x="230.902691" y="511.333303" style="stroke: #000000; stroke-width: 0.8"/>
      </g>
     </g>
     <g id="text_2">
      <!-- 17.5 -->
      <g transform="translate(220.902691 526.327053) scale(0.1 -0.1)">
       <defs>
        <path id="MicrosoftYaHei-37" d="M 3422 4463 
Q 2659 3131 2223 1998 
Q 1788 866 1684 0 
L 1047 0 
Q 1163 853 1594 1947 
Q 2025 3041 2747 4300 
L 347 4300 
L 347 4841 
L 3422 4841 
L 3422 4463 
z
" transform="scale(0.015625)"/>
       </defs>
       <use xlink:href="#MicrosoftYaHei-31"/>
       <use xlink:href="#MicrosoftYaHei-37" x="58.642578"/>
       <use xlink:href="#MicrosoftYaHei-2e" x="117.285156"/>
       <use xlink:href="#MicrosoftYaHei-35" x="141.357422"/>
      </g>
     </g>
    </g>
    <g id="xtick_3">
     <g id="line2d_3">
      <g>
       <use xlink:href="#m4e503d0999" x="343.170327" y="511.333303" style="stroke: #000000; stroke-width: 0.8"/>
      </g>
     </g>
     <g id="text_3">
      <!-- 20.0 -->
      <g transform="translate(333.170327 526.327053) scale(0.1 -0.1)">
       <defs>
        <path id="MicrosoftYaHei-32" d="M 2666 3572 
Q 2666 3963 2419 4186 
Q 2172 4409 1747 4409 
Q 1447 4409 1140 4256 
Q 834 4103 569 3819 
L 569 4413 
Q 806 4659 1107 4790 
Q 1409 4922 1816 4922 
Q 2472 4922 2872 4570 
Q 3272 4219 3272 3619 
Q 3272 3084 3026 2693 
Q 2781 2303 2188 1894 
Q 1581 1475 1376 1294 
Q 1172 1113 1090 947 
Q 1009 781 1009 544 
L 3416 544 
L 3416 0 
L 372 0 
L 372 241 
Q 372 659 486 951 
Q 600 1244 862 1520 
Q 1125 1797 1681 2184 
Q 2250 2584 2458 2886 
Q 2666 3188 2666 3572 
z
" transform="scale(0.015625)"/>
       </defs>
       <use xlink:href="#MicrosoftYaHei-32"/>
       <use xlink:href="#MicrosoftYaHei-30" x="58.642578"/>
       <use xlink:href="#MicrosoftYaHei-2e" x="117.285156"/>
       <use xlink:href="#MicrosoftYaHei-30" x="141.357422"/>
      </g>
     </g>
    </g>
    <g id="xtick_4">
     <g id="line2d_4">
      <g>
       <use xlink:href="#m4e503d0999" x="455.437964" y="511.333303" style="stroke: #000000; stroke-width: 0.8"/>
      </g>
     </g>
     <g id="text_4">
      <!-- 22.5 -->
      <g transform="translate(445.437964 526.327053) scale(0.1 -0.1)">
       <use xlink:href="#MicrosoftYaHei-32"/>
       <use xlink:href="#MicrosoftYaHei-32" x="58.642578"/>
       <use xlink:href="#MicrosoftYaHei-2e" x="117.285156"/>
       <use xlink:href="#MicrosoftYaHei-35" x="141.357422"/>
      </g>
     </g>
    </g>
    <g id="xtick_5">
     <g id="line2d_5">
      <g>
       <use xlink:href="#m4e503d0999" x="567.7056" y="511.333303" style="stroke: #000000; stroke-width: 0.8"/>
      </g>
     </g>
     <g id="text_5">
      <!-- 25.0 -->
      <g transform="translate(557.7056 526.327053) scale(0.1 -0.1)">
       <use xlink:href="#MicrosoftYaHei-32"/>
       <use xlink:href="#MicrosoftYaHei-35" x="58.642578"/>
       <use xlink:href="#MicrosoftYaHei-2e" x="117.285156"/>
       <use xlink:href="#MicrosoftYaHei-30" x="141.357422"/>
      </g>
     </g>
    </g>
    <g id="xtick_6">
     <g id="line2d_6">
      <g>
       <use xlink:href="#m4e503d0999" x="679.973236" y="511.333303" style="stroke: #000000; stroke-width: 0.8"/>
      </g>
     </g>
     <g id="text_6">
      <!-- 27.5 -->
      <g transform="translate(669.973236 526.327053) scale(0.1 -0.1)">
       <use xlink:href="#MicrosoftYaHei-32"/>
       <use xlink:href="#MicrosoftYaHei-37" x="58.642578"/>
       <use xlink:href="#MicrosoftYaHei-2e" x="117.285156"/>
       <use xlink:href="#MicrosoftYaHei-35" x="141.357422"/>
      </g>
     </g>
    </g>
    <g id="xtick_7">
     <g id="line2d_7">
      <g>
       <use xlink:href="#m4e503d0999" x="792.240873" y="511.333303" style="stroke: #000000; stroke-width: 0.8"/>
      </g>
     </g>
     <g id="text_7">
      <!-- 30.0 -->
      <g transform="translate(782.240873 526.327053) scale(0.1 -0.1)">
       <defs>
        <path id="MicrosoftYaHei-33" d="M 447 809 
Q 944 425 1569 425 
Q 2069 425 2361 670 
Q 2653 916 2653 1328 
Q 2653 2247 1338 2247 
L 934 2247 
L 934 2753 
L 1319 2753 
Q 2484 2753 2484 3616 
Q 2484 4413 1594 4413 
Q 1084 4413 634 4069 
L 634 4647 
Q 1109 4922 1744 4922 
Q 2363 4922 2738 4598 
Q 3113 4275 3113 3759 
Q 3113 2809 2144 2538 
L 2144 2525 
Q 2669 2469 2973 2155 
Q 3278 1841 3278 1372 
Q 3278 719 2808 319 
Q 2338 -81 1556 -81 
Q 869 -81 447 175 
L 447 809 
z
" transform="scale(0.015625)"/>
       </defs>
       <use xlink:href="#MicrosoftYaHei-33"/>
       <use xlink:href="#MicrosoftYaHei-30" x="58.642578"/>
       <use xlink:href="#MicrosoftYaHei-2e" x="117.285156"/>
       <use xlink:href="#MicrosoftYaHei-30" x="141.357422"/>
      </g>
     </g>
    </g>
    <g id="xtick_8">
     <g id="line2d_8">
      <g>
       <use xlink:href="#m4e503d0999" x="904.508509" y="511.333303" style="stroke: #000000; stroke-width: 0.8"/>
      </g>
     </g>
     <g id="text_8">
      <!-- 32.5 -->
      <g transform="translate(894.508509 526.327053) scale(0.1 -0.1)">
       <use xlink:href="#MicrosoftYaHei-33"/>
       <use xlink:href="#MicrosoftYaHei-32" x="58.642578"/>
       <use xlink:href="#MicrosoftYaHei-2e" x="117.285156"/>
       <use xlink:href="#MicrosoftYaHei-35" x="141.357422"/>
      </g>
     </g>
    </g>
    <g id="xtick_9">
     <g id="line2d_9">
      <g>
       <use xlink:href="#m4e503d0999" x="1016.776145" y="511.333303" style="stroke: #000000; stroke-width: 0.8"/>
      </g>
     </g>
     <g id="text_9">
      <!-- 35.0 -->
      <g transform="translate(1006.776145 526.327053) scale(0.1 -0.1)">
       <use xlink:href="#MicrosoftYaHei-33"/>
       <use xlink:href="#MicrosoftYaHei-35" x="58.642578"/>
       <use xlink:href="#MicrosoftYaHei-2e" x="117.285156"/>
       <use xlink:href="#MicrosoftYaHei-30" x="141.357422"/>
      </g>
     </g>
    </g>
    <g id="text_10">
     <!-- 混凝土抗压强度$f_{ck}$ -->
     <g transform="translate(526.8556 540.80674) scale(0.1 -0.1)">
      <defs>
       <path id="MicrosoftYaHei-6df7" d="M 2450 2303 
L 1975 2303 
L 1975 5003 
L 5750 5003 
L 5750 2266 
L 5275 2266 
L 5275 2522 
L 2450 2522 
L 2450 2303 
z
M 3988 2191 
L 4450 2191 
L 4450 1175 
Q 5247 1603 5850 2022 
L 6150 1609 
Q 5516 1222 4450 672 
L 4450 203 
Q 4450 -197 4800 -197 
L 5256 -197 
Q 5563 -197 5625 9 
Q 5719 328 5794 903 
Q 6019 803 6263 728 
Q 6138 59 6069 -178 
Q 5944 -672 5313 -672 
L 4738 -672 
Q 3988 -672 3988 109 
L 3988 2191 
z
M 3738 391 
Q 3731 122 3738 -84 
Q 3050 -359 2600 -553 
Q 2331 -672 2150 -797 
L 1869 -391 
Q 2025 -309 2025 34 
L 2025 2141 
L 2488 2141 
L 2488 1528 
L 3788 1528 
L 3788 1091 
L 2488 1091 
L 2488 -97 
Q 3100 134 3738 391 
z
M 5275 4572 
L 2450 4572 
L 2450 3978 
L 5275 3978 
L 5275 4572 
z
M 2450 2953 
L 5275 2953 
L 5275 3547 
L 2450 3547 
L 2450 2953 
z
M 981 1853 
Q 1244 1734 1494 1634 
Q 1200 616 763 -766 
L 231 -566 
Q 669 603 981 1853 
z
M 406 3647 
Q 1031 3266 1531 2884 
Q 1438 2791 1194 2472 
Q 750 2847 100 3291 
L 406 3647 
z
M 650 5209 
Q 1419 4684 1763 4416 
Q 1569 4191 1425 4022 
Q 881 4484 356 4866 
L 650 5209 
z
" transform="scale(0.015625)"/>
       <path id="MicrosoftYaHei-51dd" d="M 5525 2041 
L 5744 2591 
L 5100 2591 
L 5100 1534 
L 6056 1534 
L 6056 1134 
L 5100 1134 
L 5100 -147 
Q 5494 -216 6250 -147 
Q 6181 -366 6106 -616 
Q 5719 -634 5306 -616 
Q 4413 -597 3969 178 
Q 3781 -434 3388 -878 
Q 3175 -666 3019 -553 
Q 3700 116 3713 1334 
Q 3725 1691 3725 2053 
L 4138 2053 
Q 4138 1178 4094 809 
Q 4331 284 4681 34 
L 4681 2591 
L 3563 2591 
L 3563 2991 
L 4844 2991 
Q 4475 3384 3938 3903 
L 4250 4172 
Q 4550 3891 4869 3591 
L 5563 4509 
L 3706 4509 
L 3706 4928 
L 6069 4928 
L 6069 4478 
L 5175 3303 
Q 5250 3234 5325 3166 
L 5144 2991 
L 6169 2991 
L 6169 2559 
L 5906 1922 
Q 5725 1997 5525 2041 
z
M 1256 1384 
L 2188 1384 
Q 2231 1703 2238 2116 
L 1831 2116 
Q 1700 1822 1544 1578 
Q 1381 1691 1188 1772 
Q 1581 2397 1731 2991 
L 2125 2878 
Q 2063 2684 1994 2509 
L 3388 2509 
L 3388 2116 
L 2650 2116 
Q 2644 1709 2606 1384 
L 3444 1384 
L 3444 991 
L 2550 991 
Q 2531 884 2506 791 
Q 2938 397 3256 91 
L 2944 -209 
Q 2669 84 2369 384 
Q 2088 -253 1369 -853 
Q 1250 -659 1081 -453 
Q 1925 178 2113 991 
L 1256 991 
L 1256 1384 
z
M 1500 5228 
L 1925 5228 
L 1925 4503 
Q 2638 4691 3244 4934 
L 3413 4541 
Q 2631 4272 1925 4109 
L 1925 3809 
Q 1925 3472 2250 3472 
L 2613 3472 
Q 2963 3472 3019 3722 
Q 3063 3941 3094 4197 
Q 3175 4159 3513 4022 
Q 3469 3797 3413 3572 
Q 3300 3066 2706 3066 
L 2156 3066 
Q 1500 3066 1500 3759 
L 1500 5228 
z
M 650 2441 
Q 938 2328 1138 2272 
Q 925 1291 575 -453 
L 88 -228 
Q 413 941 650 2441 
z
M 556 4878 
Q 944 4134 1244 3453 
L 781 3191 
Q 488 3997 156 4666 
L 556 4878 
z
" transform="scale(0.015625)"/>
       <path id="MicrosoftYaHei-571f" d="M 144 97 
L 2919 97 
L 2919 2722 
L 594 2722 
L 594 3234 
L 2919 3234 
L 2919 5266 
L 3481 5266 
L 3481 3234 
L 5825 3234 
L 5825 2722 
L 3481 2722 
L 3481 97 
L 6263 97 
L 6263 -403 
L 144 -403 
L 144 97 
z
" transform="scale(0.015625)"/>
       <path id="MicrosoftYaHei-6297" d="M 3238 2634 
L 3238 1728 
Q 3238 28 2019 -866 
Q 1931 -747 1650 -497 
Q 2750 266 2750 1716 
L 2750 3084 
L 5106 3084 
L 5106 -53 
Q 5106 -266 5325 -266 
L 5538 -266 
Q 5788 -266 5825 128 
Q 5850 372 5881 922 
Q 6131 809 6350 728 
Q 6313 272 6269 -41 
Q 6188 -716 5594 -716 
L 5163 -716 
Q 4619 -716 4619 -141 
L 4619 2634 
L 3238 2634 
z
M 175 4041 
L 981 4041 
L 981 5266 
L 1463 5266 
L 1463 4041 
L 2150 4041 
L 2150 3609 
L 1463 3609 
L 1463 2403 
Q 1838 2519 2219 2641 
Q 2219 2347 2231 2153 
Q 1841 2031 1463 1909 
L 1463 -41 
Q 1463 -741 831 -747 
Q 619 -753 238 -747 
Q 200 -484 156 -216 
Q 506 -253 713 -253 
Q 981 -253 981 34 
L 981 1753 
Q 563 1616 156 1478 
L 94 1997 
Q 534 2122 981 2256 
L 981 3609 
L 175 3609 
L 175 4041 
z
M 2275 4359 
L 3925 4359 
Q 3694 4841 3513 5147 
L 3950 5359 
Q 4219 4909 4394 4553 
L 3988 4359 
L 6025 4359 
L 6025 3909 
L 2275 3909 
L 2275 4359 
z
" transform="scale(0.015625)"/>
       <path id="MicrosoftYaHei-538b" d="M 1363 3 
L 3538 3 
L 3538 2216 
L 1819 2216 
L 1819 2684 
L 3538 2684 
L 3538 4078 
L 4063 4078 
L 4063 2684 
L 5994 2684 
L 5994 2216 
L 4063 2216 
L 4063 3 
L 6250 3 
L 6250 -459 
L 1363 -459 
L 1363 3 
z
M 1363 2772 
Q 1363 1378 1188 672 
Q 1006 -59 488 -803 
Q 338 -622 100 -384 
Q 563 303 694 884 
Q 838 1459 838 2653 
L 838 4866 
L 6219 4866 
L 6219 4391 
L 1363 4391 
L 1363 2772 
z
M 4588 1516 
L 4938 1803 
Q 5413 1316 5881 791 
L 5469 459 
Q 4875 1191 4588 1516 
z
" transform="scale(0.015625)"/>
       <path id="MicrosoftYaHei-5f3a" d="M 5250 466 
L 5669 666 
Q 6031 28 6363 -641 
L 5894 -878 
Q 5794 -641 5688 -416 
Q 3750 -547 2219 -653 
L 2150 -134 
Q 3088 -97 3969 -59 
L 3969 866 
L 2894 866 
L 2894 622 
L 2431 622 
L 2431 2616 
L 3969 2616 
L 3969 3297 
L 3144 3297 
L 3144 3047 
L 2681 3047 
L 2681 4972 
L 5731 4972 
L 5731 3047 
L 5269 3047 
L 5269 3297 
L 4444 3297 
L 4444 2616 
L 5988 2616 
L 5988 866 
L 4444 866 
L 4444 -41 
Q 4975 -22 5488 3 
Q 5369 241 5250 466 
z
M 425 3466 
L 1650 3466 
L 1650 4516 
L 238 4516 
L 238 4941 
L 2113 4941 
L 2113 2772 
L 1650 2772 
L 1650 3041 
L 831 3041 
L 719 2072 
L 2056 2072 
Q 1994 741 1944 128 
Q 1888 -722 1100 -722 
Q 819 -722 425 -716 
Q 388 -484 325 -216 
Q 731 -247 1019 -247 
Q 1444 -247 1475 191 
Q 1525 828 1563 1647 
L 225 1647 
L 425 3466 
z
M 5269 4547 
L 3144 4547 
L 3144 3722 
L 5269 3722 
L 5269 4547 
z
M 5525 1291 
L 5525 2191 
L 4444 2191 
L 4444 1291 
L 5525 1291 
z
M 2894 1291 
L 3969 1291 
L 3969 2191 
L 2894 2191 
L 2894 1291 
z
" transform="scale(0.015625)"/>
       <path id="MicrosoftYaHei-5ea6" d="M 1550 1216 
L 1550 1628 
L 5469 1628 
L 5469 1222 
Q 4903 613 4147 163 
Q 5050 -200 6263 -309 
L 6019 -797 
Q 4625 -603 3644 -109 
Q 2600 -619 1250 -866 
Q 1150 -666 994 -416 
Q 2231 -222 3166 166 
Q 2497 600 2066 1216 
L 1550 1216 
z
M 1363 3541 
L 2294 3541 
L 2294 4066 
L 2769 4066 
L 2769 3541 
L 4538 3541 
L 4538 4072 
L 5013 4072 
L 5013 3541 
L 6150 3541 
L 6150 3128 
L 5013 3128 
L 5013 1928 
L 4538 1928 
L 4538 2147 
L 2769 2147 
L 2769 1922 
L 2294 1922 
L 2294 3128 
L 1363 3128 
L 1363 3541 
z
M 3025 5172 
L 3481 5391 
Q 3694 5056 3909 4634 
L 6213 4634 
L 6213 4197 
L 1225 4197 
L 1225 2316 
Q 1225 178 394 -872 
Q 238 -666 38 -447 
Q 725 397 738 2347 
L 738 4634 
L 3331 4634 
Q 3188 4909 3025 5172 
z
M 2769 2547 
L 4538 2547 
L 4538 3128 
L 2769 3128 
L 2769 2547 
z
M 4819 1216 
L 2588 1216 
Q 3031 728 3656 391 
Q 4334 741 4819 1216 
z
" transform="scale(0.015625)"/>
       <path id="DejaVuSans-Oblique-66" d="M 3059 4863 
L 2969 4384 
L 2419 4384 
Q 2106 4384 1964 4261 
Q 1822 4138 1753 3809 
L 1691 3500 
L 2638 3500 
L 2553 3053 
L 1606 3053 
L 1013 0 
L 434 0 
L 1031 3053 
L 481 3053 
L 563 3500 
L 1113 3500 
L 1159 3744 
Q 1278 4363 1576 4613 
Q 1875 4863 2516 4863 
L 3059 4863 
z
" transform="scale(0.015625)"/>
       <path id="DejaVuSans-Oblique-63" d="M 3431 3366 
L 3316 2797 
Q 3109 2947 2876 3022 
Q 2644 3097 2394 3097 
Q 2119 3097 1870 3000 
Q 1622 2903 1453 2725 
Q 1184 2453 1037 2087 
Q 891 1722 891 1331 
Q 891 859 1127 628 
Q 1363 397 1844 397 
Q 2081 397 2348 469 
Q 2616 541 2906 684 
L 2797 116 
Q 2547 13 2283 -39 
Q 2019 -91 1741 -91 
Q 1044 -91 669 257 
Q 294 606 294 1253 
Q 294 1797 489 2255 
Q 684 2713 1069 3078 
Q 1331 3328 1684 3456 
Q 2038 3584 2456 3584 
Q 2700 3584 2940 3529 
Q 3181 3475 3431 3366 
z
" transform="scale(0.015625)"/>
       <path id="DejaVuSans-Oblique-6b" d="M 1172 4863 
L 1747 4863 
L 1197 2028 
L 3169 3500 
L 3916 3500 
L 1716 1825 
L 3322 0 
L 2625 0 
L 1131 1709 
L 800 0 
L 225 0 
L 1172 4863 
z
" transform="scale(0.015625)"/>
      </defs>
      <use xlink:href="#MicrosoftYaHei-6df7" transform="translate(0 0.765625)"/>
      <use xlink:href="#MicrosoftYaHei-51dd" transform="translate(100 0.765625)"/>
      <use xlink:href="#MicrosoftYaHei-571f" transform="translate(200 0.765625)"/>
      <use xlink:href="#MicrosoftYaHei-6297" transform="translate(300 0.765625)"/>
      <use xlink:href="#MicrosoftYaHei-538b" transform="translate(400 0.765625)"/>
      <use xlink:href="#MicrosoftYaHei-5f3a" transform="translate(500 0.765625)"/>
      <use xlink:href="#MicrosoftYaHei-5ea6" transform="translate(600 0.765625)"/>
      <use xlink:href="#DejaVuSans-Oblique-66" transform="translate(700 0.765625)"/>
      <use xlink:href="#DejaVuSans-Oblique-63" transform="translate(735.205078 -15.640625) scale(0.7)"/>
      <use xlink:href="#DejaVuSans-Oblique-6b" transform="translate(773.691406 -15.640625) scale(0.7)"/>
     </g>
    </g>
   </g>
   <g id="matplotlib.axis_2">
    <g id="ytick_1">
     <g id="line2d_10">
      <defs>
       <path id="me003664e77" d="M 0 0 
L -3.5 0 
" style="stroke: #000000; stroke-width: 0.8"/>
      </defs>
      <g>
       <use xlink:href="#me003664e77" x="73.728" y="446.719694" style="stroke: #000000; stroke-width: 0.8"/>
      </g>
     </g>
     <g id="text_11">
      <!-- 40 -->
      <g transform="translate(54.999875 450.716569) scale(0.1 -0.1)">
       <defs>
        <path id="MicrosoftYaHei-34" d="M 2906 4841 
L 2906 1644 
L 3631 1644 
L 3631 1138 
L 2906 1138 
L 2906 0 
L 2313 0 
L 2313 1138 
L 53 1138 
L 53 1616 
Q 656 2294 1265 3178 
Q 1875 4063 2272 4841 
L 2906 4841 
z
M 741 1644 
L 2313 1644 
L 2313 3950 
Q 1988 3366 1616 2817 
Q 1244 2269 741 1644 
z
" transform="scale(0.015625)"/>
       </defs>
       <use xlink:href="#MicrosoftYaHei-34"/>
       <use xlink:href="#MicrosoftYaHei-30" x="58.642578"/>
      </g>
     </g>
    </g>
    <g id="ytick_2">
     <g id="line2d_11">
      <g>
       <use xlink:href="#me003664e77" x="73.728" y="346.863816" style="stroke: #000000; stroke-width: 0.8"/>
      </g>
     </g>
     <g id="text_12">
      <!-- 60 -->
      <g transform="translate(54.999875 350.860691) scale(0.1 -0.1)">
       <defs>
        <path id="MicrosoftYaHei-36" d="M 3181 4219 
Q 2803 4413 2391 4413 
Q 1763 4413 1381 3866 
Q 1000 3319 994 2372 
L 1009 2372 
Q 1353 3038 2106 3038 
Q 2734 3038 3109 2628 
Q 3484 2219 3484 1541 
Q 3484 831 3051 375 
Q 2619 -81 1947 -81 
Q 1209 -81 789 495 
Q 369 1072 369 2131 
Q 369 3413 920 4167 
Q 1472 4922 2372 4922 
Q 2888 4922 3181 4781 
L 3181 4219 
z
M 1031 1584 
Q 1031 1106 1286 765 
Q 1541 425 1963 425 
Q 2363 425 2613 719 
Q 2863 1013 2863 1475 
Q 2863 1975 2627 2253 
Q 2391 2531 1956 2531 
Q 1544 2531 1287 2250 
Q 1031 1969 1031 1584 
z
" transform="scale(0.015625)"/>
       </defs>
       <use xlink:href="#MicrosoftYaHei-36"/>
       <use xlink:href="#MicrosoftYaHei-30" x="58.642578"/>
      </g>
     </g>
    </g>
    <g id="ytick_3">
     <g id="line2d_12">
      <g>
       <use xlink:href="#me003664e77" x="73.728" y="247.007938" style="stroke: #000000; stroke-width: 0.8"/>
      </g>
     </g>
     <g id="text_13">
      <!-- 80 -->
      <g transform="translate(54.999875 251.004813) scale(0.1 -0.1)">
       <defs>
        <path id="MicrosoftYaHei-38" d="M 306 1350 
Q 306 1769 556 2122 
Q 806 2475 1200 2625 
Q 884 2803 700 3081 
Q 516 3359 516 3684 
Q 516 4028 692 4312 
Q 869 4597 1183 4759 
Q 1497 4922 1875 4922 
Q 2256 4922 2572 4761 
Q 2888 4600 3063 4315 
Q 3238 4031 3238 3684 
Q 3238 3366 3058 3086 
Q 2878 2806 2559 2625 
Q 2953 2472 3200 2119 
Q 3447 1766 3447 1350 
Q 3447 938 3250 611 
Q 3053 284 2690 103 
Q 2328 -78 1875 -78 
Q 1425 -78 1065 103 
Q 706 284 506 612 
Q 306 941 306 1350 
z
M 906 1378 
Q 906 947 1172 687 
Q 1438 428 1878 428 
Q 2309 428 2582 692 
Q 2856 956 2856 1378 
Q 2856 1778 2579 2051 
Q 2303 2325 1878 2325 
Q 1456 2325 1181 2058 
Q 906 1791 906 1378 
z
M 1081 3634 
Q 1081 3309 1312 3076 
Q 1544 2844 1878 2844 
Q 2206 2844 2445 3078 
Q 2684 3313 2684 3634 
Q 2684 3963 2454 4191 
Q 2225 4419 1878 4419 
Q 1534 4419 1307 4195 
Q 1081 3972 1081 3634 
z
" transform="scale(0.015625)"/>
       </defs>
       <use xlink:href="#MicrosoftYaHei-38"/>
       <use xlink:href="#MicrosoftYaHei-30" x="58.642578"/>
      </g>
     </g>
    </g>
    <g id="ytick_4">
     <g id="line2d_13">
      <g>
       <use xlink:href="#me003664e77" x="73.728" y="147.152061" style="stroke: #000000; stroke-width: 0.8"/>
      </g>
     </g>
     <g id="text_14">
      <!-- 100 -->
      <g transform="translate(49.135813 151.148936) scale(0.1 -0.1)">
       <use xlink:href="#MicrosoftYaHei-31"/>
       <use xlink:href="#MicrosoftYaHei-30" x="58.642578"/>
       <use xlink:href="#MicrosoftYaHei-30" x="117.285156"/>
      </g>
     </g>
    </g>
    <g id="ytick_5">
     <g id="line2d_14">
      <g>
       <use xlink:href="#me003664e77" x="73.728" y="47.296183" style="stroke: #000000; stroke-width: 0.8"/>
      </g>
     </g>
     <g id="text_15">
      <!-- 120 -->
      <g transform="translate(49.135813 51.293058) scale(0.1 -0.1)">
       <use xlink:href="#MicrosoftYaHei-31"/>
       <use xlink:href="#MicrosoftYaHei-32" x="58.642578"/>
       <use xlink:href="#MicrosoftYaHei-30" x="117.285156"/>
      </g>
     </g>
    </g>
    <g id="text_16">
     <!-- 断裂能$G_f$(N/m) -->
     <g transform="translate(42.649875 302.76624) rotate(-90) scale(0.1 -0.1)">
      <defs>
       <path id="MicrosoftYaHei-65ad" d="M 3713 4822 
Q 5025 4872 6138 5091 
L 6306 4628 
Q 5206 4497 4169 4409 
L 4169 3003 
L 6319 3003 
L 6319 2572 
L 5531 2572 
L 5531 -791 
L 5075 -791 
L 5075 2572 
L 4169 2572 
L 4169 1978 
Q 4169 153 3306 -897 
Q 3156 -716 2950 -509 
Q 3713 372 3713 1997 
L 3713 4822 
z
M 831 1034 
Q 1472 1750 1841 2678 
L 950 2678 
L 950 3097 
L 2019 3097 
L 2019 5216 
L 2456 5216 
L 2456 3097 
L 3406 3097 
L 3406 2678 
L 2456 2678 
L 2456 2141 
L 2644 2297 
Q 3019 1916 3450 1416 
L 3106 1116 
Q 2806 1506 2456 1903 
L 2456 203 
L 2019 203 
L 2019 2191 
Q 1675 1319 1025 547 
Q 944 803 831 1034 
z
M 375 5072 
L 819 5072 
L 819 66 
L 2994 66 
L 2994 -353 
L 375 -353 
L 375 5072 
z
M 2550 3647 
Q 2894 4209 3144 4816 
L 3569 4616 
Q 3300 4097 2925 3441 
L 2550 3647 
z
M 931 4634 
L 1294 4803 
Q 1569 4278 1850 3666 
L 1444 3466 
Q 1144 4197 931 4634 
z
" transform="scale(0.015625)"/>
       <path id="MicrosoftYaHei-88c2" d="M 3563 178 
Q 3556 -72 3563 -303 
Q 2800 -516 2350 -678 
Q 2100 -772 1881 -891 
L 1625 -503 
Q 1794 -403 1775 -9 
L 1775 384 
Q 1150 47 350 -253 
Q 238 -41 81 172 
Q 1613 647 2513 1366 
L 306 1366 
L 306 1791 
L 3206 1791 
Q 3031 2078 2800 2378 
L 3194 2622 
Q 3456 2297 3644 2003 
L 3275 1791 
L 6125 1791 
L 6125 1366 
L 3450 1366 
Q 3713 903 4150 572 
Q 4913 909 5519 1247 
L 5769 822 
Q 5181 553 4569 303 
Q 5269 -59 6300 -191 
Q 6113 -434 5956 -659 
Q 3850 -272 3031 1266 
Q 2700 953 2238 653 
L 2238 -234 
Q 2900 -41 3563 178 
z
M 1306 3234 
L 1569 3528 
Q 1975 3259 2306 3016 
Q 2756 3328 3063 3741 
L 1519 3741 
Q 1063 3266 494 2916 
Q 381 3122 250 3303 
Q 1131 3816 1644 4578 
L 538 4578 
L 538 4991 
L 3750 4991 
L 3750 4578 
L 2175 4578 
Q 2038 4353 1875 4153 
L 3594 4153 
L 3594 3766 
Q 2838 2466 819 1872 
Q 725 2072 588 2284 
Q 1344 2472 1913 2778 
Q 1613 3016 1306 3234 
z
M 5856 5247 
L 5856 2878 
Q 5856 2159 5169 2153 
Q 4881 2147 4425 2153 
Q 4419 2178 4338 2628 
Q 4756 2591 5031 2591 
Q 5394 2591 5394 2978 
L 5394 5247 
L 5856 5247 
z
M 4150 4884 
L 4600 4884 
L 4600 3016 
L 4150 3016 
L 4150 4884 
z
" transform="scale(0.015625)"/>
       <path id="MicrosoftYaHei-80fd" d="M 950 -759 
L 463 -759 
L 463 2928 
L 3000 2928 
L 3000 -28 
Q 3000 -703 2375 -703 
Q 2100 -709 1669 -709 
Q 1638 -516 1575 -234 
Q 1969 -266 2206 -266 
Q 2513 -266 2513 53 
L 2513 572 
L 950 572 
L 950 -759 
z
M 3606 2253 
L 4094 2253 
L 4094 1222 
Q 4981 1553 5950 2091 
L 6231 1659 
Q 5209 1122 4094 706 
L 4094 166 
Q 4094 -228 4400 -228 
L 5319 -228 
Q 5638 -228 5688 78 
Q 5731 353 5763 897 
Q 6000 803 6250 722 
Q 6200 172 6144 -109 
Q 6063 -659 5363 -659 
L 4319 -659 
Q 3606 -659 3606 72 
L 3606 2253 
z
M 3619 5303 
L 4106 5303 
L 4106 4231 
Q 4966 4572 5813 5053 
L 6094 4622 
Q 5119 4128 4106 3719 
L 4106 3359 
Q 4106 2941 4438 2941 
L 5231 2941 
Q 5625 2941 5675 3266 
Q 5719 3534 5750 4047 
Q 5988 3953 6238 3866 
Q 6188 3366 6131 3053 
Q 6038 2509 5288 2509 
L 4375 2509 
Q 3619 2509 3619 3259 
L 3619 5303 
z
M 2463 4772 
Q 3031 4034 3450 3353 
Q 3213 3191 3019 3066 
Q 2897 3281 2759 3506 
Q 1231 3394 313 3303 
L 113 3828 
Q 388 3978 719 4391 
Q 1063 4841 1394 5397 
L 1888 5216 
Q 1369 4466 794 3797 
Q 1731 3856 2497 3919 
Q 2300 4216 2075 4528 
L 2463 4772 
z
M 950 947 
L 2513 947 
L 2513 1553 
L 950 1553 
L 950 947 
z
M 2513 2528 
L 950 2528 
L 950 1928 
L 2513 1928 
L 2513 2528 
z
" transform="scale(0.015625)"/>
       <path id="DejaVuSans-Oblique-47" d="M 3494 697 
L 3738 1919 
L 2700 1919 
L 2797 2438 
L 4453 2438 
L 4050 384 
Q 3634 156 3143 32 
Q 2653 -91 2156 -91 
Q 1278 -91 783 396 
Q 288 884 288 1753 
Q 288 2475 589 3126 
Q 891 3778 1422 4213 
Q 1756 4484 2153 4617 
Q 2550 4750 3034 4750 
Q 3472 4750 3873 4639 
Q 4275 4528 4641 4306 
L 4513 3634 
Q 4231 3928 3853 4083 
Q 3475 4238 3047 4238 
Q 2550 4238 2172 4048 
Q 1794 3859 1497 3463 
Q 1244 3125 1098 2667 
Q 953 2209 953 1734 
Q 953 1081 1287 751 
Q 1622 422 2284 422 
Q 2616 422 2925 492 
Q 3234 563 3494 697 
z
" transform="scale(0.015625)"/>
       <path id="MicrosoftYaHei-28" d="M 1531 -1100 
Q 478 100 478 1847 
Q 478 3594 1531 4841 
L 2072 4841 
Q 1016 3544 1016 1853 
Q 1016 166 2066 -1100 
L 1531 -1100 
z
" transform="scale(0.015625)"/>
       <path id="MicrosoftYaHei-4e" d="M 4578 0 
L 3838 0 
L 1403 3766 
Q 1300 3925 1238 4081 
L 1219 4081 
Q 1244 3919 1244 3403 
L 1244 0 
L 625 0 
L 625 4841 
L 1409 4841 
L 3778 1141 
Q 3947 878 3978 806 
L 3991 806 
Q 3959 1013 3959 1513 
L 3959 4841 
L 4578 4841 
L 4578 0 
z
" transform="scale(0.015625)"/>
       <path id="MicrosoftYaHei-2f" d="M 2791 4841 
L 469 -803 
L -103 -803 
L 2219 4841 
L 2791 4841 
z
" transform="scale(0.015625)"/>
       <path id="MicrosoftYaHei-6d" d="M 5522 0 
L 4909 0 
L 4909 1984 
Q 4909 2547 4734 2789 
Q 4559 3031 4159 3031 
Q 3822 3031 3581 2715 
Q 3341 2400 3341 1969 
L 3341 0 
L 2728 0 
L 2728 2047 
Q 2728 3031 1969 3031 
Q 1619 3031 1389 2731 
Q 1159 2431 1159 1966 
L 1159 0 
L 547 0 
L 547 3456 
L 1159 3456 
L 1159 2909 
L 1172 2909 
Q 1541 3538 2250 3538 
Q 2597 3538 2862 3347 
Q 3128 3156 3231 2831 
Q 3616 3538 4381 3538 
Q 5522 3538 5522 2131 
L 5522 0 
z
" transform="scale(0.015625)"/>
       <path id="MicrosoftYaHei-29" d="M 78 -1100 
Q 1131 163 1131 1853 
Q 1131 3547 72 4841 
L 616 4841 
Q 1672 3603 1672 1847 
Q 1672 91 616 -1100 
L 78 -1100 
z
" transform="scale(0.015625)"/>
      </defs>
      <use xlink:href="#MicrosoftYaHei-65ad" transform="translate(0 0.671875)"/>
      <use xlink:href="#MicrosoftYaHei-88c2" transform="translate(100 0.671875)"/>
      <use xlink:href="#MicrosoftYaHei-80fd" transform="translate(200 0.671875)"/>
      <use xlink:href="#DejaVuSans-Oblique-47" transform="translate(300 0.671875)"/>
      <use xlink:href="#DejaVuSans-Oblique-66" transform="translate(377.490234 -15.734375) scale(0.7)"/>
      <use xlink:href="#MicrosoftYaHei-28" transform="translate(404.868164 0.671875)"/>
      <use xlink:href="#MicrosoftYaHei-4e" transform="translate(438.266602 0.671875)"/>
      <use xlink:href="#MicrosoftYaHei-2f" transform="translate(519.56543 0.671875)"/>
      <use xlink:href="#MicrosoftYaHei-6d" transform="translate(562.290039 0.671875)"/>
      <use xlink:href="#MicrosoftYaHei-29" transform="translate(655.991211 0.671875)"/>
     </g>
    </g>
   </g>
   <g id="line2d_15">
    <path d="M 163.542109 446.719694 
L 178.205637 438.568194 
L 192.869165 430.416694 
L 207.532693 422.265193 
L 222.196221 414.113693 
L 236.859749 405.962193 
L 251.523277 397.810693 
L 266.186805 389.659192 
L 280.850333 381.507692 
L 295.513861 373.356192 
L 310.177389 365.204692 
L 324.840917 357.053191 
L 339.504445 348.901691 
L 354.167973 340.750191 
L 368.831501 332.598691 
L 383.495029 324.447191 
L 398.158557 316.29569 
L 412.822085 308.14419 
L 427.485613 299.99269 
L 442.149141 291.84119 
L 456.812669 283.689689 
L 471.476197 275.538189 
L 486.139725 267.386689 
L 500.803253 259.235189 
L 515.466781 251.083689 
L 530.130309 242.932188 
L 544.793837 234.780688 
L 559.457365 226.629188 
L 574.120894 218.477688 
L 588.784422 210.326187 
L 603.44795 202.174687 
L 618.111478 194.023187 
L 632.775006 185.871687 
L 647.438534 177.720186 
L 662.102062 169.568686 
L 676.76559 161.417186 
L 691.429118 153.265686 
L 706.092646 145.114186 
L 720.756174 136.962685 
L 735.419702 128.811185 
L 750.08323 120.659685 
L 764.746758 112.508185 
L 779.410286 104.356684 
L 794.073814 96.205184 
L 808.737342 88.053684 
L 823.40087 79.902184 
L 838.064398 71.750684 
L 852.727926 63.599183 
L 867.391454 55.447683 
L 882.054982 47.296183 
" clip-path="url(#p2392c6b855)" style="fill: none; stroke: #e41a1c; stroke-width: 1.5; stroke-linecap: square"/>
   </g>
   <g id="line2d_16">
    <path d="M 118.635055 489.236297 
L 136.964465 486.254183 
L 155.293875 483.295677 
L 173.623285 480.35999 
L 191.952695 477.446379 
L 210.282105 474.554141 
L 228.611515 471.682613 
L 246.940925 468.831168 
L 265.270335 465.999211 
L 283.599745 463.186178 
L 301.929155 460.391532 
L 320.258565 457.614763 
L 338.587975 454.855387 
L 356.917385 452.112941 
L 375.246795 449.386984 
L 393.576205 446.677094 
L 411.905615 443.98287 
L 430.235025 441.303926 
L 448.564435 438.639894 
L 466.893845 435.990419 
L 485.223255 433.355165 
L 503.552665 430.733806 
L 521.882075 428.12603 
L 540.211485 425.531536 
L 558.540895 422.950038 
L 576.870305 420.381257 
L 595.199715 417.824926 
L 613.529125 415.280788 
L 631.858535 412.748595 
L 650.187945 410.228107 
L 668.517355 407.719094 
L 686.846765 405.221333 
L 705.176175 402.734608 
L 723.505585 400.258711 
L 741.834995 397.79344 
L 760.164405 395.338602 
L 778.493815 392.894006 
L 796.823225 390.459471 
L 815.152635 388.034819 
L 833.482045 385.619879 
L 851.811455 383.214484 
L 870.140865 380.818474 
L 888.470275 378.431691 
L 906.799685 376.053984 
L 925.129095 373.685204 
L 943.458505 371.325209 
L 961.787915 368.973859 
L 980.117325 366.631018 
L 998.446735 364.296555 
L 1016.776145 361.970341 
" clip-path="url(#p2392c6b855)" style="fill: none; stroke: #377eb8; stroke-width: 1.5; stroke-linecap: square"/>
   </g>
   <g id="line2d_17">
    <path d="M 118.635055 342.520822 
L 136.964465 336.755401 
L 155.293875 331.035623 
L 173.623285 325.359962 
L 191.952695 319.726979 
L 210.282105 314.13532 
L 228.611515 308.5837 
L 246.940925 303.070906 
L 265.270335 297.595789 
L 283.599745 292.157257 
L 301.929155 286.754275 
L 320.258565 281.385856 
L 338.587975 276.051062 
L 356.917385 270.749 
L 375.246795 265.478816 
L 393.576205 260.239696 
L 411.905615 255.030863 
L 430.235025 249.851571 
L 448.564435 244.701108 
L 466.893845 239.578791 
L 485.223255 234.483967 
L 503.552665 229.416005 
L 521.882075 224.374304 
L 540.211485 219.358284 
L 558.540895 214.367387 
L 576.870305 209.401077 
L 595.199715 204.458837 
L 613.529125 199.54017 
L 631.858535 194.644597 
L 650.187945 189.771654 
L 668.517355 184.920896 
L 686.846765 180.091891 
L 705.176175 175.284223 
L 723.505585 170.497488 
L 741.834995 165.731299 
L 760.164405 160.985277 
L 778.493815 156.259059 
L 796.823225 151.55229 
L 815.152635 146.86463 
L 833.482045 142.195746 
L 851.811455 137.545317 
L 870.140865 132.91303 
L 888.470275 128.298583 
L 906.799685 123.701683 
L 925.129095 119.122042 
L 943.458505 114.559385 
L 961.787915 110.013441 
L 980.117325 105.483949 
L 998.446735 100.970653 
L 1016.776145 96.473306 
" clip-path="url(#p2392c6b855)" style="fill: none; stroke: #4daf4a; stroke-width: 1.5; stroke-linecap: square"/>
   </g>
   <g id="patch_3">
    <path d="M 73.728 511.333303 
L 73.728 25.199177 
" style="fill: none; stroke: #000000; stroke-width: 0.8; stroke-linejoin: miter; stroke-linecap: square"/>
   </g>
   <g id="patch_4">
    <path d="M 1061.6832 511.333303 
L 1061.6832 25.199177 
" style="fill: none; stroke: #000000; stroke-width: 0.8; stroke-linejoin: miter; stroke-linecap: square"/>
   </g>
   <g id="patch_5">
    <path d="M 73.728 511.333303 
L 1061.6832 511.333303 
" style="fill: none; stroke: #000000; stroke-width: 0.8; stroke-linejoin: miter; stroke-linecap: square"/>
   </g>
   <g id="patch_6">
    <path d="M 73.728 25.199177 
L 1061.6832 25.199177 
" style="fill: none; stroke: #000000; stroke-width: 0.8; stroke-linejoin: miter; stroke-linecap: square"/>
   </g>
   <g id="legend_1">
    <g id="patch_7">
     <path d="M 80.728 79.63824 
L 429.828 79.63824 
Q 431.828 79.63824 431.828 77.63824 
L 431.828 32.199177 
Q 431.828 30.199177 429.828 30.199177 
L 80.728 30.199177 
Q 78.728 30.199177 78.728 32.199177 
L 78.728 77.63824 
Q 78.728 79.63824 80.728 79.63824 
z
" style="fill: #ffffff; opacity: 0.8; stroke: #cccccc; stroke-linejoin: miter"/>
    </g>
    <g id="line2d_18">
     <path d="M 82.728 38.692927 
L 92.728 38.692927 
L 102.728 38.692927 
" style="fill: none; stroke: #e41a1c; stroke-width: 1.5; stroke-linecap: square"/>
    </g>
    <g id="text_17">
     <!-- ABAQUS用户手册 -->
     <g transform="translate(110.728 42.192927) scale(0.1 -0.1)">
      <defs>
       <path id="MicrosoftYaHei-41" d="M 4428 0 
L 3738 0 
L 3244 1325 
L 1228 1325 
L 763 0 
L 72 0 
L 1916 4841 
L 2584 4841 
L 4428 0 
z
M 3050 1872 
L 2319 3884 
Q 2284 3981 2244 4222 
L 2228 4222 
Q 2194 4003 2150 3884 
L 1425 1872 
L 3050 1872 
z
" transform="scale(0.015625)"/>
       <path id="MicrosoftYaHei-42" d="M 625 0 
L 625 4841 
L 2047 4841 
Q 2684 4841 3065 4536 
Q 3447 4231 3447 3728 
Q 3447 3328 3220 3022 
Q 2994 2716 2597 2588 
L 2597 2575 
Q 3091 2519 3386 2201 
Q 3681 1884 3681 1397 
Q 3681 772 3232 386 
Q 2784 0 2084 0 
L 625 0 
z
M 1250 4294 
L 1250 2778 
L 1819 2778 
Q 2272 2778 2530 2998 
Q 2788 3219 2788 3609 
Q 2788 4294 1875 4294 
L 1250 4294 
z
M 1250 2234 
L 1250 547 
L 2000 547 
Q 2491 547 2758 773 
Q 3025 1000 3025 1403 
Q 3025 2234 1897 2234 
L 1250 2234 
z
" transform="scale(0.015625)"/>
       <path id="MicrosoftYaHei-51" d="M 313 2363 
Q 313 3534 947 4228 
Q 1581 4922 2666 4922 
Q 3675 4922 4290 4244 
Q 4906 3566 4906 2478 
Q 4906 1300 4275 609 
Q 4125 447 3953 322 
L 5313 -653 
L 4284 -653 
L 3366 28 
Q 3009 -81 2588 -81 
Q 1556 -81 934 597 
Q 313 1275 313 2363 
z
M 969 2413 
Q 969 1534 1417 1004 
Q 1866 475 2588 475 
Q 3363 475 3805 983 
Q 4247 1491 4247 2403 
Q 4247 3341 3814 3850 
Q 3381 4359 2628 4359 
Q 1888 4359 1428 3821 
Q 969 3284 969 2413 
z
" transform="scale(0.015625)"/>
       <path id="MicrosoftYaHei-55" d="M 4213 1972 
Q 4213 -81 2350 -81 
Q 566 -81 566 1900 
L 566 4841 
L 1191 4841 
L 1191 1928 
Q 1191 475 2409 475 
Q 3588 475 3588 1881 
L 3588 4841 
L 4213 4841 
L 4213 1972 
z
" transform="scale(0.015625)"/>
       <path id="MicrosoftYaHei-53" d="M 400 909 
Q 622 716 994 591 
Q 1366 466 1700 466 
Q 2719 466 2719 1191 
Q 2719 1394 2609 1556 
Q 2500 1719 2309 1844 
Q 2119 1969 1594 2228 
Q 866 2591 634 2902 
Q 403 3213 403 3613 
Q 403 4216 887 4569 
Q 1372 4922 2109 4922 
Q 2831 4922 3169 4747 
L 3169 4066 
Q 2731 4369 2063 4369 
Q 1619 4369 1339 4183 
Q 1059 3997 1059 3666 
Q 1059 3372 1253 3187 
Q 1447 3003 2094 2684 
Q 2806 2344 3090 2003 
Q 3375 1663 3375 1238 
Q 3375 600 2912 259 
Q 2450 -81 1628 -81 
Q 1341 -81 958 -1 
Q 575 78 400 197 
L 400 909 
z
" transform="scale(0.015625)"/>
       <path id="MicrosoftYaHei-7528" d="M 3088 -734 
L 3088 1253 
L 1269 1253 
Q 1163 -47 513 -903 
Q 350 -697 144 -472 
Q 550 103 694 803 
Q 831 1478 831 2716 
L 831 4947 
L 5925 4947 
L 5925 -22 
Q 5925 -766 5219 -766 
Q 4788 -766 4250 -747 
Q 4219 -541 4156 -228 
Q 4700 -266 5038 -266 
Q 5425 -266 5425 103 
L 5425 1253 
L 3588 1253 
L 3588 -734 
L 3088 -734 
z
M 3588 1703 
L 5425 1703 
L 5425 2872 
L 3588 2872 
L 3588 1703 
z
M 5425 4484 
L 3588 4484 
L 3588 3322 
L 5425 3322 
L 5425 4484 
z
M 1303 1703 
L 3088 1703 
L 3088 2872 
L 1331 2872 
Q 1350 2266 1303 1703 
z
M 1331 4484 
L 1331 3322 
L 3088 3322 
L 3088 4484 
L 1331 4484 
z
" transform="scale(0.015625)"/>
       <path id="MicrosoftYaHei-6237" d="M 2725 5116 
L 3175 5384 
Q 3475 5028 3769 4609 
L 3463 4416 
L 5794 4416 
L 5794 1647 
L 5294 1647 
L 5294 1972 
L 1347 1972 
Q 1263 172 419 -903 
Q 250 -697 56 -491 
Q 856 484 856 2434 
L 856 4416 
L 3241 4416 
Q 3013 4766 2725 5116 
z
M 1356 3966 
L 1356 2422 
L 5294 2422 
L 5294 3966 
L 1356 3966 
z
" transform="scale(0.015625)"/>
       <path id="MicrosoftYaHei-624b" d="M 138 1691 
L 2956 1691 
L 2956 2809 
L 575 2809 
L 575 3303 
L 2956 3303 
L 2956 4431 
Q 1772 4384 550 4353 
Q 513 4616 456 4866 
Q 3650 4916 5638 5091 
L 5719 4578 
Q 4619 4509 3481 4456 
L 3481 3303 
L 5750 3303 
L 5750 2809 
L 3481 2809 
L 3481 1691 
L 6288 1691 
L 6288 1197 
L 3481 1197 
L 3481 47 
Q 3481 -713 2706 -722 
Q 2313 -722 1613 -716 
Q 1581 -428 1513 -147 
Q 2213 -197 2569 -197 
Q 2956 -197 2956 222 
L 2956 1197 
L 138 1197 
L 138 1691 
z
" transform="scale(0.015625)"/>
       <path id="MicrosoftYaHei-518c" d="M 3556 4997 
L 5619 4997 
L 5619 2759 
L 6288 2759 
L 6288 2297 
L 5619 2297 
L 5619 -97 
Q 5619 -747 5019 -747 
Q 4588 -747 4219 -728 
Q 4200 -547 4138 -266 
Q 4594 -309 4869 -309 
Q 5144 -309 5144 -22 
L 5144 2297 
L 4031 2297 
L 4031 1928 
Q 4031 259 3325 -853 
Q 3175 -691 2944 -503 
Q 3556 459 3556 1903 
L 3556 2297 
L 2763 2297 
L 2763 91 
Q 2763 -534 2144 -534 
Q 1806 -534 1494 -516 
Q 1475 -334 1413 -47 
Q 1756 -91 2025 -91 
Q 2288 -91 2288 191 
L 2288 2297 
L 1219 2297 
L 1219 1847 
Q 1219 172 506 -853 
Q 356 -672 131 -503 
Q 738 428 738 1803 
L 738 2297 
L 125 2297 
L 125 2759 
L 738 2759 
L 738 4997 
L 2763 4997 
L 2763 2759 
L 3556 2759 
L 3556 4997 
z
M 5144 4559 
L 4031 4559 
L 4031 2759 
L 5144 2759 
L 5144 4559 
z
M 2288 4559 
L 1219 4559 
L 1219 2759 
L 2288 2759 
L 2288 4559 
z
" transform="scale(0.015625)"/>
      </defs>
      <use xlink:href="#MicrosoftYaHei-41"/>
      <use xlink:href="#MicrosoftYaHei-42" x="70.361328"/>
      <use xlink:href="#MicrosoftYaHei-41" x="133.105469"/>
      <use xlink:href="#MicrosoftYaHei-51" x="203.466797"/>
      <use xlink:href="#MicrosoftYaHei-55" x="284.960938"/>
      <use xlink:href="#MicrosoftYaHei-53" x="359.619141"/>
      <use xlink:href="#MicrosoftYaHei-7528" x="417.333984"/>
      <use xlink:href="#MicrosoftYaHei-6237" x="517.333984"/>
      <use xlink:href="#MicrosoftYaHei-624b" x="617.333984"/>
      <use xlink:href="#MicrosoftYaHei-518c" x="717.333984"/>
     </g>
    </g>
    <g id="line2d_19">
     <path d="M 82.728 54.172615 
L 92.728 54.172615 
L 102.728 54.172615 
" style="fill: none; stroke: #377eb8; stroke-width: 1.5; stroke-linecap: square"/>
    </g>
    <g id="text_18">
     <!-- CEB-FIP MODEL CODE 1990($G_{f0}=30N/m$, 粗骨料最大粒径为16mm) -->
     <g transform="translate(110.728 57.672615) scale(0.1 -0.1)">
      <defs>
       <path id="MicrosoftYaHei-43" d="M 3938 200 
Q 3403 -81 2597 -81 
Q 1556 -81 934 580 
Q 313 1241 313 2328 
Q 313 3497 1013 4209 
Q 1713 4922 2791 4922 
Q 3484 4922 3938 4725 
L 3938 4072 
Q 3419 4359 2797 4359 
Q 1988 4359 1478 3820 
Q 969 3281 969 2366 
Q 969 1497 1444 986 
Q 1919 475 2688 475 
Q 3406 475 3938 800 
L 3938 200 
z
" transform="scale(0.015625)"/>
       <path id="MicrosoftYaHei-45" d="M 3228 0 
L 625 0 
L 625 4841 
L 3119 4841 
L 3119 4284 
L 1250 4284 
L 1250 2734 
L 2981 2734 
L 2981 2181 
L 1250 2181 
L 1250 553 
L 3228 553 
L 3228 0 
z
" transform="scale(0.015625)"/>
       <path id="MicrosoftYaHei-2d" d="M 2328 1681 
L 488 1681 
L 488 2153 
L 2328 2153 
L 2328 1681 
z
" transform="scale(0.015625)"/>
       <path id="MicrosoftYaHei-46" d="M 3119 4284 
L 1250 4284 
L 1250 2666 
L 2981 2666 
L 2981 2116 
L 1250 2116 
L 1250 0 
L 625 0 
L 625 4841 
L 3119 4841 
L 3119 4284 
z
" transform="scale(0.015625)"/>
       <path id="MicrosoftYaHei-49" d="M 1250 4841 
L 1250 0 
L 625 0 
L 625 4841 
L 1250 4841 
z
" transform="scale(0.015625)"/>
       <path id="MicrosoftYaHei-50" d="M 1250 1809 
L 1250 0 
L 625 0 
L 625 4841 
L 2000 4841 
Q 2784 4841 3217 4462 
Q 3650 4084 3650 3381 
Q 3650 2669 3144 2226 
Q 2638 1784 1878 1809 
L 1250 1809 
z
M 1250 4291 
L 1250 2359 
L 1828 2359 
Q 2400 2359 2697 2617 
Q 2994 2875 2994 3356 
Q 2994 4291 1888 4291 
L 1250 4291 
z
" transform="scale(0.015625)"/>
       <path id="MicrosoftYaHei-20" transform="scale(0.015625)"/>
       <path id="MicrosoftYaHei-4d" d="M 5003 0 
L 5003 3206 
Q 5003 3603 5050 4159 
L 5034 4159 
Q 4953 3809 4891 3672 
L 3294 0 
L 2947 0 
L 1353 3644 
Q 1297 3769 1209 4159 
L 1191 4159 
Q 1222 3822 1222 3178 
L 1222 0 
L 625 0 
L 625 4841 
L 1472 4841 
L 2900 1522 
Q 3063 1141 3116 928 
L 3138 928 
Q 3300 1375 3366 1534 
L 4819 4841 
L 5625 4841 
L 5625 0 
L 5003 0 
z
" transform="scale(0.015625)"/>
       <path id="MicrosoftYaHei-4f" d="M 313 2363 
Q 313 3534 947 4228 
Q 1581 4922 2666 4922 
Q 3675 4922 4290 4244 
Q 4906 3566 4906 2478 
Q 4906 1300 4275 609 
Q 3644 -81 2588 -81 
Q 1556 -81 934 597 
Q 313 1275 313 2363 
z
M 969 2413 
Q 969 1534 1417 1004 
Q 1866 475 2588 475 
Q 3363 475 3805 983 
Q 4247 1491 4247 2403 
Q 4247 3341 3814 3850 
Q 3381 4359 2628 4359 
Q 1888 4359 1428 3821 
Q 969 3284 969 2413 
z
" transform="scale(0.015625)"/>
       <path id="MicrosoftYaHei-44" d="M 625 0 
L 625 4841 
L 2006 4841 
Q 3106 4841 3836 4200 
Q 4566 3559 4566 2481 
Q 4566 1356 3836 678 
Q 3106 0 1956 0 
L 625 0 
z
M 1250 4284 
L 1250 553 
L 1953 553 
Q 2875 553 3392 1056 
Q 3909 1559 3909 2466 
Q 3909 3372 3378 3828 
Q 2847 4284 1981 4284 
L 1250 4284 
z
" transform="scale(0.015625)"/>
       <path id="MicrosoftYaHei-4c" d="M 3178 0 
L 625 0 
L 625 4841 
L 1250 4841 
L 1250 553 
L 3178 553 
L 3178 0 
z
" transform="scale(0.015625)"/>
       <path id="MicrosoftYaHei-39" d="M 578 656 
Q 978 425 1441 425 
Q 2091 425 2448 937 
Q 2806 1450 2806 2394 
Q 2800 2388 2794 2394 
Q 2475 1788 1722 1788 
Q 1113 1788 713 2206 
Q 313 2625 313 3294 
Q 313 4006 750 4464 
Q 1188 4922 1884 4922 
Q 2606 4922 3012 4355 
Q 3419 3788 3419 2703 
Q 3419 1363 2894 641 
Q 2369 -81 1441 -81 
Q 931 -81 578 84 
L 578 656 
z
M 931 3372 
Q 931 2884 1181 2598 
Q 1431 2313 1872 2313 
Q 2253 2313 2512 2573 
Q 2772 2834 2772 3206 
Q 2772 3728 2514 4070 
Q 2256 4413 1834 4413 
Q 1444 4413 1187 4116 
Q 931 3819 931 3372 
z
" transform="scale(0.015625)"/>
       <path id="DejaVuSans-30" d="M 2034 4250 
Q 1547 4250 1301 3770 
Q 1056 3291 1056 2328 
Q 1056 1369 1301 889 
Q 1547 409 2034 409 
Q 2525 409 2770 889 
Q 3016 1369 3016 2328 
Q 3016 3291 2770 3770 
Q 2525 4250 2034 4250 
z
M 2034 4750 
Q 2819 4750 3233 4129 
Q 3647 3509 3647 2328 
Q 3647 1150 3233 529 
Q 2819 -91 2034 -91 
Q 1250 -91 836 529 
Q 422 1150 422 2328 
Q 422 3509 836 4129 
Q 1250 4750 2034 4750 
z
" transform="scale(0.015625)"/>
       <path id="DejaVuSans-3d" d="M 678 2906 
L 4684 2906 
L 4684 2381 
L 678 2381 
L 678 2906 
z
M 678 1631 
L 4684 1631 
L 4684 1100 
L 678 1100 
L 678 1631 
z
" transform="scale(0.015625)"/>
       <path id="DejaVuSans-33" d="M 2597 2516 
Q 3050 2419 3304 2112 
Q 3559 1806 3559 1356 
Q 3559 666 3084 287 
Q 2609 -91 1734 -91 
Q 1441 -91 1130 -33 
Q 819 25 488 141 
L 488 750 
Q 750 597 1062 519 
Q 1375 441 1716 441 
Q 2309 441 2620 675 
Q 2931 909 2931 1356 
Q 2931 1769 2642 2001 
Q 2353 2234 1838 2234 
L 1294 2234 
L 1294 2753 
L 1863 2753 
Q 2328 2753 2575 2939 
Q 2822 3125 2822 3475 
Q 2822 3834 2567 4026 
Q 2313 4219 1838 4219 
Q 1578 4219 1281 4162 
Q 984 4106 628 3988 
L 628 4550 
Q 988 4650 1302 4700 
Q 1616 4750 1894 4750 
Q 2613 4750 3031 4423 
Q 3450 4097 3450 3541 
Q 3450 3153 3228 2886 
Q 3006 2619 2597 2516 
z
" transform="scale(0.015625)"/>
       <path id="DejaVuSans-Oblique-4e" d="M 1081 4666 
L 1931 4666 
L 3219 666 
L 4000 4666 
L 4616 4666 
L 3706 0 
L 2853 0 
L 1569 4025 
L 788 0 
L 172 0 
L 1081 4666 
z
" transform="scale(0.015625)"/>
       <path id="DejaVuSans-2f" d="M 1625 4666 
L 2156 4666 
L 531 -594 
L 0 -594 
L 1625 4666 
z
" transform="scale(0.015625)"/>
       <path id="DejaVuSans-Oblique-6d" d="M 5747 2113 
L 5338 0 
L 4763 0 
L 5166 2094 
Q 5191 2228 5203 2325 
Q 5216 2422 5216 2491 
Q 5216 2772 5059 2928 
Q 4903 3084 4622 3084 
Q 4203 3084 3875 2770 
Q 3547 2456 3450 1953 
L 3066 0 
L 2491 0 
L 2900 2094 
Q 2925 2209 2937 2307 
Q 2950 2406 2950 2484 
Q 2950 2769 2794 2926 
Q 2638 3084 2363 3084 
Q 1938 3084 1609 2770 
Q 1281 2456 1184 1953 
L 800 0 
L 225 0 
L 909 3500 
L 1484 3500 
L 1375 2956 
Q 1609 3263 1923 3423 
Q 2238 3584 2597 3584 
Q 2978 3584 3223 3384 
Q 3469 3184 3519 2828 
Q 3781 3197 4126 3390 
Q 4472 3584 4856 3584 
Q 5306 3584 5551 3325 
Q 5797 3066 5797 2591 
Q 5797 2488 5784 2364 
Q 5772 2241 5747 2113 
z
" transform="scale(0.015625)"/>
       <path id="MicrosoftYaHei-2c" d="M 1109 778 
L 575 -888 
L 131 -888 
L 519 778 
L 1109 778 
z
" transform="scale(0.015625)"/>
       <path id="MicrosoftYaHei-7c97" d="M 2325 -109 
L 3100 -109 
L 3100 4916 
L 5788 4916 
L 5788 -109 
L 6319 -109 
L 6319 -553 
L 2325 -553 
L 2325 -109 
z
M 3563 -109 
L 5325 -109 
L 5325 1134 
L 3563 1134 
L 3563 -109 
z
M 3563 1572 
L 5325 1572 
L 5325 2803 
L 3563 2803 
L 3563 1572 
z
M 5325 4472 
L 3563 4472 
L 3563 3241 
L 5325 3241 
L 5325 4472 
z
M 1800 3547 
Q 2169 4203 2413 4809 
L 2838 4628 
Q 2606 4141 2169 3353 
L 1800 3547 
z
M 100 4647 
L 469 4803 
Q 844 4041 1013 3578 
L 594 3378 
Q 225 4378 100 4647 
z
M 75 597 
Q 819 1616 1125 2591 
L 106 2591 
L 106 3016 
L 1225 3016 
L 1225 5309 
L 1669 5309 
L 1669 3016 
L 2806 3016 
L 2806 2591 
L 1669 2591 
L 1669 1797 
L 1894 2016 
Q 2394 1578 2806 1191 
L 2475 878 
Q 1938 1428 1669 1666 
L 1669 -822 
L 1225 -822 
L 1225 1841 
Q 863 859 269 97 
Q 188 353 75 597 
z
" transform="scale(0.015625)"/>
       <path id="MicrosoftYaHei-9aa8" d="M 363 3241 
L 1100 3241 
L 1100 5047 
L 5288 5047 
L 5288 3241 
L 6056 3241 
L 6056 2197 
L 5575 2197 
L 5575 2834 
L 844 2834 
L 844 2197 
L 363 2197 
L 363 3241 
z
M 1675 1472 
L 4731 1472 
L 4731 1953 
L 1675 1953 
L 1675 1472 
z
M 1575 3753 
L 1575 3241 
L 3125 3241 
L 3125 3753 
L 1575 3753 
z
M 3588 3241 
L 4813 3241 
L 4813 4653 
L 1575 4653 
L 1575 4134 
L 3588 4134 
L 3588 3241 
z
M 4731 597 
L 4731 1078 
L 1675 1078 
L 1675 597 
L 4731 597 
z
M 4731 -3 
L 4731 203 
L 1675 203 
L 1675 -803 
L 1194 -803 
L 1194 2347 
L 5213 2347 
L 5213 -84 
Q 5213 -772 4575 -772 
Q 4113 -772 3694 -766 
Q 3663 -566 3600 -278 
Q 4056 -328 4438 -328 
Q 4731 -328 4731 -3 
z
" transform="scale(0.015625)"/>
       <path id="MicrosoftYaHei-6599" d="M 88 541 
Q 756 1397 1113 2472 
L 150 2472 
L 150 2897 
L 1194 2897 
L 1194 5297 
L 1656 5297 
L 1656 2897 
L 2675 2897 
L 2675 2472 
L 1656 2472 
L 1656 1853 
L 1938 2078 
Q 2363 1628 2706 1216 
L 2350 928 
Q 2025 1372 1656 1778 
L 1656 -828 
L 1194 -828 
L 1194 1691 
Q 800 641 281 41 
Q 200 297 88 541 
z
M 2850 1353 
L 4850 1597 
L 4850 5297 
L 5331 5297 
L 5331 1653 
L 6281 1772 
L 6319 1322 
L 5331 1197 
L 5331 -828 
L 4850 -828 
L 4850 1141 
L 2913 903 
L 2850 1353 
z
M 2981 2778 
L 3250 3109 
Q 3844 2716 4356 2309 
L 4050 1934 
Q 3569 2347 2981 2778 
z
M 1806 3347 
Q 2094 4053 2288 4653 
L 2731 4516 
Q 2500 3897 2194 3184 
L 1806 3347 
z
M 3119 4366 
L 3406 4697 
Q 3944 4309 4463 3859 
L 4150 3491 
Q 3744 3884 3119 4366 
z
M 144 4516 
L 519 4666 
Q 750 4128 1025 3416 
L 594 3222 
Q 313 4066 144 4516 
z
" transform="scale(0.015625)"/>
       <path id="MicrosoftYaHei-6700" d="M 169 -28 
Q 475 3 781 38 
L 781 2416 
L 94 2416 
L 94 2791 
L 6288 2791 
L 6288 2416 
L 3025 2416 
L 3025 331 
Q 3325 375 3625 422 
Q 3619 309 3631 22 
Q 3338 -19 3025 -63 
L 3025 -859 
L 2600 -859 
L 2600 -125 
Q 1525 -278 281 -472 
L 169 -28 
z
M 1038 5053 
L 5363 5053 
L 5363 3047 
L 4925 3047 
L 4925 3191 
L 1475 3191 
L 1475 3047 
L 1038 3047 
L 1038 5053 
z
M 3338 1609 
L 3338 1972 
L 5819 1972 
L 5819 1609 
Q 5500 844 4981 278 
Q 5516 -113 6306 -316 
Q 6144 -553 6025 -753 
Q 5219 -488 4666 -34 
Q 4128 -516 3413 -822 
Q 3306 -634 3125 -428 
Q 3834 -156 4347 266 
Q 3825 825 3603 1609 
L 3338 1609 
z
M 1475 3553 
L 4925 3553 
L 4925 3953 
L 1475 3953 
L 1475 3553 
z
M 4925 4691 
L 1475 4691 
L 1475 4291 
L 4925 4291 
L 4925 4691 
z
M 5344 1609 
L 4025 1609 
Q 4222 994 4659 556 
Q 5094 1013 5344 1609 
z
M 2600 269 
L 2600 691 
L 1206 691 
L 1206 88 
Q 1913 172 2600 269 
z
M 1206 1916 
L 2600 1916 
L 2600 2416 
L 1206 2416 
L 1206 1916 
z
M 1206 1053 
L 2600 1053 
L 2600 1553 
L 1206 1553 
L 1206 1053 
z
" transform="scale(0.015625)"/>
       <path id="MicrosoftYaHei-5927" d="M 88 -341 
Q 2666 806 2869 3103 
L 200 3103 
L 200 3591 
L 2891 3591 
Q 2906 4431 2906 5284 
L 3450 5284 
Q 3450 4444 3434 3591 
L 6206 3591 
L 6206 3103 
L 3425 3103 
Q 3869 606 6338 -191 
Q 6019 -497 5863 -697 
Q 3828 122 3203 2219 
Q 2716 322 475 -822 
Q 350 -653 88 -341 
z
" transform="scale(0.015625)"/>
       <path id="MicrosoftYaHei-7c92" d="M 2438 -47 
L 4456 -47 
Q 4850 1328 5288 3391 
L 5794 3272 
Q 5306 1334 4894 -47 
L 6263 -47 
L 6263 -484 
L 2438 -484 
L 2438 -47 
z
M 2750 4141 
L 6069 4141 
L 6069 3703 
L 2750 3703 
L 2750 4141 
z
M 3013 3284 
L 3469 3372 
Q 3738 2072 4006 609 
L 3538 503 
Q 3281 2034 3013 3284 
z
M 1850 3572 
Q 2244 4322 2425 4809 
L 2844 4616 
Q 2594 4047 2213 3366 
L 1850 3572 
z
M 119 4641 
L 488 4809 
Q 656 4472 1056 3584 
L 638 3372 
Q 244 4372 119 4641 
z
M 3856 5141 
L 4275 5341 
Q 4550 4866 4781 4409 
L 4338 4197 
Q 4075 4759 3856 5141 
z
M 94 603 
Q 838 1622 1144 2584 
L 106 2584 
L 106 3022 
L 1244 3022 
L 1244 5316 
L 1688 5316 
L 1688 3022 
L 2819 3022 
L 2819 2584 
L 1688 2584 
L 1688 1803 
L 1913 2022 
Q 2413 1584 2825 1197 
L 2494 884 
Q 1956 1434 1688 1672 
L 1688 -816 
L 1244 -816 
L 1244 1847 
Q 881 866 288 103 
Q 206 359 94 603 
z
" transform="scale(0.015625)"/>
       <path id="MicrosoftYaHei-5f84" d="M 2388 4466 
L 2388 4891 
L 5738 4891 
L 5738 4459 
Q 5216 3866 4619 3391 
Q 5559 2888 6338 2428 
L 6038 1972 
Q 5256 2494 4216 3091 
Q 3253 2422 2106 2041 
Q 2000 2247 1850 2459 
Q 3894 3153 5025 4466 
L 2388 4466 
z
M 1931 -66 
L 3881 -66 
L 3881 1403 
L 2288 1403 
L 2288 1828 
L 5950 1828 
L 5950 1403 
L 4344 1403 
L 4344 -66 
L 6300 -66 
L 6300 -491 
L 1931 -491 
L 1931 -66 
z
M 38 1572 
Q 975 2353 1750 3809 
L 2175 3541 
Q 1844 2953 1475 2444 
L 1475 -816 
L 994 -816 
L 994 1831 
Q 638 1419 250 1066 
Q 156 1328 38 1572 
z
M 106 3616 
Q 1038 4359 1638 5391 
L 2063 5116 
Q 1356 3997 344 3134 
Q 238 3359 106 3616 
z
" transform="scale(0.015625)"/>
       <path id="MicrosoftYaHei-4e3a" d="M 356 3684 
L 2703 3684 
Q 2794 4450 2794 5341 
L 3331 5341 
Q 3331 4413 3244 3684 
L 5900 3684 
Q 5863 1753 5788 497 
Q 5725 -672 4550 -672 
Q 4063 -672 3394 -641 
Q 3369 -397 3300 -59 
Q 3888 -141 4456 -141 
Q 5206 -141 5244 597 
Q 5331 1822 5356 3197 
L 3175 3197 
Q 2716 441 606 -903 
Q 431 -684 225 -441 
Q 2169 706 2628 3197 
L 356 3197 
L 356 3684 
z
M 3325 2072 
L 3669 2378 
Q 4269 1822 4756 1284 
L 4369 934 
Q 3888 1503 3325 2072 
z
M 800 4922 
L 1138 5234 
Q 1656 4784 2138 4309 
L 1756 3953 
Q 1294 4459 800 4922 
z
" transform="scale(0.015625)"/>
      </defs>
      <use xlink:href="#MicrosoftYaHei-43" transform="translate(0 0.765625)"/>
      <use xlink:href="#MicrosoftYaHei-45" transform="translate(66.894531 0.765625)"/>
      <use xlink:href="#MicrosoftYaHei-42" transform="translate(121.875 0.765625)"/>
      <use xlink:href="#MicrosoftYaHei-2d" transform="translate(184.619141 0.765625)"/>
      <use xlink:href="#MicrosoftYaHei-46" transform="translate(227.880859 0.765625)"/>
      <use xlink:href="#MicrosoftYaHei-49" transform="translate(281.005859 0.765625)"/>
      <use xlink:href="#MicrosoftYaHei-50" transform="translate(310.400391 0.765625)"/>
      <use xlink:href="#MicrosoftYaHei-20" transform="translate(371.582031 0.765625)"/>
      <use xlink:href="#MicrosoftYaHei-4d" transform="translate(401.171875 0.765625)"/>
      <use xlink:href="#MicrosoftYaHei-4f" transform="translate(498.876953 0.765625)"/>
      <use xlink:href="#MicrosoftYaHei-44" transform="translate(580.371094 0.765625)"/>
      <use xlink:href="#MicrosoftYaHei-45" transform="translate(656.542969 0.765625)"/>
      <use xlink:href="#MicrosoftYaHei-4c" transform="translate(711.523438 0.765625)"/>
      <use xlink:href="#MicrosoftYaHei-20" transform="translate(767.216797 0.765625)"/>
      <use xlink:href="#MicrosoftYaHei-43" transform="translate(796.806641 0.765625)"/>
      <use xlink:href="#MicrosoftYaHei-4f" transform="translate(863.701172 0.765625)"/>
      <use xlink:href="#MicrosoftYaHei-44" transform="translate(945.195312 0.765625)"/>
      <use xlink:href="#MicrosoftYaHei-45" transform="translate(1021.367188 0.765625)"/>
      <use xlink:href="#MicrosoftYaHei-20" transform="translate(1076.347656 0.765625)"/>
      <use xlink:href="#MicrosoftYaHei-31" transform="translate(1105.9375 0.765625)"/>
      <use xlink:href="#MicrosoftYaHei-39" transform="translate(1164.580078 0.765625)"/>
      <use xlink:href="#MicrosoftYaHei-39" transform="translate(1223.222656 0.765625)"/>
      <use xlink:href="#MicrosoftYaHei-30" transform="translate(1281.865234 0.765625)"/>
      <use xlink:href="#MicrosoftYaHei-28" transform="translate(1340.507812 0.765625)"/>
      <use xlink:href="#DejaVuSans-Oblique-47" transform="translate(1373.90625 0.765625)"/>
      <use xlink:href="#DejaVuSans-Oblique-66" transform="translate(1451.396484 -15.640625) scale(0.7)"/>
      <use xlink:href="#DejaVuSans-30" transform="translate(1476.040039 -15.640625) scale(0.7)"/>
      <use xlink:href="#DejaVuSans-3d" transform="translate(1542.792969 0.765625)"/>
      <use xlink:href="#DejaVuSans-33" transform="translate(1646.064453 0.765625)"/>
      <use xlink:href="#DejaVuSans-30" transform="translate(1709.6875 0.765625)"/>
      <use xlink:href="#DejaVuSans-Oblique-4e" transform="translate(1773.310547 0.765625)"/>
      <use xlink:href="#DejaVuSans-2f" transform="translate(1848.115234 0.765625)"/>
      <use xlink:href="#DejaVuSans-Oblique-6d" transform="translate(1881.806641 0.765625)"/>
      <use xlink:href="#MicrosoftYaHei-2c" transform="translate(1979.21875 0.765625)"/>
      <use xlink:href="#MicrosoftYaHei-20" transform="translate(2003.291016 0.765625)"/>
      <use xlink:href="#MicrosoftYaHei-7c97" transform="translate(2032.880859 0.765625)"/>
      <use xlink:href="#MicrosoftYaHei-9aa8" transform="translate(2132.880859 0.765625)"/>
      <use xlink:href="#MicrosoftYaHei-6599" transform="translate(2232.880859 0.765625)"/>
      <use xlink:href="#MicrosoftYaHei-6700" transform="translate(2332.880859 0.765625)"/>
      <use xlink:href="#MicrosoftYaHei-5927" transform="translate(2432.880859 0.765625)"/>
      <use xlink:href="#MicrosoftYaHei-7c92" transform="translate(2532.880859 0.765625)"/>
      <use xlink:href="#MicrosoftYaHei-5f84" transform="translate(2632.880859 0.765625)"/>
      <use xlink:href="#MicrosoftYaHei-4e3a" transform="translate(2732.880859 0.765625)"/>
      <use xlink:href="#MicrosoftYaHei-31" transform="translate(2832.880859 0.765625)"/>
      <use xlink:href="#MicrosoftYaHei-36" transform="translate(2891.523438 0.765625)"/>
      <use xlink:href="#MicrosoftYaHei-6d" transform="translate(2950.166016 0.765625)"/>
      <use xlink:href="#MicrosoftYaHei-6d" transform="translate(3043.867188 0.765625)"/>
      <use xlink:href="#MicrosoftYaHei-29" transform="translate(3137.568359 0.765625)"/>
     </g>
    </g>
    <g id="line2d_20">
     <path d="M 82.728 69.652302 
L 92.728 69.652302 
L 102.728 69.652302 
" style="fill: none; stroke: #4daf4a; stroke-width: 1.5; stroke-linecap: square"/>
    </g>
    <g id="text_19">
     <!-- CEB-FIP MODEL CODE 1990($G_{f0}=58N/m$, 粗骨料最大粒径为32mm) -->
     <g transform="translate(110.728 73.152302) scale(0.1 -0.1)">
      <defs>
       <path id="DejaVuSans-35" d="M 691 4666 
L 3169 4666 
L 3169 4134 
L 1269 4134 
L 1269 2991 
Q 1406 3038 1543 3061 
Q 1681 3084 1819 3084 
Q 2600 3084 3056 2656 
Q 3513 2228 3513 1497 
Q 3513 744 3044 326 
Q 2575 -91 1722 -91 
Q 1428 -91 1123 -41 
Q 819 9 494 109 
L 494 744 
Q 775 591 1075 516 
Q 1375 441 1709 441 
Q 2250 441 2565 725 
Q 2881 1009 2881 1497 
Q 2881 1984 2565 2268 
Q 2250 2553 1709 2553 
Q 1456 2553 1204 2497 
Q 953 2441 691 2322 
L 691 4666 
z
" transform="scale(0.015625)"/>
       <path id="DejaVuSans-38" d="M 2034 2216 
Q 1584 2216 1326 1975 
Q 1069 1734 1069 1313 
Q 1069 891 1326 650 
Q 1584 409 2034 409 
Q 2484 409 2743 651 
Q 3003 894 3003 1313 
Q 3003 1734 2745 1975 
Q 2488 2216 2034 2216 
z
M 1403 2484 
Q 997 2584 770 2862 
Q 544 3141 544 3541 
Q 544 4100 942 4425 
Q 1341 4750 2034 4750 
Q 2731 4750 3128 4425 
Q 3525 4100 3525 3541 
Q 3525 3141 3298 2862 
Q 3072 2584 2669 2484 
Q 3125 2378 3379 2068 
Q 3634 1759 3634 1313 
Q 3634 634 3220 271 
Q 2806 -91 2034 -91 
Q 1263 -91 848 271 
Q 434 634 434 1313 
Q 434 1759 690 2068 
Q 947 2378 1403 2484 
z
M 1172 3481 
Q 1172 3119 1398 2916 
Q 1625 2713 2034 2713 
Q 2441 2713 2670 2916 
Q 2900 3119 2900 3481 
Q 2900 3844 2670 4047 
Q 2441 4250 2034 4250 
Q 1625 4250 1398 4047 
Q 1172 3844 1172 3481 
z
" transform="scale(0.015625)"/>
      </defs>
      <use xlink:href="#MicrosoftYaHei-43" transform="translate(0 0.765625)"/>
      <use xlink:href="#MicrosoftYaHei-45" transform="translate(66.894531 0.765625)"/>
      <use xlink:href="#MicrosoftYaHei-42" transform="translate(121.875 0.765625)"/>
      <use xlink:href="#MicrosoftYaHei-2d" transform="translate(184.619141 0.765625)"/>
      <use xlink:href="#MicrosoftYaHei-46" transform="translate(227.880859 0.765625)"/>
      <use xlink:href="#MicrosoftYaHei-49" transform="translate(281.005859 0.765625)"/>
      <use xlink:href="#MicrosoftYaHei-50" transform="translate(310.400391 0.765625)"/>
      <use xlink:href="#MicrosoftYaHei-20" transform="translate(371.582031 0.765625)"/>
      <use xlink:href="#MicrosoftYaHei-4d" transform="translate(401.171875 0.765625)"/>
      <use xlink:href="#MicrosoftYaHei-4f" transform="translate(498.876953 0.765625)"/>
      <use xlink:href="#MicrosoftYaHei-44" transform="translate(580.371094 0.765625)"/>
      <use xlink:href="#MicrosoftYaHei-45" transform="translate(656.542969 0.765625)"/>
      <use xlink:href="#MicrosoftYaHei-4c" transform="translate(711.523438 0.765625)"/>
      <use xlink:href="#MicrosoftYaHei-20" transform="translate(767.216797 0.765625)"/>
      <use xlink:href="#MicrosoftYaHei-43" transform="translate(796.806641 0.765625)"/>
      <use xlink:href="#MicrosoftYaHei-4f" transform="translate(863.701172 0.765625)"/>
      <use xlink:href="#MicrosoftYaHei-44" transform="translate(945.195312 0.765625)"/>
      <use xlink:href="#MicrosoftYaHei-45" transform="translate(1021.367188 0.765625)"/>
      <use xlink:href="#MicrosoftYaHei-20" transform="translate(1076.347656 0.765625)"/>
      <use xlink:href="#MicrosoftYaHei-31" transform="translate(1105.9375 0.765625)"/>
      <use xlink:href="#MicrosoftYaHei-39" transform="translate(1164.580078 0.765625)"/>
      <use xlink:href="#MicrosoftYaHei-39" transform="translate(1223.222656 0.765625)"/>
      <use xlink:href="#MicrosoftYaHei-30" transform="translate(1281.865234 0.765625)"/>
      <use xlink:href="#MicrosoftYaHei-28" transform="translate(1340.507812 0.765625)"/>
      <use xlink:href="#DejaVuSans-Oblique-47" transform="translate(1373.90625 0.765625)"/>
      <use xlink:href="#DejaVuSans-Oblique-66" transform="translate(1451.396484 -15.640625) scale(0.7)"/>
      <use xlink:href="#DejaVuSans-30" transform="translate(1476.040039 -15.640625) scale(0.7)"/>
      <use xlink:href="#DejaVuSans-3d" transform="translate(1542.792969 0.765625)"/>
      <use xlink:href="#DejaVuSans-35" transform="translate(1646.064453 0.765625)"/>
      <use xlink:href="#DejaVuSans-38" transform="translate(1709.6875 0.765625)"/>
      <use xlink:href="#DejaVuSans-Oblique-4e" transform="translate(1773.310547 0.765625)"/>
      <use xlink:href="#DejaVuSans-2f" transform="translate(1848.115234 0.765625)"/>
      <use xlink:href="#DejaVuSans-Oblique-6d" transform="translate(1881.806641 0.765625)"/>
      <use xlink:href="#MicrosoftYaHei-2c" transform="translate(1979.21875 0.765625)"/>
      <use xlink:href="#MicrosoftYaHei-20" transform="translate(2003.291016 0.765625)"/>
      <use xlink:href="#MicrosoftYaHei-7c97" transform="translate(2032.880859 0.765625)"/>
      <use xlink:href="#MicrosoftYaHei-9aa8" transform="translate(2132.880859 0.765625)"/>
      <use xlink:href="#MicrosoftYaHei-6599" transform="translate(2232.880859 0.765625)"/>
      <use xlink:href="#MicrosoftYaHei-6700" transform="translate(2332.880859 0.765625)"/>
      <use xlink:href="#MicrosoftYaHei-5927" transform="translate(2432.880859 0.765625)"/>
      <use xlink:href="#MicrosoftYaHei-7c92" transform="translate(2532.880859 0.765625)"/>
      <use xlink:href="#MicrosoftYaHei-5f84" transform="translate(2632.880859 0.765625)"/>
      <use xlink:href="#MicrosoftYaHei-4e3a" transform="translate(2732.880859 0.765625)"/>
      <use xlink:href="#MicrosoftYaHei-33" transform="translate(2832.880859 0.765625)"/>
      <use xlink:href="#MicrosoftYaHei-32" transform="translate(2891.523438 0.765625)"/>
      <use xlink:href="#MicrosoftYaHei-6d" transform="translate(2950.166016 0.765625)"/>
      <use xlink:href="#MicrosoftYaHei-6d" transform="translate(3043.867188 0.765625)"/>
      <use xlink:href="#MicrosoftYaHei-29" transform="translate(3137.568359 0.765625)"/>
     </g>
    </g>
   </g>
  </g>
 </g>
 <defs>
  <clipPath id="p2392c6b855">
   <rect x="73.728" y="25.199177" width="987.9552" height="486.134126"/>
  </clipPath>
 </defs>
</svg>
