<?xml version="1.0" encoding="utf-8" standalone="no"?>
<!DOCTYPE svg PUBLIC "-//W3C//DTD SVG 1.1//EN"
  "http://www.w3.org/Graphics/SVG/1.1/DTD/svg11.dtd">
<svg xmlns:xlink="http://www.w3.org/1999/xlink" width="1105.92pt" height="551.232pt" viewBox="0 0 1105.92 551.232" xmlns="http://www.w3.org/2000/svg" version="1.1">
 <metadata>
  <rdf:RDF xmlns:dc="http://purl.org/dc/elements/1.1/" xmlns:cc="http://creativecommons.org/ns#" xmlns:rdf="http://www.w3.org/1999/02/22-rdf-syntax-ns#">
   <cc:Work>
    <dc:type rdf:resource="http://purl.org/dc/dcmitype/StillImage"/>
    <dc:date>2023-05-27T17:23:10.726403</dc:date>
    <dc:format>image/svg+xml</dc:format>
    <dc:creator>
     <cc:Agent>
      <dc:title>Matplotlib v3.7.1, https://matplotlib.org/</dc:title>
     </cc:Agent>
    </dc:creator>
   </cc:Work>
  </rdf:RDF>
 </metadata>
 <defs>
  <style type="text/css">*{stroke-linejoin: round; stroke-linecap: butt}</style>
 </defs>
 <g id="figure_1">
  <g id="patch_1">
   <path d="M 0 551.232 
L 1105.92 551.232 
L 1105.92 0 
L 0 0 
z
" style="fill: #ffffff"/>
  </g>
  <g id="axes_1">
   <g id="patch_2">
    <path d="M 69.514971 509.233371 
L 1072.215771 509.233371 
L 1072.215771 34.648869 
L 69.514971 34.648869 
z
" style="fill: #ffffff"/>
   </g>
   <g id="matplotlib.axis_1">
    <g id="xtick_1">
     <g id="line2d_1">
      <defs>
       <path id="m763ca9e3fb" d="M 0 0 
L 0 3.5 
" style="stroke: #000000; stroke-width: 0.8"/>
      </defs>
      <g>
       <use xlink:href="#m763ca9e3fb" x="69.514971" y="509.233371" style="stroke: #000000; stroke-width: 0.8"/>
      </g>
     </g>
     <g id="text_1">
      <!-- 0.000 -->
      <g transform="translate(56.58294 524.227121) scale(0.1 -0.1)">
       <defs>
        <path id="MicrosoftYaHei-30" d="M 284 2325 
Q 284 3606 709 4264 
Q 1134 4922 1941 4922 
Q 3478 4922 3478 2441 
Q 3478 1216 3045 567 
Q 2613 -81 1831 -81 
Q 1094 -81 689 534 
Q 284 1150 284 2325 
z
M 909 2353 
Q 909 425 1888 425 
Q 2850 425 2850 2384 
Q 2850 4413 1906 4413 
Q 909 4413 909 2353 
z
" transform="scale(0.015625)"/>
        <path id="MicrosoftYaHei-2e" d="M 372 322 
Q 372 491 487 606 
Q 603 722 775 722 
Q 950 722 1065 605 
Q 1181 488 1181 322 
Q 1181 159 1065 42 
Q 950 -75 772 -75 
Q 600 -75 486 42 
Q 372 159 372 322 
z
" transform="scale(0.015625)"/>
       </defs>
       <use xlink:href="#MicrosoftYaHei-30"/>
       <use xlink:href="#MicrosoftYaHei-2e" x="58.642578"/>
       <use xlink:href="#MicrosoftYaHei-30" x="82.714844"/>
       <use xlink:href="#MicrosoftYaHei-30" x="141.357422"/>
       <use xlink:href="#MicrosoftYaHei-30" x="200"/>
      </g>
     </g>
    </g>
    <g id="xtick_2">
     <g id="line2d_2">
      <g>
       <use xlink:href="#m763ca9e3fb" x="194.852571" y="509.233371" style="stroke: #000000; stroke-width: 0.8"/>
      </g>
     </g>
     <g id="text_2">
      <!-- 0.005 -->
      <g transform="translate(181.92054 524.227121) scale(0.1 -0.1)">
       <defs>
        <path id="MicrosoftYaHei-35" d="M 3294 1494 
Q 3294 784 2823 350 
Q 2353 -84 1559 -84 
Q 878 -84 544 119 
L 544 744 
Q 1034 425 1544 425 
Q 2050 425 2361 704 
Q 2672 984 2672 1447 
Q 2672 1909 2348 2167 
Q 2025 2425 1434 2425 
Q 978 2425 613 2384 
L 791 4841 
L 3053 4841 
L 3053 4303 
L 1306 4303 
L 1206 2931 
L 1647 2950 
Q 2416 2950 2855 2567 
Q 3294 2184 3294 1494 
z
" transform="scale(0.015625)"/>
       </defs>
       <use xlink:href="#MicrosoftYaHei-30"/>
       <use xlink:href="#MicrosoftYaHei-2e" x="58.642578"/>
       <use xlink:href="#MicrosoftYaHei-30" x="82.714844"/>
       <use xlink:href="#MicrosoftYaHei-30" x="141.357422"/>
       <use xlink:href="#MicrosoftYaHei-35" x="200"/>
      </g>
     </g>
    </g>
    <g id="xtick_3">
     <g id="line2d_3">
      <g>
       <use xlink:href="#m763ca9e3fb" x="320.190171" y="509.233371" style="stroke: #000000; stroke-width: 0.8"/>
      </g>
     </g>
     <g id="text_3">
      <!-- 0.010 -->
      <g transform="translate(307.25814 524.227121) scale(0.1 -0.1)">
       <defs>
        <path id="MicrosoftYaHei-31" d="M 1781 0 
L 1781 4141 
Q 1638 3997 1295 3819 
Q 953 3641 663 3569 
L 663 4169 
Q 1047 4275 1484 4508 
Q 1922 4741 2156 4947 
L 2388 4947 
L 2388 0 
L 1781 0 
z
" transform="scale(0.015625)"/>
       </defs>
       <use xlink:href="#MicrosoftYaHei-30"/>
       <use xlink:href="#MicrosoftYaHei-2e" x="58.642578"/>
       <use xlink:href="#MicrosoftYaHei-30" x="82.714844"/>
       <use xlink:href="#MicrosoftYaHei-31" x="141.357422"/>
       <use xlink:href="#MicrosoftYaHei-30" x="200"/>
      </g>
     </g>
    </g>
    <g id="xtick_4">
     <g id="line2d_4">
      <g>
       <use xlink:href="#m763ca9e3fb" x="445.527771" y="509.233371" style="stroke: #000000; stroke-width: 0.8"/>
      </g>
     </g>
     <g id="text_4">
      <!-- 0.015 -->
      <g transform="translate(432.59574 524.227121) scale(0.1 -0.1)">
       <use xlink:href="#MicrosoftYaHei-30"/>
       <use xlink:href="#MicrosoftYaHei-2e" x="58.642578"/>
       <use xlink:href="#MicrosoftYaHei-30" x="82.714844"/>
       <use xlink:href="#MicrosoftYaHei-31" x="141.357422"/>
       <use xlink:href="#MicrosoftYaHei-35" x="200"/>
      </g>
     </g>
    </g>
    <g id="xtick_5">
     <g id="line2d_5">
      <g>
       <use xlink:href="#m763ca9e3fb" x="570.865371" y="509.233371" style="stroke: #000000; stroke-width: 0.8"/>
      </g>
     </g>
     <g id="text_5">
      <!-- 0.020 -->
      <g transform="translate(557.93334 524.227121) scale(0.1 -0.1)">
       <defs>
        <path id="MicrosoftYaHei-32" d="M 2666 3572 
Q 2666 3963 2419 4186 
Q 2172 4409 1747 4409 
Q 1447 4409 1140 4256 
Q 834 4103 569 3819 
L 569 4413 
Q 806 4659 1107 4790 
Q 1409 4922 1816 4922 
Q 2472 4922 2872 4570 
Q 3272 4219 3272 3619 
Q 3272 3084 3026 2693 
Q 2781 2303 2188 1894 
Q 1581 1475 1376 1294 
Q 1172 1113 1090 947 
Q 1009 781 1009 544 
L 3416 544 
L 3416 0 
L 372 0 
L 372 241 
Q 372 659 486 951 
Q 600 1244 862 1520 
Q 1125 1797 1681 2184 
Q 2250 2584 2458 2886 
Q 2666 3188 2666 3572 
z
" transform="scale(0.015625)"/>
       </defs>
       <use xlink:href="#MicrosoftYaHei-30"/>
       <use xlink:href="#MicrosoftYaHei-2e" x="58.642578"/>
       <use xlink:href="#MicrosoftYaHei-30" x="82.714844"/>
       <use xlink:href="#MicrosoftYaHei-32" x="141.357422"/>
       <use xlink:href="#MicrosoftYaHei-30" x="200"/>
      </g>
     </g>
    </g>
    <g id="xtick_6">
     <g id="line2d_6">
      <g>
       <use xlink:href="#m763ca9e3fb" x="696.202971" y="509.233371" style="stroke: #000000; stroke-width: 0.8"/>
      </g>
     </g>
     <g id="text_6">
      <!-- 0.025 -->
      <g transform="translate(683.27094 524.227121) scale(0.1 -0.1)">
       <use xlink:href="#MicrosoftYaHei-30"/>
       <use xlink:href="#MicrosoftYaHei-2e" x="58.642578"/>
       <use xlink:href="#MicrosoftYaHei-30" x="82.714844"/>
       <use xlink:href="#MicrosoftYaHei-32" x="141.357422"/>
       <use xlink:href="#MicrosoftYaHei-35" x="200"/>
      </g>
     </g>
    </g>
    <g id="xtick_7">
     <g id="line2d_7">
      <g>
       <use xlink:href="#m763ca9e3fb" x="821.540571" y="509.233371" style="stroke: #000000; stroke-width: 0.8"/>
      </g>
     </g>
     <g id="text_7">
      <!-- 0.030 -->
      <g transform="translate(808.60854 524.227121) scale(0.1 -0.1)">
       <defs>
        <path id="MicrosoftYaHei-33" d="M 447 809 
Q 944 425 1569 425 
Q 2069 425 2361 670 
Q 2653 916 2653 1328 
Q 2653 2247 1338 2247 
L 934 2247 
L 934 2753 
L 1319 2753 
Q 2484 2753 2484 3616 
Q 2484 4413 1594 4413 
Q 1084 4413 634 4069 
L 634 4647 
Q 1109 4922 1744 4922 
Q 2363 4922 2738 4598 
Q 3113 4275 3113 3759 
Q 3113 2809 2144 2538 
L 2144 2525 
Q 2669 2469 2973 2155 
Q 3278 1841 3278 1372 
Q 3278 719 2808 319 
Q 2338 -81 1556 -81 
Q 869 -81 447 175 
L 447 809 
z
" transform="scale(0.015625)"/>
       </defs>
       <use xlink:href="#MicrosoftYaHei-30"/>
       <use xlink:href="#MicrosoftYaHei-2e" x="58.642578"/>
       <use xlink:href="#MicrosoftYaHei-30" x="82.714844"/>
       <use xlink:href="#MicrosoftYaHei-33" x="141.357422"/>
       <use xlink:href="#MicrosoftYaHei-30" x="200"/>
      </g>
     </g>
    </g>
    <g id="xtick_8">
     <g id="line2d_8">
      <g>
       <use xlink:href="#m763ca9e3fb" x="946.878171" y="509.233371" style="stroke: #000000; stroke-width: 0.8"/>
      </g>
     </g>
     <g id="text_8">
      <!-- 0.035 -->
      <g transform="translate(933.94614 524.227121) scale(0.1 -0.1)">
       <use xlink:href="#MicrosoftYaHei-30"/>
       <use xlink:href="#MicrosoftYaHei-2e" x="58.642578"/>
       <use xlink:href="#MicrosoftYaHei-30" x="82.714844"/>
       <use xlink:href="#MicrosoftYaHei-33" x="141.357422"/>
       <use xlink:href="#MicrosoftYaHei-35" x="200"/>
      </g>
     </g>
    </g>
    <g id="xtick_9">
     <g id="line2d_9">
      <g>
       <use xlink:href="#m763ca9e3fb" x="1072.215771" y="509.233371" style="stroke: #000000; stroke-width: 0.8"/>
      </g>
     </g>
     <g id="text_9">
      <!-- 0.040 -->
      <g transform="translate(1059.28374 524.227121) scale(0.1 -0.1)">
       <defs>
        <path id="MicrosoftYaHei-34" d="M 2906 4841 
L 2906 1644 
L 3631 1644 
L 3631 1138 
L 2906 1138 
L 2906 0 
L 2313 0 
L 2313 1138 
L 53 1138 
L 53 1616 
Q 656 2294 1265 3178 
Q 1875 4063 2272 4841 
L 2906 4841 
z
M 741 1644 
L 2313 1644 
L 2313 3950 
Q 1988 3366 1616 2817 
Q 1244 2269 741 1644 
z
" transform="scale(0.015625)"/>
       </defs>
       <use xlink:href="#MicrosoftYaHei-30"/>
       <use xlink:href="#MicrosoftYaHei-2e" x="58.642578"/>
       <use xlink:href="#MicrosoftYaHei-30" x="82.714844"/>
       <use xlink:href="#MicrosoftYaHei-34" x="141.357422"/>
       <use xlink:href="#MicrosoftYaHei-30" x="200"/>
      </g>
     </g>
    </g>
    <g id="text_10">
     <!-- 应变$\varepsilon$ -->
     <g transform="translate(558.115371 538.706809) scale(0.1 -0.1)">
      <defs>
       <path id="MicrosoftYaHei-5e94" d="M 2969 5134 
L 3425 5378 
Q 3694 5034 3938 4634 
L 3634 4459 
L 6169 4459 
L 6169 3984 
L 1300 3984 
L 1300 2453 
Q 1300 241 388 -853 
Q 238 -647 25 -422 
Q 775 416 775 2441 
L 775 4459 
L 3419 4459 
Q 3216 4803 2969 5134 
z
M 1263 -9 
L 4153 -9 
Q 4641 1238 5188 3403 
L 5731 3253 
Q 5147 1191 4694 -9 
L 6238 -9 
L 6238 -484 
L 1263 -484 
L 1263 -9 
z
M 1600 3059 
L 2075 3222 
Q 2463 2084 2825 672 
L 2294 509 
Q 2006 1747 1600 3059 
z
M 3106 3372 
L 3588 3509 
Q 3913 2384 4163 991 
L 3613 847 
Q 3431 2084 3106 3372 
z
" transform="scale(0.015625)"/>
       <path id="MicrosoftYaHei-53d8" d="M 838 1634 
L 838 2066 
L 5088 2066 
L 5088 1634 
Q 4494 853 3659 309 
Q 4675 -178 6313 -297 
Q 6088 -609 5950 -822 
Q 4275 -594 3178 34 
Q 2122 -509 425 -866 
Q 269 -622 106 -403 
Q 1741 -122 2728 328 
Q 2047 838 1553 1634 
L 838 1634 
z
M 231 4534 
L 3081 4534 
Q 2888 4884 2725 5141 
L 3175 5359 
Q 3481 4884 3600 4659 
L 3359 4534 
L 6200 4534 
L 6200 4091 
L 4181 4091 
L 4181 2353 
L 3700 2353 
L 3700 4091 
L 2694 4091 
L 2694 2341 
L 2213 2341 
L 2213 4091 
L 231 4091 
L 231 4534 
z
M 4475 1634 
L 2116 1634 
Q 2575 953 3197 572 
Q 3947 1016 4475 1634 
z
M 4556 3434 
L 4900 3728 
Q 5700 3009 6213 2459 
L 5825 2116 
Q 5219 2797 4556 3434 
z
M 1381 3741 
L 1756 3422 
Q 1119 2691 500 2097 
Q 344 2272 138 2447 
Q 794 3009 1381 3741 
z
" transform="scale(0.015625)"/>
       <path id="DejaVuSans-Oblique-3b5" d="M 1263 1888 
Q 925 1963 778 2166 
Q 669 2309 669 2503 
Q 669 3034 1175 3344 
Q 1575 3588 2188 3588 
Q 2425 3588 2684 3550 
Q 2944 3513 3234 3438 
L 3134 2916 
Q 2847 3006 2606 3047 
Q 2359 3088 2138 3088 
Q 1766 3088 1522 2944 
Q 1228 2772 1228 2522 
Q 1228 2356 1381 2241 
Q 1563 2103 1925 2103 
L 2409 2103 
L 2319 1628 
L 1856 1628 
Q 1425 1628 1172 1469 
Q 828 1253 828 916 
Q 828 703 1013 563 
Q 1244 388 1716 388 
Q 2006 388 2284 444 
Q 2563 503 2806 619 
L 2700 84 
Q 2403 -3 2131 -47 
Q 1859 -91 1609 -91 
Q 866 -91 516 194 
Q 250 413 250 781 
Q 250 1278 600 1584 
Q 859 1813 1263 1888 
z
" transform="scale(0.015625)"/>
      </defs>
      <use xlink:href="#MicrosoftYaHei-5e94" transform="translate(0 0.96875)"/>
      <use xlink:href="#MicrosoftYaHei-53d8" transform="translate(100 0.96875)"/>
      <use xlink:href="#DejaVuSans-Oblique-3b5" transform="translate(200 0.96875)"/>
     </g>
    </g>
   </g>
   <g id="matplotlib.axis_2">
    <g id="ytick_1">
     <g id="line2d_10">
      <defs>
       <path id="m5f25673988" d="M 0 0 
L -3.5 0 
" style="stroke: #000000; stroke-width: 0.8"/>
      </defs>
      <g>
       <use xlink:href="#m5f25673988" x="69.514971" y="487.661349" style="stroke: #000000; stroke-width: 0.8"/>
      </g>
     </g>
     <g id="text_11">
      <!-- 0 -->
      <g transform="translate(56.650909 491.658224) scale(0.1 -0.1)">
       <use xlink:href="#MicrosoftYaHei-30"/>
      </g>
     </g>
    </g>
    <g id="ytick_2">
     <g id="line2d_11">
      <g>
       <use xlink:href="#m5f25673988" x="69.514971" y="386.539015" style="stroke: #000000; stroke-width: 0.8"/>
      </g>
     </g>
     <g id="text_12">
      <!-- 1000 -->
      <g transform="translate(39.058721 390.53589) scale(0.1 -0.1)">
       <use xlink:href="#MicrosoftYaHei-31"/>
       <use xlink:href="#MicrosoftYaHei-30" x="58.642578"/>
       <use xlink:href="#MicrosoftYaHei-30" x="117.285156"/>
       <use xlink:href="#MicrosoftYaHei-30" x="175.927734"/>
      </g>
     </g>
    </g>
    <g id="ytick_3">
     <g id="line2d_12">
      <g>
       <use xlink:href="#m5f25673988" x="69.514971" y="285.416682" style="stroke: #000000; stroke-width: 0.8"/>
      </g>
     </g>
     <g id="text_13">
      <!-- 2000 -->
      <g transform="translate(39.058721 289.413557) scale(0.1 -0.1)">
       <use xlink:href="#MicrosoftYaHei-32"/>
       <use xlink:href="#MicrosoftYaHei-30" x="58.642578"/>
       <use xlink:href="#MicrosoftYaHei-30" x="117.285156"/>
       <use xlink:href="#MicrosoftYaHei-30" x="175.927734"/>
      </g>
     </g>
    </g>
    <g id="ytick_4">
     <g id="line2d_13">
      <g>
       <use xlink:href="#m5f25673988" x="69.514971" y="184.294349" style="stroke: #000000; stroke-width: 0.8"/>
      </g>
     </g>
     <g id="text_14">
      <!-- 3000 -->
      <g transform="translate(39.058721 188.291224) scale(0.1 -0.1)">
       <use xlink:href="#MicrosoftYaHei-33"/>
       <use xlink:href="#MicrosoftYaHei-30" x="58.642578"/>
       <use xlink:href="#MicrosoftYaHei-30" x="117.285156"/>
       <use xlink:href="#MicrosoftYaHei-30" x="175.927734"/>
      </g>
     </g>
    </g>
    <g id="ytick_5">
     <g id="line2d_14">
      <g>
       <use xlink:href="#m5f25673988" x="69.514971" y="83.172016" style="stroke: #000000; stroke-width: 0.8"/>
      </g>
     </g>
     <g id="text_15">
      <!-- 4000 -->
      <g transform="translate(39.058721 87.168891) scale(0.1 -0.1)">
       <use xlink:href="#MicrosoftYaHei-34"/>
       <use xlink:href="#MicrosoftYaHei-30" x="58.642578"/>
       <use xlink:href="#MicrosoftYaHei-30" x="117.285156"/>
       <use xlink:href="#MicrosoftYaHei-30" x="175.927734"/>
      </g>
     </g>
    </g>
    <g id="text_16">
     <!-- 荷载P(kN) -->
     <g transform="translate(32.572784 295.127839) rotate(-90) scale(0.1 -0.1)">
      <defs>
       <path id="MicrosoftYaHei-8377" d="M 2175 3503 
L 6231 3503 
L 6231 3066 
L 5556 3066 
L 5556 116 
Q 5556 -716 4744 -716 
L 3856 -716 
Q 3831 -528 3744 -197 
Q 4238 -241 4619 -241 
Q 5069 -241 5069 241 
L 5069 3066 
L 2175 3066 
L 2175 3503 
z
M 2350 2422 
L 4350 2422 
L 4350 541 
L 2813 541 
L 2813 209 
L 2350 209 
L 2350 2422 
z
M 219 4728 
L 1975 4728 
L 1975 5328 
L 2463 5328 
L 2463 4728 
L 4013 4728 
L 4013 5328 
L 4500 5328 
L 4500 4728 
L 6275 4728 
L 6275 4278 
L 4500 4278 
L 4500 3828 
L 4013 3828 
L 4013 4278 
L 2463 4278 
L 2463 3859 
L 1975 3859 
L 1975 4278 
L 219 4278 
L 219 4728 
z
M 69 1653 
Q 1006 2628 1538 3847 
L 2006 3659 
Q 1759 3169 1506 2744 
L 1506 -797 
L 1019 -797 
L 1019 2006 
Q 688 1553 344 1209 
Q 225 1409 69 1653 
z
M 3888 966 
L 3888 1997 
L 2813 1997 
L 2813 966 
L 3888 966 
z
" transform="scale(0.015625)"/>
       <path id="MicrosoftYaHei-8f7d" d="M 2881 -416 
Q 3622 91 4213 806 
Q 3894 1769 3806 3234 
L 125 3234 
L 125 3653 
L 1681 3653 
L 1681 4234 
L 381 4234 
L 381 4628 
L 1681 4628 
L 1681 5266 
L 2144 5266 
L 2144 4628 
L 3375 4628 
L 3375 4234 
L 2144 4234 
L 2144 3653 
L 3781 3653 
Q 3744 4397 3713 5297 
L 4194 5297 
Q 4197 4419 4241 3653 
L 6319 3653 
L 6319 3234 
L 4266 3234 
Q 4331 2081 4563 1269 
Q 5034 1941 5394 2766 
L 5825 2566 
Q 5344 1531 4744 738 
Q 4938 278 5200 -34 
Q 5363 -222 5500 -222 
Q 5669 -222 5725 28 
Q 5800 366 5869 878 
Q 6119 766 6319 709 
Q 6238 178 6138 -234 
Q 5981 -791 5581 -791 
Q 5125 -791 4713 -209 
Q 4544 22 4406 319 
Q 3869 -297 3250 -741 
Q 3063 -528 2881 -416 
z
M 1006 1472 
L 1863 1472 
L 1863 2047 
L 2306 2047 
L 2306 1472 
L 3488 1472 
L 3488 1078 
L 2306 1078 
L 2306 497 
Q 2878 544 3513 597 
Q 3494 397 3494 191 
Q 2931 153 2306 100 
L 2306 -816 
L 1863 -816 
L 1863 59 
Q 1128 -3 313 -91 
L 213 359 
Q 956 400 1863 466 
L 1863 1078 
L 488 1078 
L 488 1484 
Q 741 1813 984 2216 
L 275 2216 
L 275 2609 
L 1213 2609 
Q 1366 2888 1513 3197 
L 1975 3053 
Q 1847 2819 1725 2609 
L 3538 2609 
L 3538 2216 
L 1491 2216 
Q 1231 1791 1006 1472 
z
M 4613 4841 
L 4919 5147 
Q 5550 4672 5944 4303 
L 5588 3941 
Q 5163 4397 4613 4841 
z
" transform="scale(0.015625)"/>
       <path id="MicrosoftYaHei-50" d="M 1250 1809 
L 1250 0 
L 625 0 
L 625 4841 
L 2000 4841 
Q 2784 4841 3217 4462 
Q 3650 4084 3650 3381 
Q 3650 2669 3144 2226 
Q 2638 1784 1878 1809 
L 1250 1809 
z
M 1250 4291 
L 1250 2359 
L 1828 2359 
Q 2400 2359 2697 2617 
Q 2994 2875 2994 3356 
Q 2994 4291 1888 4291 
L 1250 4291 
z
" transform="scale(0.015625)"/>
       <path id="MicrosoftYaHei-28" d="M 1531 -1100 
Q 478 100 478 1847 
Q 478 3594 1531 4841 
L 2072 4841 
Q 1016 3544 1016 1853 
Q 1016 166 2066 -1100 
L 1531 -1100 
z
" transform="scale(0.015625)"/>
       <path id="MicrosoftYaHei-6b" d="M 3484 0 
L 2650 0 
L 1172 1666 
L 1159 1666 
L 1159 0 
L 547 0 
L 547 5116 
L 1159 5116 
L 1159 1872 
L 1172 1872 
L 2575 3456 
L 3363 3456 
L 1800 1794 
L 3484 0 
z
" transform="scale(0.015625)"/>
       <path id="MicrosoftYaHei-4e" d="M 4578 0 
L 3838 0 
L 1403 3766 
Q 1300 3925 1238 4081 
L 1219 4081 
Q 1244 3919 1244 3403 
L 1244 0 
L 625 0 
L 625 4841 
L 1409 4841 
L 3778 1141 
Q 3947 878 3978 806 
L 3991 806 
Q 3959 1013 3959 1513 
L 3959 4841 
L 4578 4841 
L 4578 0 
z
" transform="scale(0.015625)"/>
       <path id="MicrosoftYaHei-29" d="M 78 -1100 
Q 1131 163 1131 1853 
Q 1131 3547 72 4841 
L 616 4841 
Q 1672 3603 1672 1847 
Q 1672 91 616 -1100 
L 78 -1100 
z
" transform="scale(0.015625)"/>
      </defs>
      <use xlink:href="#MicrosoftYaHei-8377"/>
      <use xlink:href="#MicrosoftYaHei-8f7d" x="100"/>
      <use xlink:href="#MicrosoftYaHei-50" x="200"/>
      <use xlink:href="#MicrosoftYaHei-28" x="261.181641"/>
      <use xlink:href="#MicrosoftYaHei-6b" x="294.580078"/>
      <use xlink:href="#MicrosoftYaHei-4e" x="349.023438"/>
      <use xlink:href="#MicrosoftYaHei-29" x="430.322266"/>
     </g>
    </g>
   </g>
   <g id="line2d_15">
    <path d="M 69.514971 487.661349 
L 71.081691 473.180863 
L 72.648412 459.338756 
L 74.998491 438.625476 
L 78.523612 407.573996 
L 83.811291 361.032095 
L 91.742811 291.292509 
L 103.640092 199.338925 
L 108.101571 176.628265 
L 114.793792 145.61134 
L 124.832121 105.405075 
L 139.889617 70.649304 
L 145.536179 62.594834 
L 154.006014 58.959638 
L 157.182208 58.943661 
L 161.946495 60.880861 
L 169.09292 66.24712 
L 179.812562 76.460577 
L 195.892025 91.392023 
L 201.921829 96.629249 
L 210.966529 103.51161 
L 224.533575 112.241122 
L 244.884149 122.553097 
L 275.41 133.758968 
L 321.198776 145.209556 
L 389.88197 156.32831 
L 415.638146 159.423614 
L 454.272439 163.204275 
L 512.223858 168.105422 
L 533.955675 169.541839 
L 566.553321 171.263093 
L 615.44985 173.091435 
L 688.794624 174.564687 
L 798.811784 175.865828 
L 840.068234 175.979161 
L 855.539403 175.983104 
L 878.746156 175.921268 
L 913.556285 175.822775 
L 920.08317 175.820424 
L 929.873496 175.796357 
L 937.216301 175.762026 
L 944.559026 175.73356 
L 955.573193 175.68181 
L 972.094404 175.595781 
L 996.876181 175.461086 
L 1034.048965 175.243496 
L 1089.807982 174.90739 
L 1106.92 174.823258 
" clip-path="url(#p3e99926925)" style="fill: none; stroke: #e41a1c; stroke-width: 1.5; stroke-linecap: square"/>
   </g>
   <g id="line2d_16">
    <path d="M 69.514971 487.661349 
L 94.582492 296.814686 
L 113.383129 216.076593 
L 118.083292 203.57274 
L 125.133529 186.403988 
L 135.708892 162.20367 
L 139.67465 153.448068 
L 145.623292 140.538892 
L 154.546255 122.86597 
L 167.930687 97.261517 
L 188.007355 66.868365 
L 195.536101 59.232618 
L 206.829224 56.220891 
L 223.768904 64.459783 
L 249.178429 84.56351 
L 287.292701 108.651153 
L 315.87842 121.2829 
L 344.464139 130.687327 
L 387.342708 140.964921 
L 451.660561 151.004144 
L 475.779736 153.925593 
L 511.958539 157.307073 
L 566.226722 160.956907 
L 647.629018 164.628583 
L 769.73246 167.806049 
L 815.521217 168.63869 
L 884.204431 169.41215 
L 987.229212 170.221457 
L 1025.863465 170.516027 
L 1083.814925 170.710131 
L 1106.92 170.738534 
" clip-path="url(#p3e99926925)" style="fill: none; stroke: #377eb8; stroke-width: 1.5; stroke-linecap: square"/>
   </g>
   <g id="patch_3">
    <path d="M 69.514971 509.233371 
L 69.514971 34.648869 
" style="fill: none; stroke: #000000; stroke-width: 0.8; stroke-linejoin: miter; stroke-linecap: square"/>
   </g>
   <g id="patch_4">
    <path d="M 1072.215771 509.233371 
L 1072.215771 34.648869 
" style="fill: none; stroke: #000000; stroke-width: 0.8; stroke-linejoin: miter; stroke-linecap: square"/>
   </g>
   <g id="patch_5">
    <path d="M 69.514971 509.233371 
L 1072.215771 509.233371 
" style="fill: none; stroke: #000000; stroke-width: 0.8; stroke-linejoin: miter; stroke-linecap: square"/>
   </g>
   <g id="patch_6">
    <path d="M 69.514971 34.648869 
L 1072.215771 34.648869 
" style="fill: none; stroke: #000000; stroke-width: 0.8; stroke-linejoin: miter; stroke-linecap: square"/>
   </g>
   <g id="text_17">
    <!-- 线性混凝土本构模型由不同的方式定义 -->
    <g transform="translate(468.865371 28.648869) scale(0.12 -0.12)">
     <defs>
      <path id="MicrosoftYaHei-7ebf" d="M 1969 -347 
Q 3144 75 4003 631 
Q 3781 1197 3653 1972 
L 2319 1784 
L 2244 2234 
L 3591 2422 
Q 3538 2859 3513 3356 
L 2381 3228 
L 2306 3678 
L 3488 3809 
Q 3453 4459 3425 5303 
L 3938 5303 
Q 3953 4497 3978 3866 
L 6069 4103 
L 6125 3659 
L 3997 3413 
Q 4019 2919 4069 2488 
L 6225 2791 
L 6281 2347 
L 4128 2041 
Q 4234 1394 4416 916 
Q 5078 1416 5519 2009 
L 5925 1703 
Q 5363 1025 4619 475 
Q 4859 44 5194 -184 
Q 5606 -428 5725 66 
Q 5806 466 5856 953 
Q 6144 828 6338 772 
Q 6231 97 6125 -247 
Q 5944 -778 5506 -778 
Q 5050 -778 4663 -403 
Q 4409 -163 4209 194 
Q 3350 -363 2281 -772 
Q 2169 -597 1969 -347 
z
M 900 1541 
Q 1456 1622 2213 1753 
Q 2175 1522 2156 1272 
Q 1113 1109 325 978 
L 225 1447 
Q 659 1913 1178 2775 
Q 672 2747 225 2703 
L 106 3128 
Q 688 3922 1300 5353 
L 1775 5166 
Q 1131 3897 669 3166 
Q 1041 3178 1422 3194 
Q 1638 3578 1869 4028 
L 2331 3797 
Q 1569 2478 900 1541 
z
M 106 97 
Q 1206 334 2331 616 
Q 2313 366 2313 141 
Q 1269 -103 244 -378 
L 106 97 
z
M 4463 4972 
L 4731 5284 
Q 5175 5003 5681 4609 
L 5381 4247 
Q 4863 4691 4463 4972 
z
" transform="scale(0.015625)"/>
      <path id="MicrosoftYaHei-6027" d="M 1963 -153 
L 3988 -153 
L 3988 1522 
L 2375 1522 
L 2375 1959 
L 3988 1959 
L 3988 3472 
L 2975 3472 
Q 2744 2878 2438 2291 
Q 2169 2509 2019 2578 
Q 2644 3709 2894 4891 
L 3388 4759 
Q 3281 4328 3138 3909 
L 3988 3909 
L 3988 5284 
L 4481 5284 
L 4481 3909 
L 6125 3909 
L 6125 3472 
L 4481 3472 
L 4481 1959 
L 6000 1959 
L 6000 1522 
L 4481 1522 
L 4481 -153 
L 6319 -153 
L 6319 -591 
L 1963 -591 
L 1963 -153 
z
M 988 5291 
L 1469 5291 
L 1469 4091 
L 1738 4241 
Q 2063 3734 2294 3291 
L 1906 3041 
Q 1688 3503 1469 3859 
L 1469 -872 
L 988 -872 
L 988 5291 
z
M 406 3878 
L 819 3784 
Q 706 3028 506 2178 
Q 338 2241 75 2297 
Q 263 2978 406 3878 
z
" transform="scale(0.015625)"/>
      <path id="MicrosoftYaHei-6df7" d="M 2450 2303 
L 1975 2303 
L 1975 5003 
L 5750 5003 
L 5750 2266 
L 5275 2266 
L 5275 2522 
L 2450 2522 
L 2450 2303 
z
M 3988 2191 
L 4450 2191 
L 4450 1175 
Q 5247 1603 5850 2022 
L 6150 1609 
Q 5516 1222 4450 672 
L 4450 203 
Q 4450 -197 4800 -197 
L 5256 -197 
Q 5563 -197 5625 9 
Q 5719 328 5794 903 
Q 6019 803 6263 728 
Q 6138 59 6069 -178 
Q 5944 -672 5313 -672 
L 4738 -672 
Q 3988 -672 3988 109 
L 3988 2191 
z
M 3738 391 
Q 3731 122 3738 -84 
Q 3050 -359 2600 -553 
Q 2331 -672 2150 -797 
L 1869 -391 
Q 2025 -309 2025 34 
L 2025 2141 
L 2488 2141 
L 2488 1528 
L 3788 1528 
L 3788 1091 
L 2488 1091 
L 2488 -97 
Q 3100 134 3738 391 
z
M 5275 4572 
L 2450 4572 
L 2450 3978 
L 5275 3978 
L 5275 4572 
z
M 2450 2953 
L 5275 2953 
L 5275 3547 
L 2450 3547 
L 2450 2953 
z
M 981 1853 
Q 1244 1734 1494 1634 
Q 1200 616 763 -766 
L 231 -566 
Q 669 603 981 1853 
z
M 406 3647 
Q 1031 3266 1531 2884 
Q 1438 2791 1194 2472 
Q 750 2847 100 3291 
L 406 3647 
z
M 650 5209 
Q 1419 4684 1763 4416 
Q 1569 4191 1425 4022 
Q 881 4484 356 4866 
L 650 5209 
z
" transform="scale(0.015625)"/>
      <path id="MicrosoftYaHei-51dd" d="M 5525 2041 
L 5744 2591 
L 5100 2591 
L 5100 1534 
L 6056 1534 
L 6056 1134 
L 5100 1134 
L 5100 -147 
Q 5494 -216 6250 -147 
Q 6181 -366 6106 -616 
Q 5719 -634 5306 -616 
Q 4413 -597 3969 178 
Q 3781 -434 3388 -878 
Q 3175 -666 3019 -553 
Q 3700 116 3713 1334 
Q 3725 1691 3725 2053 
L 4138 2053 
Q 4138 1178 4094 809 
Q 4331 284 4681 34 
L 4681 2591 
L 3563 2591 
L 3563 2991 
L 4844 2991 
Q 4475 3384 3938 3903 
L 4250 4172 
Q 4550 3891 4869 3591 
L 5563 4509 
L 3706 4509 
L 3706 4928 
L 6069 4928 
L 6069 4478 
L 5175 3303 
Q 5250 3234 5325 3166 
L 5144 2991 
L 6169 2991 
L 6169 2559 
L 5906 1922 
Q 5725 1997 5525 2041 
z
M 1256 1384 
L 2188 1384 
Q 2231 1703 2238 2116 
L 1831 2116 
Q 1700 1822 1544 1578 
Q 1381 1691 1188 1772 
Q 1581 2397 1731 2991 
L 2125 2878 
Q 2063 2684 1994 2509 
L 3388 2509 
L 3388 2116 
L 2650 2116 
Q 2644 1709 2606 1384 
L 3444 1384 
L 3444 991 
L 2550 991 
Q 2531 884 2506 791 
Q 2938 397 3256 91 
L 2944 -209 
Q 2669 84 2369 384 
Q 2088 -253 1369 -853 
Q 1250 -659 1081 -453 
Q 1925 178 2113 991 
L 1256 991 
L 1256 1384 
z
M 1500 5228 
L 1925 5228 
L 1925 4503 
Q 2638 4691 3244 4934 
L 3413 4541 
Q 2631 4272 1925 4109 
L 1925 3809 
Q 1925 3472 2250 3472 
L 2613 3472 
Q 2963 3472 3019 3722 
Q 3063 3941 3094 4197 
Q 3175 4159 3513 4022 
Q 3469 3797 3413 3572 
Q 3300 3066 2706 3066 
L 2156 3066 
Q 1500 3066 1500 3759 
L 1500 5228 
z
M 650 2441 
Q 938 2328 1138 2272 
Q 925 1291 575 -453 
L 88 -228 
Q 413 941 650 2441 
z
M 556 4878 
Q 944 4134 1244 3453 
L 781 3191 
Q 488 3997 156 4666 
L 556 4878 
z
" transform="scale(0.015625)"/>
      <path id="MicrosoftYaHei-571f" d="M 144 97 
L 2919 97 
L 2919 2722 
L 594 2722 
L 594 3234 
L 2919 3234 
L 2919 5266 
L 3481 5266 
L 3481 3234 
L 5825 3234 
L 5825 2722 
L 3481 2722 
L 3481 97 
L 6263 97 
L 6263 -403 
L 144 -403 
L 144 97 
z
" transform="scale(0.015625)"/>
      <path id="MicrosoftYaHei-672c" d="M 6281 803 
Q 6119 641 5856 366 
Q 4344 1531 3444 3353 
L 3444 878 
L 4875 878 
L 4875 441 
L 3444 441 
L 3444 -841 
L 2956 -841 
L 2956 441 
L 1475 441 
L 1475 878 
L 2956 878 
L 2956 3353 
Q 2159 1766 513 291 
Q 269 522 100 666 
Q 1878 2125 2759 3753 
L 238 3753 
L 238 4216 
L 2956 4216 
L 2956 5341 
L 3444 5341 
L 3444 4216 
L 6163 4216 
L 6163 3753 
L 3622 3753 
Q 4616 1884 6281 803 
z
" transform="scale(0.015625)"/>
      <path id="MicrosoftYaHei-6784" d="M 2138 3059 
Q 2838 4047 3256 5309 
L 3738 5153 
Q 3556 4722 3388 4347 
L 6081 4347 
Q 5994 1153 5956 397 
Q 5925 -259 5656 -503 
Q 5400 -747 4731 -747 
Q 4238 -747 3700 -716 
Q 3663 -466 3594 -166 
Q 4213 -234 4713 -247 
Q 5144 -253 5294 -97 
Q 5450 34 5469 472 
Q 5513 1316 5575 3891 
L 3169 3891 
Q 2838 3241 2525 2797 
Q 2369 2916 2138 3059 
z
M 81 1359 
Q 731 2372 1000 3578 
L 125 3578 
L 125 3997 
L 1006 3997 
L 1006 5234 
L 1438 5234 
L 1438 3997 
L 2250 3997 
L 2250 3578 
L 1438 3578 
L 1438 2734 
L 1613 2916 
Q 2038 2528 2494 2091 
L 2163 1747 
Q 1775 2191 1438 2516 
L 1438 -834 
L 1006 -834 
L 1006 2384 
Q 700 1409 281 809 
Q 200 1078 81 1359 
z
M 3925 2253 
L 4306 2453 
Q 4763 1666 5250 734 
L 4806 497 
Q 4731 666 4650 834 
Q 3838 784 3050 722 
Q 2856 703 2500 628 
L 2288 1078 
Q 2488 1216 2625 1416 
Q 3138 2222 3638 3397 
L 4106 3203 
Q 3738 2391 2981 1172 
Q 3881 1197 4463 1222 
Q 4213 1741 3925 2253 
z
" transform="scale(0.015625)"/>
      <path id="MicrosoftYaHei-6a21" d="M 2050 984 
L 3859 984 
Q 3900 1213 3913 1547 
L 2950 1547 
L 2950 1372 
L 2500 1372 
L 2500 3634 
L 5844 3634 
L 5844 1372 
L 5394 1372 
L 5394 1547 
L 4344 1547 
Q 4325 1203 4288 984 
L 6250 984 
L 6250 584 
L 4525 584 
Q 5203 -175 6319 -341 
Q 6144 -572 6013 -809 
Q 4803 -456 4128 466 
Q 3681 -431 2075 -847 
Q 1969 -628 1831 -416 
Q 3303 -106 3713 584 
L 2050 584 
L 2050 984 
z
M 63 1409 
Q 603 2316 922 3509 
L 138 3509 
L 138 3922 
L 1006 3922 
L 1006 5309 
L 1444 5309 
L 1444 3922 
L 2256 3922 
L 2256 3509 
L 1444 3509 
L 1444 2684 
L 1688 2884 
Q 2044 2503 2350 2116 
L 2006 1828 
Q 1719 2244 1444 2563 
L 1444 -822 
L 1006 -822 
L 1006 2581 
Q 672 1438 275 859 
Q 188 1128 63 1409 
z
M 4713 5303 
L 5150 5303 
L 5150 4703 
L 6225 4703 
L 6225 4303 
L 5150 4303 
L 5150 3797 
L 4713 3797 
L 4713 4303 
L 3600 4303 
L 3600 3797 
L 3163 3797 
L 3163 4303 
L 2175 4303 
L 2175 4703 
L 3163 4703 
L 3163 5309 
L 3600 5309 
L 3600 4703 
L 4713 4703 
L 4713 5303 
z
M 5394 3247 
L 2950 3247 
L 2950 2778 
L 5394 2778 
L 5394 3247 
z
M 2950 1934 
L 5394 1934 
L 5394 2403 
L 2950 2403 
L 2950 1934 
z
" transform="scale(0.015625)"/>
      <path id="MicrosoftYaHei-578b" d="M 150 3503 
L 1100 3503 
Q 1106 3638 1106 4547 
L 413 4547 
L 413 4959 
L 3675 4959 
L 3675 4547 
L 2994 4547 
L 2994 3503 
L 3881 3503 
L 3881 3091 
L 2994 3091 
L 2994 1747 
L 2538 1747 
L 2538 3091 
L 1528 3091 
Q 1450 2191 638 1534 
Q 475 1716 294 1897 
Q 1013 2453 1066 3091 
L 150 3091 
L 150 3503 
z
M 138 -103 
L 2938 -103 
L 2938 741 
L 706 741 
L 706 1172 
L 2938 1172 
L 2938 1659 
L 3425 1659 
L 3425 1172 
L 5713 1172 
L 5713 741 
L 3425 741 
L 3425 -103 
L 6256 -103 
L 6256 -534 
L 138 -534 
L 138 -103 
z
M 5856 5209 
L 5856 2334 
Q 5856 1672 5200 1659 
Q 4825 1647 4331 1659 
Q 4306 1897 4256 2153 
Q 4781 2122 5044 2122 
Q 5400 2122 5400 2516 
L 5400 5209 
L 5856 5209 
z
M 1556 3503 
L 2538 3503 
L 2538 4547 
L 1563 4547 
Q 1563 3791 1556 3503 
z
M 4138 4859 
L 4588 4859 
L 4588 2697 
L 4138 2697 
L 4138 4859 
z
" transform="scale(0.015625)"/>
      <path id="MicrosoftYaHei-7531" d="M 638 -734 
L 638 4141 
L 2950 4141 
L 2950 5328 
L 3475 5328 
L 3475 4141 
L 5788 4141 
L 5788 -734 
L 5275 -734 
L 5275 -372 
L 1150 -372 
L 1150 -734 
L 638 -734 
z
M 1150 91 
L 2950 91 
L 2950 1678 
L 1150 1678 
L 1150 91 
z
M 3475 91 
L 5275 91 
L 5275 1678 
L 3475 1678 
L 3475 91 
z
M 1150 2128 
L 2950 2128 
L 2950 3678 
L 1150 3678 
L 1150 2128 
z
M 5275 3678 
L 3475 3678 
L 3475 2128 
L 5275 2128 
L 5275 3678 
z
" transform="scale(0.015625)"/>
      <path id="MicrosoftYaHei-4e0d" d="M 225 4772 
L 6181 4772 
L 6181 4284 
L 3881 4284 
Q 3581 3766 3081 3053 
L 3444 3053 
L 3444 -866 
L 2906 -866 
L 2906 2859 
Q 1838 1541 388 609 
Q 231 834 38 1059 
Q 2006 2291 3213 4284 
L 225 4284 
L 225 4772 
z
M 4069 2859 
Q 5238 2147 6325 1409 
L 5969 916 
Q 4681 1872 3763 2434 
L 4069 2859 
z
" transform="scale(0.015625)"/>
      <path id="MicrosoftYaHei-540c" d="M 1013 -772 
L 531 -772 
L 531 4959 
L 5856 4959 
L 5856 -47 
Q 5856 -741 5125 -741 
Q 4669 -741 4088 -716 
Q 4056 -497 4000 -216 
Q 4619 -272 5025 -272 
Q 5375 -272 5375 78 
L 5375 4497 
L 1013 4497 
L 1013 -772 
z
M 1875 2566 
L 4506 2566 
L 4506 597 
L 2338 597 
L 2338 272 
L 1875 272 
L 1875 2566 
z
M 4044 2116 
L 2338 2116 
L 2338 1047 
L 4044 1047 
L 4044 2116 
z
M 1363 3734 
L 5025 3734 
L 5025 3284 
L 1363 3284 
L 1363 3734 
z
" transform="scale(0.015625)"/>
      <path id="MicrosoftYaHei-7684" d="M 356 4284 
L 988 4284 
Q 1219 4853 1369 5322 
L 1894 5172 
Q 1697 4694 1513 4284 
L 2763 4284 
L 2763 -691 
L 2263 -691 
L 2263 -203 
L 856 -203 
L 856 -734 
L 356 -734 
L 356 4284 
z
M 2856 3003 
Q 3444 3934 3850 5322 
L 4375 5191 
Q 4216 4719 4050 4303 
L 6063 4303 
Q 5988 1091 5938 259 
Q 5894 -722 4906 -722 
Q 4338 -722 3750 -684 
Q 3713 -372 3650 -128 
L 3669 -128 
Q 4294 -216 4813 -216 
Q 5381 -216 5425 384 
Q 5494 1316 5525 3834 
L 3850 3834 
Q 3578 3231 3288 2772 
Q 3119 2891 2856 3003 
z
M 856 266 
L 2263 266 
L 2263 1847 
L 856 1847 
L 856 266 
z
M 2263 3816 
L 856 3816 
L 856 2297 
L 2263 2297 
L 2263 3816 
z
M 3406 2578 
L 3788 2859 
Q 4481 2041 4894 1441 
L 4431 1116 
Q 3988 1841 3406 2578 
z
" transform="scale(0.015625)"/>
      <path id="MicrosoftYaHei-65b9" d="M 194 4241 
L 3194 4241 
Q 2878 4841 2700 5116 
L 3188 5347 
Q 3363 5078 3713 4472 
L 3256 4241 
L 6219 4241 
L 6219 3766 
L 2428 3766 
Q 2406 3197 2381 2797 
L 5400 2797 
Q 5325 1441 5238 441 
Q 5169 -691 4138 -691 
Q 3663 -691 2869 -641 
Q 2838 -403 2775 -66 
Q 3569 -172 4063 -172 
Q 4638 -172 4706 509 
Q 4781 1253 4838 2328 
L 2347 2328 
Q 2172 266 438 -872 
Q 269 -672 56 -447 
Q 1706 641 1825 2466 
Q 1869 2959 1897 3766 
L 194 3766 
L 194 4241 
z
" transform="scale(0.015625)"/>
      <path id="MicrosoftYaHei-5f0f" d="M 94 4122 
L 3569 4122 
Q 3544 4700 3531 5347 
L 4063 5347 
Q 4059 4728 4081 4122 
L 6231 4122 
L 6231 3653 
L 4103 3653 
Q 4225 503 5156 -172 
Q 5494 -447 5631 -22 
Q 5725 303 5800 941 
Q 6094 834 6306 778 
Q 6188 47 6050 -403 
Q 5900 -834 5475 -834 
Q 5044 -834 4619 -397 
Q 3725 553 3597 3653 
L 94 3653 
L 94 4122 
z
M 119 159 
Q 825 244 1569 344 
L 1569 2097 
L 350 2097 
L 350 2566 
L 3288 2566 
L 3288 2097 
L 2081 2097 
L 2081 416 
Q 2809 519 3575 634 
Q 3563 391 3563 128 
Q 1681 -141 244 -366 
L 119 159 
z
M 4544 4978 
L 4844 5297 
Q 5294 4972 5756 4559 
L 5400 4191 
Q 5000 4597 4544 4978 
z
" transform="scale(0.015625)"/>
      <path id="MicrosoftYaHei-5b9a" d="M 81 -384 
Q 1119 509 1281 2241 
L 1806 2159 
Q 1731 1581 1578 1081 
Q 2063 50 3081 -103 
L 3081 2647 
L 225 2647 
L 225 3116 
L 6163 3116 
L 6163 2647 
L 3600 2647 
L 3600 1634 
L 5775 1634 
L 5775 1172 
L 3600 1172 
L 3600 -138 
Q 4844 -169 6306 -116 
Q 6200 -359 6125 -634 
Q 4594 -653 3450 -616 
Q 2041 -616 1378 528 
Q 1022 -300 413 -872 
Q 269 -628 81 -384 
z
M 450 4566 
L 3116 4566 
Q 2931 4834 2725 5091 
L 3200 5347 
Q 3444 5066 3731 4716 
L 3450 4566 
L 5981 4566 
L 5981 3378 
L 5488 3378 
L 5488 4097 
L 944 4097 
L 944 3384 
L 450 3384 
L 450 4566 
z
" transform="scale(0.015625)"/>
      <path id="MicrosoftYaHei-4e49" d="M 4869 4891 
L 5406 4791 
Q 4991 2394 3603 966 
Q 4563 209 6325 -197 
Q 6056 -516 5888 -741 
Q 4113 -163 3203 594 
Q 2275 -166 444 -816 
Q 306 -584 100 -328 
Q 1938 216 2825 950 
Q 1553 2241 956 4703 
L 1444 4891 
Q 1981 2575 3213 1316 
Q 4588 2750 4869 4891 
z
M 2500 5128 
L 2956 5347 
Q 3431 4547 3750 3859 
L 3263 3597 
Q 2881 4441 2500 5128 
z
" transform="scale(0.015625)"/>
     </defs>
     <use xlink:href="#MicrosoftYaHei-7ebf"/>
     <use xlink:href="#MicrosoftYaHei-6027" x="100"/>
     <use xlink:href="#MicrosoftYaHei-6df7" x="200"/>
     <use xlink:href="#MicrosoftYaHei-51dd" x="300"/>
     <use xlink:href="#MicrosoftYaHei-571f" x="400"/>
     <use xlink:href="#MicrosoftYaHei-672c" x="500"/>
     <use xlink:href="#MicrosoftYaHei-6784" x="600"/>
     <use xlink:href="#MicrosoftYaHei-6a21" x="700"/>
     <use xlink:href="#MicrosoftYaHei-578b" x="800"/>
     <use xlink:href="#MicrosoftYaHei-7531" x="900"/>
     <use xlink:href="#MicrosoftYaHei-4e0d" x="1000"/>
     <use xlink:href="#MicrosoftYaHei-540c" x="1100"/>
     <use xlink:href="#MicrosoftYaHei-7684" x="1200"/>
     <use xlink:href="#MicrosoftYaHei-65b9" x="1300"/>
     <use xlink:href="#MicrosoftYaHei-5f0f" x="1400"/>
     <use xlink:href="#MicrosoftYaHei-5b9a" x="1500"/>
     <use xlink:href="#MicrosoftYaHei-4e49" x="1600"/>
    </g>
   </g>
   <g id="legend_1">
    <g id="patch_7">
     <path d="M 883.215771 73.608244 
L 1065.215771 73.608244 
Q 1067.215771 73.608244 1067.215771 71.608244 
L 1067.215771 41.648869 
Q 1067.215771 39.648869 1065.215771 39.648869 
L 883.215771 39.648869 
Q 881.215771 39.648869 881.215771 41.648869 
L 881.215771 71.608244 
Q 881.215771 73.608244 883.215771 73.608244 
z
" style="fill: #ffffff; opacity: 0.8; stroke: #cccccc; stroke-linejoin: miter"/>
    </g>
    <g id="line2d_17">
     <path d="M 885.215771 48.142619 
L 895.215771 48.142619 
L 905.215771 48.142619 
" style="fill: none; stroke: #e41a1c; stroke-width: 1.5; stroke-linecap: square"/>
    </g>
    <g id="text_18">
     <!-- 线弹性阶段由弹性定义 -->
     <g transform="translate(913.215771 51.642619) scale(0.1 -0.1)">
      <defs>
       <path id="MicrosoftYaHei-5f39" d="M 2950 5084 
L 3325 5341 
Q 3631 4997 3956 4534 
L 3584 4284 
L 4494 4284 
Q 4834 4828 5119 5341 
L 5581 5072 
Q 5325 4697 5028 4284 
L 6006 4284 
L 6006 1309 
L 5569 1309 
L 5569 1528 
L 4506 1528 
L 4506 759 
L 6319 759 
L 6319 341 
L 4506 341 
L 4506 -834 
L 4056 -834 
L 4056 341 
L 2213 341 
L 2213 759 
L 4056 759 
L 4056 1528 
L 2994 1528 
L 2994 1309 
L 2556 1309 
L 2556 4284 
L 3509 4284 
Q 3266 4684 2950 5084 
z
M 156 4972 
L 1969 4972 
L 1969 2859 
L 1531 2859 
L 1531 3072 
L 831 3072 
L 731 1997 
L 1956 1997 
Q 1944 1103 1906 241 
Q 1863 -703 1063 -703 
Q 844 -703 281 -691 
Q 244 -453 175 -197 
Q 750 -241 981 -241 
Q 1425 -241 1444 272 
Q 1481 966 1494 1572 
L 250 1572 
L 431 3497 
L 1531 3497 
L 1531 4547 
L 156 4547 
L 156 4972 
z
M 4506 1947 
L 5569 1947 
L 5569 2703 
L 4506 2703 
L 4506 1947 
z
M 2994 3866 
L 2994 3109 
L 4056 3109 
L 4056 3866 
L 2994 3866 
z
M 5569 3866 
L 4506 3866 
L 4506 3109 
L 5569 3109 
L 5569 3866 
z
M 2994 1947 
L 4056 1947 
L 4056 2703 
L 2994 2703 
L 2994 1947 
z
" transform="scale(0.015625)"/>
       <path id="MicrosoftYaHei-9636" d="M 2213 1816 
Q 2388 616 1644 484 
Q 1406 441 1031 478 
Q 981 734 913 991 
Q 1206 916 1475 941 
Q 1894 991 1744 1797 
Q 1669 2222 1188 2853 
Q 1419 3616 1688 4578 
L 863 4578 
L 863 -853 
L 400 -853 
L 400 5016 
L 2194 5016 
L 2194 4578 
Q 1906 3672 1663 2934 
Q 2144 2284 2213 1816 
z
M 3469 2834 
L 3469 1841 
Q 3469 78 2450 -897 
Q 2269 -734 2031 -572 
Q 2994 297 2994 1859 
L 2994 2834 
L 3469 2834 
z
M 4806 2834 
L 5281 2834 
L 5281 -822 
L 4806 -822 
L 4806 2834 
z
M 4475 5278 
L 4388 5078 
Q 5169 3653 6338 3134 
Q 6175 2947 5994 2697 
Q 4856 3384 4144 4634 
Q 3494 3472 2356 2609 
Q 2206 2828 2031 3003 
Q 3244 3809 3981 5278 
L 4475 5278 
z
" transform="scale(0.015625)"/>
       <path id="MicrosoftYaHei-6bb5" d="M 2844 1978 
L 2844 2422 
L 5763 2422 
L 5763 1953 
Q 5397 1069 4731 416 
Q 5378 -63 6338 -266 
Q 6144 -516 6019 -747 
Q 5031 -456 4359 88 
Q 3638 -488 2631 -853 
Q 2450 -559 2331 -422 
Q 3313 -75 3997 428 
Q 3400 1069 3138 1978 
L 2844 1978 
z
M 88 722 
Q 325 744 569 769 
L 569 4897 
Q 1931 4972 2719 5116 
L 2888 4653 
Q 2175 4559 1031 4484 
L 1031 3616 
L 2613 3616 
L 2613 3203 
L 1031 3203 
L 1031 2259 
L 2594 2259 
L 2594 1847 
L 1031 1847 
L 1031 819 
Q 1891 916 2838 1041 
Q 2831 916 2831 591 
Q 1894 484 1031 366 
L 1031 -816 
L 569 -816 
L 569 303 
Q 381 275 200 247 
L 88 722 
z
M 5738 3209 
Q 5981 3209 6306 3228 
L 6219 2759 
Q 5906 2747 5625 2747 
Q 4988 2747 4988 3459 
L 4988 4553 
L 3831 4553 
L 3831 4216 
Q 3831 3053 2938 2522 
Q 2781 2709 2600 2909 
Q 3363 3272 3363 4241 
L 3363 4997 
L 5456 4997 
L 5456 3497 
Q 5456 3209 5738 3209 
z
M 5256 1978 
L 3613 1978 
Q 3863 1241 4363 731 
Q 4956 1275 5256 1978 
z
" transform="scale(0.015625)"/>
      </defs>
      <use xlink:href="#MicrosoftYaHei-7ebf"/>
      <use xlink:href="#MicrosoftYaHei-5f39" x="100"/>
      <use xlink:href="#MicrosoftYaHei-6027" x="200"/>
      <use xlink:href="#MicrosoftYaHei-9636" x="300"/>
      <use xlink:href="#MicrosoftYaHei-6bb5" x="400"/>
      <use xlink:href="#MicrosoftYaHei-7531" x="500"/>
      <use xlink:href="#MicrosoftYaHei-5f39" x="600"/>
      <use xlink:href="#MicrosoftYaHei-6027" x="700"/>
      <use xlink:href="#MicrosoftYaHei-5b9a" x="800"/>
      <use xlink:href="#MicrosoftYaHei-4e49" x="900"/>
     </g>
    </g>
    <g id="line2d_18">
     <path d="M 885.215771 63.622306 
L 895.215771 63.622306 
L 905.215771 63.622306 
" style="fill: none; stroke: #377eb8; stroke-width: 1.5; stroke-linecap: square"/>
    </g>
    <g id="text_19">
     <!-- 线弹性阶段由混凝土损伤塑性定义 -->
     <g transform="translate(913.215771 67.122306) scale(0.1 -0.1)">
      <defs>
       <path id="MicrosoftYaHei-635f" d="M 2688 5041 
L 5756 5041 
L 5756 3134 
L 5300 3134 
L 5300 3316 
L 3144 3316 
L 3144 3147 
L 2688 3147 
L 2688 5041 
z
M 88 1947 
Q 544 2053 969 2159 
L 969 3622 
L 144 3622 
L 144 4072 
L 969 4072 
L 969 5278 
L 1431 5278 
L 1431 4072 
L 2250 4072 
L 2250 3622 
L 1431 3622 
L 1431 2284 
Q 1825 2391 2188 2497 
Q 2200 2222 2231 2028 
Q 1881 1934 1431 1803 
L 1431 -72 
Q 1431 -766 881 -778 
Q 588 -784 219 -772 
Q 194 -516 138 -278 
Q 525 -322 706 -322 
Q 969 -322 969 9 
L 969 1666 
Q 588 1553 150 1422 
L 88 1947 
z
M 2431 2734 
L 5994 2734 
L 5994 472 
L 5538 472 
L 5538 2316 
L 2888 2316 
L 2888 459 
L 2431 459 
L 2431 2734 
z
M 4456 2034 
Q 4456 1253 4331 791 
Q 5356 203 6288 -422 
L 5938 -841 
Q 5169 -241 4150 359 
Q 3619 -547 2081 -872 
Q 1988 -691 1794 -397 
Q 3569 -134 3875 953 
Q 3975 1297 3975 2034 
L 4456 2034 
z
M 5300 4622 
L 3144 4622 
L 3144 3734 
L 5300 3734 
L 5300 4622 
z
" transform="scale(0.015625)"/>
       <path id="MicrosoftYaHei-4f24" d="M 2125 2747 
L 3441 2747 
Q 3453 3234 3450 3734 
L 3956 3734 
Q 3956 3238 3941 2747 
L 6000 2747 
Q 5969 1534 5925 541 
Q 5894 -159 5650 -428 
Q 5419 -691 4813 -684 
Q 4388 -684 3869 -659 
Q 3838 -416 3775 -116 
Q 4344 -178 4756 -184 
Q 5119 -197 5263 -41 
Q 5394 116 5425 591 
Q 5469 1484 5481 2291 
L 3925 2291 
Q 3866 1291 3550 672 
Q 3100 -166 2106 -809 
Q 1956 -609 1744 -397 
Q 2675 222 3088 922 
Q 3381 1453 3428 2291 
L 2125 2291 
L 2125 2747 
z
M 69 2191 
Q 931 3472 1456 5278 
L 1969 5128 
Q 1728 4409 1469 3791 
L 1469 -816 
L 975 -816 
L 975 2744 
Q 650 2131 294 1647 
Q 200 1916 69 2191 
z
M 1800 3159 
Q 2656 4116 3113 5309 
L 3588 5128 
Q 3441 4781 3275 4459 
L 6275 4459 
L 6275 4003 
L 3022 4003 
Q 2638 3347 2169 2816 
Q 1988 3009 1800 3159 
z
" transform="scale(0.015625)"/>
       <path id="MicrosoftYaHei-5851" d="M 3675 4922 
L 5888 4922 
L 5888 2078 
Q 5888 1391 5250 1391 
Q 5019 1384 4481 1384 
Q 4475 1422 4406 1866 
Q 4781 1847 5175 1847 
Q 5438 1847 5438 2147 
L 5438 2484 
L 3975 2484 
Q 3788 1834 3175 1291 
Q 3019 1466 2800 1628 
Q 3331 2041 3506 2534 
Q 3675 2991 3675 4078 
L 3675 4922 
z
M 2756 2216 
L 2756 2384 
L 1975 2384 
Q 1794 1672 888 1059 
Q 775 1241 600 1441 
Q 1300 1834 1513 2384 
L 594 2384 
L 594 3678 
L 994 3678 
L 994 2784 
L 1613 2784 
Q 1675 3122 1669 3934 
L 313 3934 
L 313 4334 
L 1213 4334 
Q 950 4759 731 5028 
L 1075 5259 
Q 1275 5028 1600 4584 
L 1244 4334 
L 2081 4334 
Q 2394 4859 2594 5291 
L 3031 5097 
Q 2844 4816 2506 4334 
L 3413 4334 
L 3413 3934 
L 2094 3934 
Q 2100 3134 2050 2784 
L 2756 2784 
L 2756 3697 
L 3156 3697 
L 3156 2216 
L 2756 2216 
z
M 138 -166 
L 2994 -166 
L 2994 516 
L 919 516 
L 919 928 
L 2994 928 
L 2994 1278 
L 3456 1278 
L 3456 928 
L 5481 928 
L 5481 516 
L 3456 516 
L 3456 -166 
L 6275 -166 
L 6275 -578 
L 138 -578 
L 138 -166 
z
M 4056 2872 
L 5438 2872 
L 5438 3503 
L 4113 3503 
Q 4094 3147 4056 2872 
z
M 5438 4522 
L 4125 4522 
L 4125 3891 
L 5438 3891 
L 5438 4522 
z
" transform="scale(0.015625)"/>
      </defs>
      <use xlink:href="#MicrosoftYaHei-7ebf"/>
      <use xlink:href="#MicrosoftYaHei-5f39" x="100"/>
      <use xlink:href="#MicrosoftYaHei-6027" x="200"/>
      <use xlink:href="#MicrosoftYaHei-9636" x="300"/>
      <use xlink:href="#MicrosoftYaHei-6bb5" x="400"/>
      <use xlink:href="#MicrosoftYaHei-7531" x="500"/>
      <use xlink:href="#MicrosoftYaHei-6df7" x="600"/>
      <use xlink:href="#MicrosoftYaHei-51dd" x="700"/>
      <use xlink:href="#MicrosoftYaHei-571f" x="800"/>
      <use xlink:href="#MicrosoftYaHei-635f" x="900"/>
      <use xlink:href="#MicrosoftYaHei-4f24" x="1000"/>
      <use xlink:href="#MicrosoftYaHei-5851" x="1100"/>
      <use xlink:href="#MicrosoftYaHei-6027" x="1200"/>
      <use xlink:href="#MicrosoftYaHei-5b9a" x="1300"/>
      <use xlink:href="#MicrosoftYaHei-4e49" x="1400"/>
     </g>
    </g>
   </g>
  </g>
 </g>
 <defs>
  <clipPath id="p3e99926925">
   <rect x="69.514971" y="34.648869" width="1002.7008" height="474.584503"/>
  </clipPath>
 </defs>
</svg>
