<?xml version="1.0" encoding="utf-8" standalone="no"?>
<!DOCTYPE svg PUBLIC "-//W3C//DTD SVG 1.1//EN"
  "http://www.w3.org/Graphics/SVG/1.1/DTD/svg11.dtd">
<svg xmlns:xlink="http://www.w3.org/1999/xlink" width="1105.92pt" height="551.232pt" viewBox="0 0 1105.92 551.232" xmlns="http://www.w3.org/2000/svg" version="1.1">
 <metadata>
  <rdf:RDF xmlns:dc="http://purl.org/dc/elements/1.1/" xmlns:cc="http://creativecommons.org/ns#" xmlns:rdf="http://www.w3.org/1999/02/22-rdf-syntax-ns#">
   <cc:Work>
    <dc:type rdf:resource="http://purl.org/dc/dcmitype/StillImage"/>
    <dc:date>2023-05-27T19:43:02.651596</dc:date>
    <dc:format>image/svg+xml</dc:format>
    <dc:creator>
     <cc:Agent>
      <dc:title>Matplotlib v3.7.1, https://matplotlib.org/</dc:title>
     </cc:Agent>
    </dc:creator>
   </cc:Work>
  </rdf:RDF>
 </metadata>
 <defs>
  <style type="text/css">*{stroke-linejoin: round; stroke-linecap: butt}</style>
 </defs>
 <g id="figure_1">
  <g id="patch_1">
   <path d="M 0 551.232 
L 1105.92 551.232 
L 1105.92 0 
L 0 0 
z
" style="fill: #ffffff"/>
  </g>
  <g id="axes_1">
   <g id="patch_2">
    <path d="M 61.088914 517.633097 
L 1059.576686 517.633097 
L 1059.576686 30.449006 
L 61.088914 30.449006 
z
" style="fill: #ffffff"/>
   </g>
   <g id="matplotlib.axis_1">
    <g id="xtick_1">
     <g id="line2d_1">
      <defs>
       <path id="mf58273337f" d="M 0 0 
L 0 3.5 
" style="stroke: #000000; stroke-width: 0.8"/>
      </defs>
      <g>
       <use xlink:href="#mf58273337f" x="61.088914" y="517.633097" style="stroke: #000000; stroke-width: 0.8"/>
      </g>
     </g>
     <g id="text_1">
      <!-- 0.000 -->
      <g transform="translate(48.156883 532.626847) scale(0.1 -0.1)">
       <defs>
        <path id="MicrosoftYaHei-30" d="M 284 2325 
Q 284 3606 709 4264 
Q 1134 4922 1941 4922 
Q 3478 4922 3478 2441 
Q 3478 1216 3045 567 
Q 2613 -81 1831 -81 
Q 1094 -81 689 534 
Q 284 1150 284 2325 
z
M 909 2353 
Q 909 425 1888 425 
Q 2850 425 2850 2384 
Q 2850 4413 1906 4413 
Q 909 4413 909 2353 
z
" transform="scale(0.015625)"/>
        <path id="MicrosoftYaHei-2e" d="M 372 322 
Q 372 491 487 606 
Q 603 722 775 722 
Q 950 722 1065 605 
Q 1181 488 1181 322 
Q 1181 159 1065 42 
Q 950 -75 772 -75 
Q 600 -75 486 42 
Q 372 159 372 322 
z
" transform="scale(0.015625)"/>
       </defs>
       <use xlink:href="#MicrosoftYaHei-30"/>
       <use xlink:href="#MicrosoftYaHei-2e" x="58.642578"/>
       <use xlink:href="#MicrosoftYaHei-30" x="82.714844"/>
       <use xlink:href="#MicrosoftYaHei-30" x="141.357422"/>
       <use xlink:href="#MicrosoftYaHei-30" x="200"/>
      </g>
     </g>
    </g>
    <g id="xtick_2">
     <g id="line2d_2">
      <g>
       <use xlink:href="#mf58273337f" x="185.899886" y="517.633097" style="stroke: #000000; stroke-width: 0.8"/>
      </g>
     </g>
     <g id="text_2">
      <!-- 0.005 -->
      <g transform="translate(172.967854 532.626847) scale(0.1 -0.1)">
       <defs>
        <path id="MicrosoftYaHei-35" d="M 3294 1494 
Q 3294 784 2823 350 
Q 2353 -84 1559 -84 
Q 878 -84 544 119 
L 544 744 
Q 1034 425 1544 425 
Q 2050 425 2361 704 
Q 2672 984 2672 1447 
Q 2672 1909 2348 2167 
Q 2025 2425 1434 2425 
Q 978 2425 613 2384 
L 791 4841 
L 3053 4841 
L 3053 4303 
L 1306 4303 
L 1206 2931 
L 1647 2950 
Q 2416 2950 2855 2567 
Q 3294 2184 3294 1494 
z
" transform="scale(0.015625)"/>
       </defs>
       <use xlink:href="#MicrosoftYaHei-30"/>
       <use xlink:href="#MicrosoftYaHei-2e" x="58.642578"/>
       <use xlink:href="#MicrosoftYaHei-30" x="82.714844"/>
       <use xlink:href="#MicrosoftYaHei-30" x="141.357422"/>
       <use xlink:href="#MicrosoftYaHei-35" x="200"/>
      </g>
     </g>
    </g>
    <g id="xtick_3">
     <g id="line2d_3">
      <g>
       <use xlink:href="#mf58273337f" x="310.710857" y="517.633097" style="stroke: #000000; stroke-width: 0.8"/>
      </g>
     </g>
     <g id="text_3">
      <!-- 0.010 -->
      <g transform="translate(297.778826 532.626847) scale(0.1 -0.1)">
       <defs>
        <path id="MicrosoftYaHei-31" d="M 1781 0 
L 1781 4141 
Q 1638 3997 1295 3819 
Q 953 3641 663 3569 
L 663 4169 
Q 1047 4275 1484 4508 
Q 1922 4741 2156 4947 
L 2388 4947 
L 2388 0 
L 1781 0 
z
" transform="scale(0.015625)"/>
       </defs>
       <use xlink:href="#MicrosoftYaHei-30"/>
       <use xlink:href="#MicrosoftYaHei-2e" x="58.642578"/>
       <use xlink:href="#MicrosoftYaHei-30" x="82.714844"/>
       <use xlink:href="#MicrosoftYaHei-31" x="141.357422"/>
       <use xlink:href="#MicrosoftYaHei-30" x="200"/>
      </g>
     </g>
    </g>
    <g id="xtick_4">
     <g id="line2d_4">
      <g>
       <use xlink:href="#mf58273337f" x="435.521829" y="517.633097" style="stroke: #000000; stroke-width: 0.8"/>
      </g>
     </g>
     <g id="text_4">
      <!-- 0.015 -->
      <g transform="translate(422.589797 532.626847) scale(0.1 -0.1)">
       <use xlink:href="#MicrosoftYaHei-30"/>
       <use xlink:href="#MicrosoftYaHei-2e" x="58.642578"/>
       <use xlink:href="#MicrosoftYaHei-30" x="82.714844"/>
       <use xlink:href="#MicrosoftYaHei-31" x="141.357422"/>
       <use xlink:href="#MicrosoftYaHei-35" x="200"/>
      </g>
     </g>
    </g>
    <g id="xtick_5">
     <g id="line2d_5">
      <g>
       <use xlink:href="#mf58273337f" x="560.3328" y="517.633097" style="stroke: #000000; stroke-width: 0.8"/>
      </g>
     </g>
     <g id="text_5">
      <!-- 0.020 -->
      <g transform="translate(547.400769 532.626847) scale(0.1 -0.1)">
       <defs>
        <path id="MicrosoftYaHei-32" d="M 2666 3572 
Q 2666 3963 2419 4186 
Q 2172 4409 1747 4409 
Q 1447 4409 1140 4256 
Q 834 4103 569 3819 
L 569 4413 
Q 806 4659 1107 4790 
Q 1409 4922 1816 4922 
Q 2472 4922 2872 4570 
Q 3272 4219 3272 3619 
Q 3272 3084 3026 2693 
Q 2781 2303 2188 1894 
Q 1581 1475 1376 1294 
Q 1172 1113 1090 947 
Q 1009 781 1009 544 
L 3416 544 
L 3416 0 
L 372 0 
L 372 241 
Q 372 659 486 951 
Q 600 1244 862 1520 
Q 1125 1797 1681 2184 
Q 2250 2584 2458 2886 
Q 2666 3188 2666 3572 
z
" transform="scale(0.015625)"/>
       </defs>
       <use xlink:href="#MicrosoftYaHei-30"/>
       <use xlink:href="#MicrosoftYaHei-2e" x="58.642578"/>
       <use xlink:href="#MicrosoftYaHei-30" x="82.714844"/>
       <use xlink:href="#MicrosoftYaHei-32" x="141.357422"/>
       <use xlink:href="#MicrosoftYaHei-30" x="200"/>
      </g>
     </g>
    </g>
    <g id="xtick_6">
     <g id="line2d_6">
      <g>
       <use xlink:href="#mf58273337f" x="685.143771" y="517.633097" style="stroke: #000000; stroke-width: 0.8"/>
      </g>
     </g>
     <g id="text_6">
      <!-- 0.025 -->
      <g transform="translate(672.21174 532.626847) scale(0.1 -0.1)">
       <use xlink:href="#MicrosoftYaHei-30"/>
       <use xlink:href="#MicrosoftYaHei-2e" x="58.642578"/>
       <use xlink:href="#MicrosoftYaHei-30" x="82.714844"/>
       <use xlink:href="#MicrosoftYaHei-32" x="141.357422"/>
       <use xlink:href="#MicrosoftYaHei-35" x="200"/>
      </g>
     </g>
    </g>
    <g id="xtick_7">
     <g id="line2d_7">
      <g>
       <use xlink:href="#mf58273337f" x="809.954743" y="517.633097" style="stroke: #000000; stroke-width: 0.8"/>
      </g>
     </g>
     <g id="text_7">
      <!-- 0.030 -->
      <g transform="translate(797.022712 532.626847) scale(0.1 -0.1)">
       <defs>
        <path id="MicrosoftYaHei-33" d="M 447 809 
Q 944 425 1569 425 
Q 2069 425 2361 670 
Q 2653 916 2653 1328 
Q 2653 2247 1338 2247 
L 934 2247 
L 934 2753 
L 1319 2753 
Q 2484 2753 2484 3616 
Q 2484 4413 1594 4413 
Q 1084 4413 634 4069 
L 634 4647 
Q 1109 4922 1744 4922 
Q 2363 4922 2738 4598 
Q 3113 4275 3113 3759 
Q 3113 2809 2144 2538 
L 2144 2525 
Q 2669 2469 2973 2155 
Q 3278 1841 3278 1372 
Q 3278 719 2808 319 
Q 2338 -81 1556 -81 
Q 869 -81 447 175 
L 447 809 
z
" transform="scale(0.015625)"/>
       </defs>
       <use xlink:href="#MicrosoftYaHei-30"/>
       <use xlink:href="#MicrosoftYaHei-2e" x="58.642578"/>
       <use xlink:href="#MicrosoftYaHei-30" x="82.714844"/>
       <use xlink:href="#MicrosoftYaHei-33" x="141.357422"/>
       <use xlink:href="#MicrosoftYaHei-30" x="200"/>
      </g>
     </g>
    </g>
    <g id="xtick_8">
     <g id="line2d_8">
      <g>
       <use xlink:href="#mf58273337f" x="934.765714" y="517.633097" style="stroke: #000000; stroke-width: 0.8"/>
      </g>
     </g>
     <g id="text_8">
      <!-- 0.035 -->
      <g transform="translate(921.833683 532.626847) scale(0.1 -0.1)">
       <use xlink:href="#MicrosoftYaHei-30"/>
       <use xlink:href="#MicrosoftYaHei-2e" x="58.642578"/>
       <use xlink:href="#MicrosoftYaHei-30" x="82.714844"/>
       <use xlink:href="#MicrosoftYaHei-33" x="141.357422"/>
       <use xlink:href="#MicrosoftYaHei-35" x="200"/>
      </g>
     </g>
    </g>
    <g id="xtick_9">
     <g id="line2d_9">
      <g>
       <use xlink:href="#mf58273337f" x="1059.576686" y="517.633097" style="stroke: #000000; stroke-width: 0.8"/>
      </g>
     </g>
     <g id="text_9">
      <!-- 0.040 -->
      <g transform="translate(1046.644654 532.626847) scale(0.1 -0.1)">
       <defs>
        <path id="MicrosoftYaHei-34" d="M 2906 4841 
L 2906 1644 
L 3631 1644 
L 3631 1138 
L 2906 1138 
L 2906 0 
L 2313 0 
L 2313 1138 
L 53 1138 
L 53 1616 
Q 656 2294 1265 3178 
Q 1875 4063 2272 4841 
L 2906 4841 
z
M 741 1644 
L 2313 1644 
L 2313 3950 
Q 1988 3366 1616 2817 
Q 1244 2269 741 1644 
z
" transform="scale(0.015625)"/>
       </defs>
       <use xlink:href="#MicrosoftYaHei-30"/>
       <use xlink:href="#MicrosoftYaHei-2e" x="58.642578"/>
       <use xlink:href="#MicrosoftYaHei-30" x="82.714844"/>
       <use xlink:href="#MicrosoftYaHei-34" x="141.357422"/>
       <use xlink:href="#MicrosoftYaHei-30" x="200"/>
      </g>
     </g>
    </g>
    <g id="text_10">
     <!-- 应变$\varepsilon$ -->
     <g transform="translate(547.5828 547.106535) scale(0.1 -0.1)">
      <defs>
       <path id="MicrosoftYaHei-5e94" d="M 2969 5134 
L 3425 5378 
Q 3694 5034 3938 4634 
L 3634 4459 
L 6169 4459 
L 6169 3984 
L 1300 3984 
L 1300 2453 
Q 1300 241 388 -853 
Q 238 -647 25 -422 
Q 775 416 775 2441 
L 775 4459 
L 3419 4459 
Q 3216 4803 2969 5134 
z
M 1263 -9 
L 4153 -9 
Q 4641 1238 5188 3403 
L 5731 3253 
Q 5147 1191 4694 -9 
L 6238 -9 
L 6238 -484 
L 1263 -484 
L 1263 -9 
z
M 1600 3059 
L 2075 3222 
Q 2463 2084 2825 672 
L 2294 509 
Q 2006 1747 1600 3059 
z
M 3106 3372 
L 3588 3509 
Q 3913 2384 4163 991 
L 3613 847 
Q 3431 2084 3106 3372 
z
" transform="scale(0.015625)"/>
       <path id="MicrosoftYaHei-53d8" d="M 838 1634 
L 838 2066 
L 5088 2066 
L 5088 1634 
Q 4494 853 3659 309 
Q 4675 -178 6313 -297 
Q 6088 -609 5950 -822 
Q 4275 -594 3178 34 
Q 2122 -509 425 -866 
Q 269 -622 106 -403 
Q 1741 -122 2728 328 
Q 2047 838 1553 1634 
L 838 1634 
z
M 231 4534 
L 3081 4534 
Q 2888 4884 2725 5141 
L 3175 5359 
Q 3481 4884 3600 4659 
L 3359 4534 
L 6200 4534 
L 6200 4091 
L 4181 4091 
L 4181 2353 
L 3700 2353 
L 3700 4091 
L 2694 4091 
L 2694 2341 
L 2213 2341 
L 2213 4091 
L 231 4091 
L 231 4534 
z
M 4475 1634 
L 2116 1634 
Q 2575 953 3197 572 
Q 3947 1016 4475 1634 
z
M 4556 3434 
L 4900 3728 
Q 5700 3009 6213 2459 
L 5825 2116 
Q 5219 2797 4556 3434 
z
M 1381 3741 
L 1756 3422 
Q 1119 2691 500 2097 
Q 344 2272 138 2447 
Q 794 3009 1381 3741 
z
" transform="scale(0.015625)"/>
       <path id="DejaVuSans-Oblique-3b5" d="M 1263 1888 
Q 925 1963 778 2166 
Q 669 2309 669 2503 
Q 669 3034 1175 3344 
Q 1575 3588 2188 3588 
Q 2425 3588 2684 3550 
Q 2944 3513 3234 3438 
L 3134 2916 
Q 2847 3006 2606 3047 
Q 2359 3088 2138 3088 
Q 1766 3088 1522 2944 
Q 1228 2772 1228 2522 
Q 1228 2356 1381 2241 
Q 1563 2103 1925 2103 
L 2409 2103 
L 2319 1628 
L 1856 1628 
Q 1425 1628 1172 1469 
Q 828 1253 828 916 
Q 828 703 1013 563 
Q 1244 388 1716 388 
Q 2006 388 2284 444 
Q 2563 503 2806 619 
L 2700 84 
Q 2403 -3 2131 -47 
Q 1859 -91 1609 -91 
Q 866 -91 516 194 
Q 250 413 250 781 
Q 250 1278 600 1584 
Q 859 1813 1263 1888 
z
" transform="scale(0.015625)"/>
      </defs>
      <use xlink:href="#MicrosoftYaHei-5e94" transform="translate(0 0.96875)"/>
      <use xlink:href="#MicrosoftYaHei-53d8" transform="translate(100 0.96875)"/>
      <use xlink:href="#DejaVuSans-Oblique-3b5" transform="translate(200 0.96875)"/>
     </g>
    </g>
   </g>
   <g id="matplotlib.axis_2">
    <g id="ytick_1">
     <g id="line2d_10">
      <defs>
       <path id="mc84082508b" d="M 0 0 
L -3.5 0 
" style="stroke: #000000; stroke-width: 0.8"/>
      </defs>
      <g>
       <use xlink:href="#mc84082508b" x="61.088914" y="495.488366" style="stroke: #000000; stroke-width: 0.8"/>
      </g>
     </g>
     <g id="text_11">
      <!-- 0 -->
      <g transform="translate(48.224852 499.485241) scale(0.1 -0.1)">
       <use xlink:href="#MicrosoftYaHei-30"/>
      </g>
     </g>
    </g>
    <g id="ytick_2">
     <g id="line2d_11">
      <g>
       <use xlink:href="#mc84082508b" x="61.088914" y="404.973712" style="stroke: #000000; stroke-width: 0.8"/>
      </g>
     </g>
     <g id="text_12">
      <!-- 1000 -->
      <g transform="translate(30.632664 408.970587) scale(0.1 -0.1)">
       <use xlink:href="#MicrosoftYaHei-31"/>
       <use xlink:href="#MicrosoftYaHei-30" x="58.642578"/>
       <use xlink:href="#MicrosoftYaHei-30" x="117.285156"/>
       <use xlink:href="#MicrosoftYaHei-30" x="175.927734"/>
      </g>
     </g>
    </g>
    <g id="ytick_3">
     <g id="line2d_12">
      <g>
       <use xlink:href="#mc84082508b" x="61.088914" y="314.459058" style="stroke: #000000; stroke-width: 0.8"/>
      </g>
     </g>
     <g id="text_13">
      <!-- 2000 -->
      <g transform="translate(30.632664 318.455933) scale(0.1 -0.1)">
       <use xlink:href="#MicrosoftYaHei-32"/>
       <use xlink:href="#MicrosoftYaHei-30" x="58.642578"/>
       <use xlink:href="#MicrosoftYaHei-30" x="117.285156"/>
       <use xlink:href="#MicrosoftYaHei-30" x="175.927734"/>
      </g>
     </g>
    </g>
    <g id="ytick_4">
     <g id="line2d_13">
      <g>
       <use xlink:href="#mc84082508b" x="61.088914" y="223.944404" style="stroke: #000000; stroke-width: 0.8"/>
      </g>
     </g>
     <g id="text_14">
      <!-- 3000 -->
      <g transform="translate(30.632664 227.941279) scale(0.1 -0.1)">
       <use xlink:href="#MicrosoftYaHei-33"/>
       <use xlink:href="#MicrosoftYaHei-30" x="58.642578"/>
       <use xlink:href="#MicrosoftYaHei-30" x="117.285156"/>
       <use xlink:href="#MicrosoftYaHei-30" x="175.927734"/>
      </g>
     </g>
    </g>
    <g id="ytick_5">
     <g id="line2d_14">
      <g>
       <use xlink:href="#mc84082508b" x="61.088914" y="133.42975" style="stroke: #000000; stroke-width: 0.8"/>
      </g>
     </g>
     <g id="text_15">
      <!-- 4000 -->
      <g transform="translate(30.632664 137.426625) scale(0.1 -0.1)">
       <use xlink:href="#MicrosoftYaHei-34"/>
       <use xlink:href="#MicrosoftYaHei-30" x="58.642578"/>
       <use xlink:href="#MicrosoftYaHei-30" x="117.285156"/>
       <use xlink:href="#MicrosoftYaHei-30" x="175.927734"/>
      </g>
     </g>
    </g>
    <g id="ytick_6">
     <g id="line2d_15">
      <g>
       <use xlink:href="#mc84082508b" x="61.088914" y="42.915096" style="stroke: #000000; stroke-width: 0.8"/>
      </g>
     </g>
     <g id="text_16">
      <!-- 5000 -->
      <g transform="translate(30.632664 46.911971) scale(0.1 -0.1)">
       <use xlink:href="#MicrosoftYaHei-35"/>
       <use xlink:href="#MicrosoftYaHei-30" x="58.642578"/>
       <use xlink:href="#MicrosoftYaHei-30" x="117.285156"/>
       <use xlink:href="#MicrosoftYaHei-30" x="175.927734"/>
      </g>
     </g>
    </g>
    <g id="text_17">
     <!-- 荷载P(kN) -->
     <g transform="translate(24.146727 297.22777) rotate(-90) scale(0.1 -0.1)">
      <defs>
       <path id="MicrosoftYaHei-8377" d="M 2175 3503 
L 6231 3503 
L 6231 3066 
L 5556 3066 
L 5556 116 
Q 5556 -716 4744 -716 
L 3856 -716 
Q 3831 -528 3744 -197 
Q 4238 -241 4619 -241 
Q 5069 -241 5069 241 
L 5069 3066 
L 2175 3066 
L 2175 3503 
z
M 2350 2422 
L 4350 2422 
L 4350 541 
L 2813 541 
L 2813 209 
L 2350 209 
L 2350 2422 
z
M 219 4728 
L 1975 4728 
L 1975 5328 
L 2463 5328 
L 2463 4728 
L 4013 4728 
L 4013 5328 
L 4500 5328 
L 4500 4728 
L 6275 4728 
L 6275 4278 
L 4500 4278 
L 4500 3828 
L 4013 3828 
L 4013 4278 
L 2463 4278 
L 2463 3859 
L 1975 3859 
L 1975 4278 
L 219 4278 
L 219 4728 
z
M 69 1653 
Q 1006 2628 1538 3847 
L 2006 3659 
Q 1759 3169 1506 2744 
L 1506 -797 
L 1019 -797 
L 1019 2006 
Q 688 1553 344 1209 
Q 225 1409 69 1653 
z
M 3888 966 
L 3888 1997 
L 2813 1997 
L 2813 966 
L 3888 966 
z
" transform="scale(0.015625)"/>
       <path id="MicrosoftYaHei-8f7d" d="M 2881 -416 
Q 3622 91 4213 806 
Q 3894 1769 3806 3234 
L 125 3234 
L 125 3653 
L 1681 3653 
L 1681 4234 
L 381 4234 
L 381 4628 
L 1681 4628 
L 1681 5266 
L 2144 5266 
L 2144 4628 
L 3375 4628 
L 3375 4234 
L 2144 4234 
L 2144 3653 
L 3781 3653 
Q 3744 4397 3713 5297 
L 4194 5297 
Q 4197 4419 4241 3653 
L 6319 3653 
L 6319 3234 
L 4266 3234 
Q 4331 2081 4563 1269 
Q 5034 1941 5394 2766 
L 5825 2566 
Q 5344 1531 4744 738 
Q 4938 278 5200 -34 
Q 5363 -222 5500 -222 
Q 5669 -222 5725 28 
Q 5800 366 5869 878 
Q 6119 766 6319 709 
Q 6238 178 6138 -234 
Q 5981 -791 5581 -791 
Q 5125 -791 4713 -209 
Q 4544 22 4406 319 
Q 3869 -297 3250 -741 
Q 3063 -528 2881 -416 
z
M 1006 1472 
L 1863 1472 
L 1863 2047 
L 2306 2047 
L 2306 1472 
L 3488 1472 
L 3488 1078 
L 2306 1078 
L 2306 497 
Q 2878 544 3513 597 
Q 3494 397 3494 191 
Q 2931 153 2306 100 
L 2306 -816 
L 1863 -816 
L 1863 59 
Q 1128 -3 313 -91 
L 213 359 
Q 956 400 1863 466 
L 1863 1078 
L 488 1078 
L 488 1484 
Q 741 1813 984 2216 
L 275 2216 
L 275 2609 
L 1213 2609 
Q 1366 2888 1513 3197 
L 1975 3053 
Q 1847 2819 1725 2609 
L 3538 2609 
L 3538 2216 
L 1491 2216 
Q 1231 1791 1006 1472 
z
M 4613 4841 
L 4919 5147 
Q 5550 4672 5944 4303 
L 5588 3941 
Q 5163 4397 4613 4841 
z
" transform="scale(0.015625)"/>
       <path id="MicrosoftYaHei-50" d="M 1250 1809 
L 1250 0 
L 625 0 
L 625 4841 
L 2000 4841 
Q 2784 4841 3217 4462 
Q 3650 4084 3650 3381 
Q 3650 2669 3144 2226 
Q 2638 1784 1878 1809 
L 1250 1809 
z
M 1250 4291 
L 1250 2359 
L 1828 2359 
Q 2400 2359 2697 2617 
Q 2994 2875 2994 3356 
Q 2994 4291 1888 4291 
L 1250 4291 
z
" transform="scale(0.015625)"/>
       <path id="MicrosoftYaHei-28" d="M 1531 -1100 
Q 478 100 478 1847 
Q 478 3594 1531 4841 
L 2072 4841 
Q 1016 3544 1016 1853 
Q 1016 166 2066 -1100 
L 1531 -1100 
z
" transform="scale(0.015625)"/>
       <path id="MicrosoftYaHei-6b" d="M 3484 0 
L 2650 0 
L 1172 1666 
L 1159 1666 
L 1159 0 
L 547 0 
L 547 5116 
L 1159 5116 
L 1159 1872 
L 1172 1872 
L 2575 3456 
L 3363 3456 
L 1800 1794 
L 3484 0 
z
" transform="scale(0.015625)"/>
       <path id="MicrosoftYaHei-4e" d="M 4578 0 
L 3838 0 
L 1403 3766 
Q 1300 3925 1238 4081 
L 1219 4081 
Q 1244 3919 1244 3403 
L 1244 0 
L 625 0 
L 625 4841 
L 1409 4841 
L 3778 1141 
Q 3947 878 3978 806 
L 3991 806 
Q 3959 1013 3959 1513 
L 3959 4841 
L 4578 4841 
L 4578 0 
z
" transform="scale(0.015625)"/>
       <path id="MicrosoftYaHei-29" d="M 78 -1100 
Q 1131 163 1131 1853 
Q 1131 3547 72 4841 
L 616 4841 
Q 1672 3603 1672 1847 
Q 1672 91 616 -1100 
L 78 -1100 
z
" transform="scale(0.015625)"/>
      </defs>
      <use xlink:href="#MicrosoftYaHei-8377"/>
      <use xlink:href="#MicrosoftYaHei-8f7d" x="100"/>
      <use xlink:href="#MicrosoftYaHei-50" x="200"/>
      <use xlink:href="#MicrosoftYaHei-28" x="261.181641"/>
      <use xlink:href="#MicrosoftYaHei-6b" x="294.580078"/>
      <use xlink:href="#MicrosoftYaHei-4e" x="349.023438"/>
      <use xlink:href="#MicrosoftYaHei-29" x="430.322266"/>
     </g>
    </g>
   </g>
   <g id="line2d_16">
    <path d="M 61.088914 495.488366 
L 86.05111 318.653744 
L 111.013305 232.036776 
L 148.45659 164.254696 
L 204.621533 92.629953 
L 288.868933 55.292115 
L 320.461714 57.630561 
L 367.850876 70.99772 
L 438.934629 90.634693 
L 545.560267 109.36833 
L 585.544852 114.338761 
L 645.521789 119.593114 
L 735.487174 125.39413 
L 870.435212 132.022835 
L 921.040716 134.108655 
L 996.949012 136.442802 
L 1106.92 139.204217 
" clip-path="url(#p619b82043f)" style="fill: none; stroke: #e41a1c; stroke-width: 1.5; stroke-linecap: square"/>
   </g>
   <g id="line2d_17">
    <path d="M 61.088914 495.488366 
L 86.05111 318.54059 
L 111.013305 231.737625 
L 148.45659 163.610865 
L 204.621533 91.149495 
L 288.868933 52.593737 
L 320.461714 54.403849 
L 367.850876 67.542006 
L 438.934629 87.54054 
L 465.591018 93.773198 
L 505.575643 101.089859 
L 565.55254 109.366067 
L 655.517925 117.847539 
L 689.254954 120.403627 
L 739.860459 123.369589 
L 815.768755 127.180822 
L 929.631199 131.749368 
L 972.329606 133.3014 
L 1036.377216 135.075623 
L 1106.92 136.712065 
" clip-path="url(#p619b82043f)" style="fill: none; stroke: #377eb8; stroke-width: 1.5; stroke-linecap: square"/>
   </g>
   <g id="patch_3">
    <path d="M 61.088914 517.633097 
L 61.088914 30.449006 
" style="fill: none; stroke: #000000; stroke-width: 0.8; stroke-linejoin: miter; stroke-linecap: square"/>
   </g>
   <g id="patch_4">
    <path d="M 1059.576686 517.633097 
L 1059.576686 30.449006 
" style="fill: none; stroke: #000000; stroke-width: 0.8; stroke-linejoin: miter; stroke-linecap: square"/>
   </g>
   <g id="patch_5">
    <path d="M 61.088914 517.633097 
L 1059.576686 517.633097 
" style="fill: none; stroke: #000000; stroke-width: 0.8; stroke-linejoin: miter; stroke-linecap: square"/>
   </g>
   <g id="patch_6">
    <path d="M 61.088914 30.449006 
L 1059.576686 30.449006 
" style="fill: none; stroke: #000000; stroke-width: 0.8; stroke-linejoin: miter; stroke-linecap: square"/>
   </g>
   <g id="text_18">
    <!-- U形连接件的不同建模方式 -->
    <g transform="translate(489.853425 24.449006) scale(0.12 -0.12)">
     <defs>
      <path id="MicrosoftYaHei-55" d="M 4213 1972 
Q 4213 -81 2350 -81 
Q 566 -81 566 1900 
L 566 4841 
L 1191 4841 
L 1191 1928 
Q 1191 475 2409 475 
Q 3588 475 3588 1881 
L 3588 4841 
L 4213 4841 
L 4213 1972 
z
" transform="scale(0.015625)"/>
      <path id="MicrosoftYaHei-5f62" d="M 175 2647 
L 1019 2647 
L 1019 4422 
L 350 4422 
L 350 4872 
L 3775 4872 
L 3775 4422 
L 3006 4422 
L 3006 2647 
L 3975 2647 
L 3975 2197 
L 3006 2197 
L 3006 -791 
L 2525 -791 
L 2525 2197 
L 1497 2197 
Q 1500 128 406 -841 
Q 256 -622 75 -428 
Q 1025 366 1016 2197 
L 175 2197 
L 175 2647 
z
M 1500 2647 
L 2525 2647 
L 2525 4422 
L 1500 4422 
L 1500 2647 
z
M 6319 1353 
Q 5331 166 3738 -834 
Q 3631 -666 3388 -422 
Q 4925 397 5956 1672 
L 6319 1353 
z
M 6138 3172 
Q 5250 2159 4019 1347 
Q 3888 1528 3694 1722 
Q 4856 2441 5775 3484 
L 6138 3172 
z
M 6038 4934 
Q 5194 4009 3988 3266 
Q 3875 3428 3675 3666 
Q 4838 4322 5675 5253 
L 6038 4934 
z
" transform="scale(0.015625)"/>
      <path id="MicrosoftYaHei-8fde" d="M 1850 1391 
L 3950 1391 
L 3950 2259 
L 2131 2259 
L 2131 2703 
Q 2513 3369 2825 4116 
L 1925 4116 
L 1925 4553 
L 3000 4553 
Q 3150 4947 3281 5359 
L 3806 5247 
Q 3672 4894 3531 4553 
L 6088 4553 
L 6088 4116 
L 3350 4116 
Q 3031 3372 2694 2697 
L 3950 2697 
L 3950 3778 
L 4450 3778 
L 4450 2697 
L 6050 2697 
L 6050 2259 
L 4450 2259 
L 4450 1391 
L 6225 1391 
L 6225 953 
L 4450 953 
L 4450 -78 
L 3950 -78 
L 3950 953 
L 1850 953 
L 1850 1391 
z
M 2650 -216 
L 3931 -247 
L 6319 -191 
Q 6213 -441 6113 -672 
L 3944 -697 
L 2594 -666 
Q 1588 -653 1088 47 
Q 906 -97 356 -753 
L 88 -222 
Q 478 131 863 459 
L 863 2641 
L 150 2641 
L 150 3097 
L 1350 3097 
L 1350 369 
Q 1806 -188 2650 -216 
z
M 856 5203 
Q 1288 4659 1688 4084 
L 1244 3772 
Q 875 4359 456 4934 
L 856 5203 
z
" transform="scale(0.015625)"/>
      <path id="MicrosoftYaHei-63a5" d="M 1800 -366 
Q 3019 -188 3784 222 
Q 3200 484 2531 772 
Q 2800 1119 3028 1466 
L 2000 1466 
L 2000 1884 
L 3291 1884 
Q 3491 2222 3656 2559 
L 4119 2366 
Q 3969 2116 3822 1884 
L 6225 1884 
L 6225 1466 
L 5403 1466 
Q 5156 778 4672 306 
Q 5469 -25 6219 -353 
L 5944 -816 
Q 5241 -444 4288 -3 
Q 3450 -572 2038 -841 
Q 1950 -634 1800 -366 
z
M 100 1966 
Q 544 2088 963 2213 
L 963 3641 
L 175 3641 
L 175 4091 
L 963 4091 
L 963 5259 
L 1425 5259 
L 1425 4091 
L 2144 4091 
L 2144 3641 
L 1425 3641 
L 1425 2356 
Q 1722 2450 2006 2547 
Q 2013 2266 2044 2059 
Q 1722 1956 1425 1856 
L 1425 -72 
Q 1425 -747 819 -753 
Q 588 -759 231 -747 
Q 206 -491 156 -228 
Q 531 -266 688 -266 
Q 963 -266 963 66 
L 963 1703 
Q 534 1559 163 1428 
L 100 1966 
z
M 2019 3072 
L 4453 3072 
Q 4850 3622 5156 4103 
L 5625 3847 
Q 5300 3456 4966 3072 
L 6269 3072 
L 6269 2653 
L 2019 2653 
L 2019 3072 
z
M 2263 4591 
L 4028 4591 
Q 3881 4875 3719 5153 
L 4138 5347 
Q 4338 5009 4519 4666 
L 4359 4591 
L 6119 4591 
L 6119 4172 
L 2263 4172 
L 2263 4591 
z
M 3181 909 
Q 3703 703 4203 497 
Q 4694 894 4900 1466 
L 3553 1466 
Q 3363 1175 3181 909 
z
M 2825 3853 
L 3188 4097 
Q 3481 3753 3756 3372 
L 3356 3103 
Q 3119 3491 2825 3853 
z
" transform="scale(0.015625)"/>
      <path id="MicrosoftYaHei-4ef6" d="M 1950 1816 
L 4119 1816 
L 4119 3397 
L 2928 3397 
Q 2675 2725 2375 2197 
Q 2194 2372 1963 2528 
Q 2556 3572 2838 4859 
L 3344 4716 
Q 3222 4250 3081 3834 
L 4119 3834 
L 4119 5284 
L 4619 5284 
L 4619 3834 
L 6113 3834 
L 6113 3397 
L 4619 3397 
L 4619 1816 
L 6319 1816 
L 6319 1378 
L 4619 1378 
L 4619 -809 
L 4119 -809 
L 4119 1378 
L 1950 1378 
L 1950 1816 
z
M 69 2191 
Q 931 3466 1456 5278 
L 1969 5128 
Q 1738 4400 1469 3763 
L 1469 -816 
L 975 -816 
L 975 2731 
Q 656 2141 294 1647 
Q 200 1916 69 2191 
z
" transform="scale(0.015625)"/>
      <path id="MicrosoftYaHei-7684" d="M 356 4284 
L 988 4284 
Q 1219 4853 1369 5322 
L 1894 5172 
Q 1697 4694 1513 4284 
L 2763 4284 
L 2763 -691 
L 2263 -691 
L 2263 -203 
L 856 -203 
L 856 -734 
L 356 -734 
L 356 4284 
z
M 2856 3003 
Q 3444 3934 3850 5322 
L 4375 5191 
Q 4216 4719 4050 4303 
L 6063 4303 
Q 5988 1091 5938 259 
Q 5894 -722 4906 -722 
Q 4338 -722 3750 -684 
Q 3713 -372 3650 -128 
L 3669 -128 
Q 4294 -216 4813 -216 
Q 5381 -216 5425 384 
Q 5494 1316 5525 3834 
L 3850 3834 
Q 3578 3231 3288 2772 
Q 3119 2891 2856 3003 
z
M 856 266 
L 2263 266 
L 2263 1847 
L 856 1847 
L 856 266 
z
M 2263 3816 
L 856 3816 
L 856 2297 
L 2263 2297 
L 2263 3816 
z
M 3406 2578 
L 3788 2859 
Q 4481 2041 4894 1441 
L 4431 1116 
Q 3988 1841 3406 2578 
z
" transform="scale(0.015625)"/>
      <path id="MicrosoftYaHei-4e0d" d="M 225 4772 
L 6181 4772 
L 6181 4284 
L 3881 4284 
Q 3581 3766 3081 3053 
L 3444 3053 
L 3444 -866 
L 2906 -866 
L 2906 2859 
Q 1838 1541 388 609 
Q 231 834 38 1059 
Q 2006 2291 3213 4284 
L 225 4284 
L 225 4772 
z
M 4069 2859 
Q 5238 2147 6325 1409 
L 5969 916 
Q 4681 1872 3763 2434 
L 4069 2859 
z
" transform="scale(0.015625)"/>
      <path id="MicrosoftYaHei-540c" d="M 1013 -772 
L 531 -772 
L 531 4959 
L 5856 4959 
L 5856 -47 
Q 5856 -741 5125 -741 
Q 4669 -741 4088 -716 
Q 4056 -497 4000 -216 
Q 4619 -272 5025 -272 
Q 5375 -272 5375 78 
L 5375 4497 
L 1013 4497 
L 1013 -772 
z
M 1875 2566 
L 4506 2566 
L 4506 597 
L 2338 597 
L 2338 272 
L 1875 272 
L 1875 2566 
z
M 4044 2116 
L 2338 2116 
L 2338 1047 
L 4044 1047 
L 4044 2116 
z
M 1363 3734 
L 5025 3734 
L 5025 3284 
L 1363 3284 
L 1363 3734 
z
" transform="scale(0.015625)"/>
      <path id="MicrosoftYaHei-5efa" d="M 2075 1009 
L 3675 1009 
L 3675 1553 
L 2288 1553 
L 2288 1928 
L 3675 1928 
L 3675 2472 
L 2375 2472 
L 2375 2847 
L 3675 2847 
L 3675 3391 
L 2050 3391 
L 2050 3778 
L 3675 3778 
L 3675 4322 
L 2375 4322 
L 2375 4697 
L 3675 4697 
L 3675 5309 
L 4138 5309 
L 4138 4697 
L 5588 4697 
L 5588 3778 
L 6244 3778 
L 6244 3391 
L 5588 3391 
L 5588 2303 
L 5138 2303 
L 5138 2472 
L 4138 2472 
L 4138 1928 
L 5713 1928 
L 5713 1553 
L 4138 1553 
L 4138 1009 
L 6000 1009 
L 6000 634 
L 4138 634 
L 4138 -9 
L 3675 -9 
L 3675 634 
L 2075 634 
L 2075 1009 
z
M 600 2066 
Q 788 1303 1125 813 
Q 1459 1500 1544 2397 
L 294 2397 
L 294 2853 
L 1444 4272 
L 169 4272 
L 169 4697 
L 2019 4697 
L 2019 4272 
L 844 2822 
L 2013 2822 
L 2013 2453 
Q 1897 1294 1447 444 
Q 2128 -147 3563 -153 
Q 4750 -178 6319 -122 
Q 6213 -378 6113 -616 
Q 4681 -609 3344 -603 
Q 1950 -603 1206 47 
Q 853 -466 350 -847 
Q 250 -666 94 -441 
Q 563 -84 881 391 
Q 463 922 188 1909 
L 600 2066 
z
M 4138 2847 
L 5138 2847 
L 5138 3391 
L 4138 3391 
L 4138 2847 
z
M 5138 4322 
L 4138 4322 
L 4138 3778 
L 5138 3778 
L 5138 4322 
z
" transform="scale(0.015625)"/>
      <path id="MicrosoftYaHei-6a21" d="M 2050 984 
L 3859 984 
Q 3900 1213 3913 1547 
L 2950 1547 
L 2950 1372 
L 2500 1372 
L 2500 3634 
L 5844 3634 
L 5844 1372 
L 5394 1372 
L 5394 1547 
L 4344 1547 
Q 4325 1203 4288 984 
L 6250 984 
L 6250 584 
L 4525 584 
Q 5203 -175 6319 -341 
Q 6144 -572 6013 -809 
Q 4803 -456 4128 466 
Q 3681 -431 2075 -847 
Q 1969 -628 1831 -416 
Q 3303 -106 3713 584 
L 2050 584 
L 2050 984 
z
M 63 1409 
Q 603 2316 922 3509 
L 138 3509 
L 138 3922 
L 1006 3922 
L 1006 5309 
L 1444 5309 
L 1444 3922 
L 2256 3922 
L 2256 3509 
L 1444 3509 
L 1444 2684 
L 1688 2884 
Q 2044 2503 2350 2116 
L 2006 1828 
Q 1719 2244 1444 2563 
L 1444 -822 
L 1006 -822 
L 1006 2581 
Q 672 1438 275 859 
Q 188 1128 63 1409 
z
M 4713 5303 
L 5150 5303 
L 5150 4703 
L 6225 4703 
L 6225 4303 
L 5150 4303 
L 5150 3797 
L 4713 3797 
L 4713 4303 
L 3600 4303 
L 3600 3797 
L 3163 3797 
L 3163 4303 
L 2175 4303 
L 2175 4703 
L 3163 4703 
L 3163 5309 
L 3600 5309 
L 3600 4703 
L 4713 4703 
L 4713 5303 
z
M 5394 3247 
L 2950 3247 
L 2950 2778 
L 5394 2778 
L 5394 3247 
z
M 2950 1934 
L 5394 1934 
L 5394 2403 
L 2950 2403 
L 2950 1934 
z
" transform="scale(0.015625)"/>
      <path id="MicrosoftYaHei-65b9" d="M 194 4241 
L 3194 4241 
Q 2878 4841 2700 5116 
L 3188 5347 
Q 3363 5078 3713 4472 
L 3256 4241 
L 6219 4241 
L 6219 3766 
L 2428 3766 
Q 2406 3197 2381 2797 
L 5400 2797 
Q 5325 1441 5238 441 
Q 5169 -691 4138 -691 
Q 3663 -691 2869 -641 
Q 2838 -403 2775 -66 
Q 3569 -172 4063 -172 
Q 4638 -172 4706 509 
Q 4781 1253 4838 2328 
L 2347 2328 
Q 2172 266 438 -872 
Q 269 -672 56 -447 
Q 1706 641 1825 2466 
Q 1869 2959 1897 3766 
L 194 3766 
L 194 4241 
z
" transform="scale(0.015625)"/>
      <path id="MicrosoftYaHei-5f0f" d="M 94 4122 
L 3569 4122 
Q 3544 4700 3531 5347 
L 4063 5347 
Q 4059 4728 4081 4122 
L 6231 4122 
L 6231 3653 
L 4103 3653 
Q 4225 503 5156 -172 
Q 5494 -447 5631 -22 
Q 5725 303 5800 941 
Q 6094 834 6306 778 
Q 6188 47 6050 -403 
Q 5900 -834 5475 -834 
Q 5044 -834 4619 -397 
Q 3725 553 3597 3653 
L 94 3653 
L 94 4122 
z
M 119 159 
Q 825 244 1569 344 
L 1569 2097 
L 350 2097 
L 350 2566 
L 3288 2566 
L 3288 2097 
L 2081 2097 
L 2081 416 
Q 2809 519 3575 634 
Q 3563 391 3563 128 
Q 1681 -141 244 -366 
L 119 159 
z
M 4544 4978 
L 4844 5297 
Q 5294 4972 5756 4559 
L 5400 4191 
Q 5000 4597 4544 4978 
z
" transform="scale(0.015625)"/>
     </defs>
     <use xlink:href="#MicrosoftYaHei-55"/>
     <use xlink:href="#MicrosoftYaHei-5f62" x="74.658203"/>
     <use xlink:href="#MicrosoftYaHei-8fde" x="174.658203"/>
     <use xlink:href="#MicrosoftYaHei-63a5" x="274.658203"/>
     <use xlink:href="#MicrosoftYaHei-4ef6" x="374.658203"/>
     <use xlink:href="#MicrosoftYaHei-7684" x="474.658203"/>
     <use xlink:href="#MicrosoftYaHei-4e0d" x="574.658203"/>
     <use xlink:href="#MicrosoftYaHei-540c" x="674.658203"/>
     <use xlink:href="#MicrosoftYaHei-5efa" x="774.658203"/>
     <use xlink:href="#MicrosoftYaHei-6a21" x="874.658203"/>
     <use xlink:href="#MicrosoftYaHei-65b9" x="974.658203"/>
     <use xlink:href="#MicrosoftYaHei-5f0f" x="1074.658203"/>
    </g>
   </g>
   <g id="legend_1">
    <g id="patch_7">
     <path d="M 863.111061 69.408381 
L 1052.576686 69.408381 
Q 1054.576686 69.408381 1054.576686 67.408381 
L 1054.576686 37.449006 
Q 1054.576686 35.449006 1052.576686 35.449006 
L 863.111061 35.449006 
Q 861.111061 35.449006 861.111061 37.449006 
L 861.111061 67.408381 
Q 861.111061 69.408381 863.111061 69.408381 
z
" style="fill: #ffffff; opacity: 0.8; stroke: #cccccc; stroke-linejoin: miter"/>
    </g>
    <g id="line2d_18">
     <path d="M 865.111061 43.942756 
L 875.111061 43.942756 
L 885.111061 43.942756 
" style="fill: none; stroke: #e41a1c; stroke-width: 1.5; stroke-linecap: square"/>
    </g>
    <g id="text_19">
     <!-- 用两倍拉杆截面面积模拟U形连接件 -->
     <g transform="translate(893.111061 47.442756) scale(0.1 -0.1)">
      <defs>
       <path id="MicrosoftYaHei-7528" d="M 3088 -734 
L 3088 1253 
L 1269 1253 
Q 1163 -47 513 -903 
Q 350 -697 144 -472 
Q 550 103 694 803 
Q 831 1478 831 2716 
L 831 4947 
L 5925 4947 
L 5925 -22 
Q 5925 -766 5219 -766 
Q 4788 -766 4250 -747 
Q 4219 -541 4156 -228 
Q 4700 -266 5038 -266 
Q 5425 -266 5425 103 
L 5425 1253 
L 3588 1253 
L 3588 -734 
L 3088 -734 
z
M 3588 1703 
L 5425 1703 
L 5425 2872 
L 3588 2872 
L 3588 1703 
z
M 5425 4484 
L 3588 4484 
L 3588 3322 
L 5425 3322 
L 5425 4484 
z
M 1303 1703 
L 3088 1703 
L 3088 2872 
L 1331 2872 
Q 1350 2266 1303 1703 
z
M 1331 4484 
L 1331 3322 
L 3088 3322 
L 3088 4484 
L 1331 4484 
z
" transform="scale(0.015625)"/>
       <path id="MicrosoftYaHei-4e24" d="M 163 4991 
L 6238 4991 
L 6238 4534 
L 4325 4534 
Q 4328 4084 4316 3697 
L 5856 3697 
L 5856 3 
Q 5856 -716 5138 -716 
Q 4800 -716 4181 -703 
Q 4150 -484 4094 -216 
Q 4688 -259 4994 -259 
Q 5388 -259 5388 122 
L 5388 3247 
L 4297 3247 
Q 4269 2634 4172 2138 
Q 4859 1500 5325 966 
L 5000 616 
Q 4519 1194 4038 1678 
Q 3734 834 3050 147 
Q 2913 303 2663 484 
Q 3844 1559 3844 3247 
L 2538 3247 
Q 2506 2591 2444 2316 
Q 2956 1897 3288 1603 
L 3013 1191 
Q 2675 1541 2325 1869 
Q 2044 1025 1381 334 
Q 1231 503 1019 691 
Q 2056 1653 2084 3247 
L 1000 3247 
L 1000 -747 
L 531 -747 
L 531 3697 
L 2103 3697 
Q 2116 4091 2113 4534 
L 163 4534 
L 163 4991 
z
M 2556 3697 
L 3863 3697 
Q 3875 4094 3872 4534 
L 2569 4534 
Q 2569 4084 2556 3697 
z
" transform="scale(0.015625)"/>
       <path id="MicrosoftYaHei-500d" d="M 2338 1709 
L 5750 1709 
L 5750 -816 
L 5275 -816 
L 5275 -409 
L 2813 -409 
L 2813 -816 
L 2338 -816 
L 2338 1709 
z
M 56 2278 
Q 919 3516 1394 5303 
L 1875 5166 
Q 1619 4331 1300 3603 
L 1300 -822 
L 838 -822 
L 838 2669 
Q 566 2178 263 1753 
Q 169 2016 56 2278 
z
M 5275 1278 
L 2813 1278 
L 2813 9 
L 5275 9 
L 5275 1278 
z
M 1775 2766 
L 4850 2766 
L 4506 2959 
Q 4875 3447 5125 3953 
L 5588 3728 
Q 5297 3253 4947 2766 
L 6313 2766 
L 6313 2328 
L 1775 2328 
L 1775 2766 
z
M 2006 4409 
L 3984 4409 
Q 3769 4778 3506 5141 
L 3925 5384 
Q 4206 5009 4444 4622 
L 4072 4409 
L 6094 4409 
L 6094 3972 
L 2006 3972 
L 2006 4409 
z
M 2525 3716 
L 2925 3959 
Q 3288 3459 3556 3041 
L 3131 2772 
Q 2825 3309 2525 3716 
z
" transform="scale(0.015625)"/>
       <path id="MicrosoftYaHei-62c9" d="M 88 1991 
Q 513 2063 1000 2159 
L 1000 3497 
L 150 3497 
L 150 3934 
L 1000 3934 
L 1000 5328 
L 1469 5328 
L 1469 3934 
L 2263 3934 
L 2263 3497 
L 1469 3497 
L 1469 2256 
Q 1909 2353 2394 2466 
Q 2400 2222 2413 1997 
Q 2044 1922 1469 1791 
L 1469 -72 
Q 1469 -741 900 -753 
Q 625 -759 238 -759 
Q 200 -497 156 -241 
Q 531 -278 738 -278 
Q 994 -278 1000 9 
L 1000 1681 
Q 628 1591 188 1484 
L 88 1991 
z
M 2113 -28 
L 4253 -28 
Q 4697 1434 5094 3284 
L 5638 3159 
Q 5259 1653 4747 -28 
L 6300 -28 
L 6300 -503 
L 2113 -503 
L 2113 -28 
z
M 2450 4234 
L 4222 4234 
Q 3991 4625 3663 5084 
L 4075 5341 
Q 4425 4897 4669 4503 
L 4259 4234 
L 6056 4234 
L 6056 3759 
L 2450 3759 
L 2450 4234 
z
M 2756 3153 
L 3238 3291 
Q 3600 1872 3850 541 
L 3344 416 
Q 3050 2091 2756 3153 
z
" transform="scale(0.015625)"/>
       <path id="MicrosoftYaHei-6746" d="M 2525 2572 
L 4125 2572 
L 4125 4403 
L 2700 4403 
L 2700 4853 
L 6050 4853 
L 6050 4403 
L 4638 4403 
L 4638 2572 
L 6275 2572 
L 6275 2122 
L 4638 2122 
L 4638 -816 
L 4125 -816 
L 4125 2122 
L 2525 2122 
L 2525 2572 
z
M 100 1341 
Q 738 2269 1088 3609 
L 175 3609 
L 175 4041 
L 1150 4041 
L 1150 5284 
L 1619 5284 
L 1619 4041 
L 2575 4041 
L 2575 3609 
L 1619 3609 
L 1619 2694 
L 1900 2897 
Q 2313 2384 2575 1978 
L 2181 1703 
Q 1906 2159 1619 2575 
L 1619 -809 
L 1150 -809 
L 1150 2638 
Q 797 1525 319 784 
Q 244 1003 100 1341 
z
" transform="scale(0.015625)"/>
       <path id="MicrosoftYaHei-622a" d="M 3625 191 
Q 4038 478 4378 838 
Q 4106 1816 4041 3291 
L 163 3291 
L 163 3703 
L 1856 3703 
L 1856 4284 
L 531 4284 
L 531 4684 
L 1856 4684 
L 1856 5278 
L 2294 5278 
L 2294 4684 
L 3519 4684 
L 3519 4284 
L 2294 4284 
L 2294 3703 
L 4022 3703 
Q 4003 4241 3981 5284 
L 4444 5284 
Q 4444 4400 4472 3703 
L 6225 3703 
L 6225 3291 
L 4491 3291 
Q 4544 2116 4747 1272 
Q 5238 1922 5544 2759 
L 5981 2572 
Q 5563 1541 4897 744 
Q 5041 328 5231 22 
Q 5394 -247 5550 -247 
Q 5681 -247 5738 -9 
Q 5813 303 5881 866 
Q 6125 753 6325 697 
Q 6231 84 6125 -291 
Q 5975 -797 5588 -797 
Q 5138 -797 4806 -197 
Q 4659 44 4538 353 
Q 4253 66 3931 -184 
Q 3800 3 3625 191 
z
M 2044 3034 
L 2338 3284 
Q 2588 3059 2881 2747 
L 2669 2572 
L 3763 2572 
L 3763 2197 
L 2631 2197 
L 2631 1684 
L 3669 1684 
L 3669 1322 
L 2631 1322 
L 2631 809 
L 3688 809 
L 3688 447 
L 2631 447 
L 2631 -66 
L 3756 -66 
L 3756 -441 
L 1213 -441 
L 1213 -791 
L 788 -791 
L 788 1763 
Q 569 1472 338 1209 
Q 200 1391 50 1559 
Q 738 2259 1169 3184 
L 1569 3009 
Q 1450 2784 1322 2572 
L 2478 2572 
Q 2259 2828 2044 3034 
z
M 4744 4741 
L 5019 5066 
Q 5569 4684 5994 4347 
L 5675 3959 
Q 5225 4372 4744 4741 
z
M 1213 809 
L 2206 809 
L 2206 1322 
L 1213 1322 
L 1213 809 
z
M 1213 1684 
L 2206 1684 
L 2206 2197 
L 1213 2197 
L 1213 1684 
z
M 1213 -66 
L 2206 -66 
L 2206 447 
L 1213 447 
L 1213 -66 
z
" transform="scale(0.015625)"/>
       <path id="MicrosoftYaHei-9762" d="M 519 3659 
L 2500 3659 
Q 2681 4134 2794 4484 
L 188 4484 
L 188 4947 
L 6200 4947 
L 6200 4484 
L 3353 4484 
Q 3216 4144 3009 3659 
L 5850 3659 
L 5850 -809 
L 5369 -809 
L 5369 -459 
L 1000 -459 
L 1000 -816 
L 519 -816 
L 519 3659 
z
M 5369 3247 
L 4363 3247 
L 4363 -47 
L 5369 -47 
L 5369 3247 
z
M 1000 -47 
L 2006 -47 
L 2006 3247 
L 1000 3247 
L 1000 -47 
z
M 2456 -47 
L 3913 -47 
L 3913 784 
L 2456 784 
L 2456 -47 
z
M 2456 1184 
L 3913 1184 
L 3913 2016 
L 2456 2016 
L 2456 1184 
z
M 2456 2416 
L 3913 2416 
L 3913 3247 
L 2456 3247 
L 2456 2416 
z
" transform="scale(0.015625)"/>
       <path id="MicrosoftYaHei-79ef" d="M 2813 4784 
L 5975 4784 
L 5975 1528 
L 5500 1528 
L 5500 1828 
L 3288 1828 
L 3288 1528 
L 2813 1528 
L 2813 4784 
z
M 88 853 
Q 669 1728 1056 2947 
L 119 2947 
L 119 3384 
L 1119 3384 
L 1119 4378 
Q 713 4347 244 4316 
Q 213 4541 150 4772 
Q 1425 4841 2375 4978 
L 2488 4503 
Q 2106 4459 1581 4416 
L 1581 3384 
L 2513 3384 
L 2513 2947 
L 1581 2947 
L 1581 2066 
L 1831 2297 
Q 2213 1922 2644 1441 
L 2288 1128 
Q 1950 1541 1581 1934 
L 1581 -853 
L 1119 -853 
L 1119 1928 
Q 781 997 306 316 
Q 206 591 88 853 
z
M 5500 4359 
L 3288 4359 
L 3288 2253 
L 5500 2253 
L 5500 4359 
z
M 3475 1128 
L 3888 834 
Q 3175 -66 2519 -759 
Q 2369 -597 2163 -416 
Q 2925 353 3475 1128 
z
M 4775 828 
L 5163 1097 
Q 5738 441 6356 -372 
L 5919 -703 
Q 5369 109 4775 828 
z
" transform="scale(0.015625)"/>
       <path id="MicrosoftYaHei-62df" d="M 81 1991 
Q 459 2091 925 2234 
L 925 3647 
L 150 3647 
L 150 4066 
L 925 4066 
L 925 5272 
L 1400 5272 
L 1400 4066 
L 2131 4066 
L 2131 3647 
L 1400 3647 
L 1400 2384 
Q 1756 2500 2156 2634 
Q 2144 2328 2144 2153 
Q 1775 2034 1400 1906 
L 1400 -97 
Q 1400 -722 856 -747 
Q 556 -759 231 -753 
Q 200 -522 150 -234 
Q 456 -272 656 -272 
Q 925 -272 925 9 
L 925 1744 
Q 541 1613 150 1472 
L 81 1991 
z
M 5000 5216 
L 5475 5216 
Q 5463 4141 5444 3341 
Q 5403 1831 5119 1044 
Q 5797 278 6325 -391 
L 5906 -734 
Q 5425 -66 4900 588 
Q 4397 -263 3375 -872 
Q 3219 -659 3031 -478 
Q 4206 184 4644 1184 
Q 4938 1916 4963 3347 
Q 4988 4284 5000 5216 
z
M 3838 1878 
Q 3900 1616 4000 1391 
Q 3444 884 2850 316 
Q 2706 172 2563 -41 
L 2238 372 
Q 2431 597 2431 947 
L 2431 4797 
L 2906 4797 
L 2906 991 
Q 3256 1297 3838 1878 
z
M 3213 5147 
L 3619 5353 
Q 4088 4516 4425 3816 
L 3988 3572 
Q 3563 4497 3213 5147 
z
" transform="scale(0.015625)"/>
      </defs>
      <use xlink:href="#MicrosoftYaHei-7528"/>
      <use xlink:href="#MicrosoftYaHei-4e24" x="100"/>
      <use xlink:href="#MicrosoftYaHei-500d" x="200"/>
      <use xlink:href="#MicrosoftYaHei-62c9" x="300"/>
      <use xlink:href="#MicrosoftYaHei-6746" x="400"/>
      <use xlink:href="#MicrosoftYaHei-622a" x="500"/>
      <use xlink:href="#MicrosoftYaHei-9762" x="600"/>
      <use xlink:href="#MicrosoftYaHei-9762" x="700"/>
      <use xlink:href="#MicrosoftYaHei-79ef" x="800"/>
      <use xlink:href="#MicrosoftYaHei-6a21" x="900"/>
      <use xlink:href="#MicrosoftYaHei-62df" x="1000"/>
      <use xlink:href="#MicrosoftYaHei-55" x="1100"/>
      <use xlink:href="#MicrosoftYaHei-5f62" x="1174.658203"/>
      <use xlink:href="#MicrosoftYaHei-8fde" x="1274.658203"/>
      <use xlink:href="#MicrosoftYaHei-63a5" x="1374.658203"/>
      <use xlink:href="#MicrosoftYaHei-4ef6" x="1474.658203"/>
     </g>
    </g>
    <g id="line2d_19">
     <path d="M 865.111061 59.422443 
L 875.111061 59.422443 
L 885.111061 59.422443 
" style="fill: none; stroke: #377eb8; stroke-width: 1.5; stroke-linecap: square"/>
    </g>
    <g id="text_20">
     <!-- 用V形拉杆模拟U形连接件 -->
     <g transform="translate(893.111061 62.922443) scale(0.1 -0.1)">
      <defs>
       <path id="MicrosoftYaHei-56" d="M 4272 4841 
L 2494 0 
L 1800 0 
L 56 4841 
L 750 4841 
L 2053 1056 
Q 2119 869 2150 622 
L 2166 622 
Q 2191 838 2275 1063 
L 3603 4841 
L 4272 4841 
z
" transform="scale(0.015625)"/>
      </defs>
      <use xlink:href="#MicrosoftYaHei-7528"/>
      <use xlink:href="#MicrosoftYaHei-56" x="100"/>
      <use xlink:href="#MicrosoftYaHei-5f62" x="167.626953"/>
      <use xlink:href="#MicrosoftYaHei-62c9" x="267.626953"/>
      <use xlink:href="#MicrosoftYaHei-6746" x="367.626953"/>
      <use xlink:href="#MicrosoftYaHei-6a21" x="467.626953"/>
      <use xlink:href="#MicrosoftYaHei-62df" x="567.626953"/>
      <use xlink:href="#MicrosoftYaHei-55" x="667.626953"/>
      <use xlink:href="#MicrosoftYaHei-5f62" x="742.285156"/>
      <use xlink:href="#MicrosoftYaHei-8fde" x="842.285156"/>
      <use xlink:href="#MicrosoftYaHei-63a5" x="942.285156"/>
      <use xlink:href="#MicrosoftYaHei-4ef6" x="1042.285156"/>
     </g>
    </g>
   </g>
  </g>
 </g>
 <defs>
  <clipPath id="p619b82043f">
   <rect x="61.088914" y="30.449006" width="998.487771" height="487.184091"/>
  </clipPath>
 </defs>
</svg>
