<?xml version="1.0" encoding="utf-8" standalone="no"?>
<!DOCTYPE svg PUBLIC "-//W3C//DTD SVG 1.1//EN"
  "http://www.w3.org/Graphics/SVG/1.1/DTD/svg11.dtd">
<svg xmlns:xlink="http://www.w3.org/1999/xlink" width="1105.92pt" height="551.232pt" viewBox="0 0 1105.92 551.232" xmlns="http://www.w3.org/2000/svg" version="1.1">
 <metadata>
  <rdf:RDF xmlns:dc="http://purl.org/dc/elements/1.1/" xmlns:cc="http://creativecommons.org/ns#" xmlns:rdf="http://www.w3.org/1999/02/22-rdf-syntax-ns#">
   <cc:Work>
    <dc:type rdf:resource="http://purl.org/dc/dcmitype/StillImage"/>
    <dc:date>2023-05-27T20:18:11.102096</dc:date>
    <dc:format>image/svg+xml</dc:format>
    <dc:creator>
     <cc:Agent>
      <dc:title>Matplotlib v3.7.1, https://matplotlib.org/</dc:title>
     </cc:Agent>
    </dc:creator>
   </cc:Work>
  </rdf:RDF>
 </metadata>
 <defs>
  <style type="text/css">*{stroke-linejoin: round; stroke-linecap: butt}</style>
 </defs>
 <g id="figure_1">
  <g id="patch_1">
   <path d="M 0 551.232 
L 1105.92 551.232 
L 1105.92 0 
L 0 0 
z
" style="fill: #ffffff"/>
  </g>
  <g id="axes_1">
   <g id="patch_2">
    <path d="M 69.514971 510.283337 
L 1061.6832 510.283337 
L 1061.6832 36.7488 
L 69.514971 36.7488 
z
" style="fill: #ffffff"/>
   </g>
   <g id="matplotlib.axis_1">
    <g id="xtick_1">
     <g id="line2d_1">
      <defs>
       <path id="ma4895b3b4d" d="M 0 0 
L 0 3.5 
" style="stroke: #000000; stroke-width: 0.8"/>
      </defs>
      <g>
       <use xlink:href="#ma4895b3b4d" x="69.514971" y="510.283337" style="stroke: #000000; stroke-width: 0.8"/>
      </g>
     </g>
     <g id="text_1">
      <!-- 0.000 -->
      <g transform="translate(56.58294 525.277087) scale(0.1 -0.1)">
       <defs>
        <path id="MicrosoftYaHei-30" d="M 284 2325 
Q 284 3606 709 4264 
Q 1134 4922 1941 4922 
Q 3478 4922 3478 2441 
Q 3478 1216 3045 567 
Q 2613 -81 1831 -81 
Q 1094 -81 689 534 
Q 284 1150 284 2325 
z
M 909 2353 
Q 909 425 1888 425 
Q 2850 425 2850 2384 
Q 2850 4413 1906 4413 
Q 909 4413 909 2353 
z
" transform="scale(0.015625)"/>
        <path id="MicrosoftYaHei-2e" d="M 372 322 
Q 372 491 487 606 
Q 603 722 775 722 
Q 950 722 1065 605 
Q 1181 488 1181 322 
Q 1181 159 1065 42 
Q 950 -75 772 -75 
Q 600 -75 486 42 
Q 372 159 372 322 
z
" transform="scale(0.015625)"/>
       </defs>
       <use xlink:href="#MicrosoftYaHei-30"/>
       <use xlink:href="#MicrosoftYaHei-2e" x="58.642578"/>
       <use xlink:href="#MicrosoftYaHei-30" x="82.714844"/>
       <use xlink:href="#MicrosoftYaHei-30" x="141.357422"/>
       <use xlink:href="#MicrosoftYaHei-30" x="200"/>
      </g>
     </g>
    </g>
    <g id="xtick_2">
     <g id="line2d_2">
      <g>
       <use xlink:href="#ma4895b3b4d" x="193.536" y="510.283337" style="stroke: #000000; stroke-width: 0.8"/>
      </g>
     </g>
     <g id="text_2">
      <!-- 0.005 -->
      <g transform="translate(180.603969 525.277087) scale(0.1 -0.1)">
       <defs>
        <path id="MicrosoftYaHei-35" d="M 3294 1494 
Q 3294 784 2823 350 
Q 2353 -84 1559 -84 
Q 878 -84 544 119 
L 544 744 
Q 1034 425 1544 425 
Q 2050 425 2361 704 
Q 2672 984 2672 1447 
Q 2672 1909 2348 2167 
Q 2025 2425 1434 2425 
Q 978 2425 613 2384 
L 791 4841 
L 3053 4841 
L 3053 4303 
L 1306 4303 
L 1206 2931 
L 1647 2950 
Q 2416 2950 2855 2567 
Q 3294 2184 3294 1494 
z
" transform="scale(0.015625)"/>
       </defs>
       <use xlink:href="#MicrosoftYaHei-30"/>
       <use xlink:href="#MicrosoftYaHei-2e" x="58.642578"/>
       <use xlink:href="#MicrosoftYaHei-30" x="82.714844"/>
       <use xlink:href="#MicrosoftYaHei-30" x="141.357422"/>
       <use xlink:href="#MicrosoftYaHei-35" x="200"/>
      </g>
     </g>
    </g>
    <g id="xtick_3">
     <g id="line2d_3">
      <g>
       <use xlink:href="#ma4895b3b4d" x="317.557029" y="510.283337" style="stroke: #000000; stroke-width: 0.8"/>
      </g>
     </g>
     <g id="text_3">
      <!-- 0.010 -->
      <g transform="translate(304.624997 525.277087) scale(0.1 -0.1)">
       <defs>
        <path id="MicrosoftYaHei-31" d="M 1781 0 
L 1781 4141 
Q 1638 3997 1295 3819 
Q 953 3641 663 3569 
L 663 4169 
Q 1047 4275 1484 4508 
Q 1922 4741 2156 4947 
L 2388 4947 
L 2388 0 
L 1781 0 
z
" transform="scale(0.015625)"/>
       </defs>
       <use xlink:href="#MicrosoftYaHei-30"/>
       <use xlink:href="#MicrosoftYaHei-2e" x="58.642578"/>
       <use xlink:href="#MicrosoftYaHei-30" x="82.714844"/>
       <use xlink:href="#MicrosoftYaHei-31" x="141.357422"/>
       <use xlink:href="#MicrosoftYaHei-30" x="200"/>
      </g>
     </g>
    </g>
    <g id="xtick_4">
     <g id="line2d_4">
      <g>
       <use xlink:href="#ma4895b3b4d" x="441.578057" y="510.283337" style="stroke: #000000; stroke-width: 0.8"/>
      </g>
     </g>
     <g id="text_4">
      <!-- 0.015 -->
      <g transform="translate(428.646026 525.277087) scale(0.1 -0.1)">
       <use xlink:href="#MicrosoftYaHei-30"/>
       <use xlink:href="#MicrosoftYaHei-2e" x="58.642578"/>
       <use xlink:href="#MicrosoftYaHei-30" x="82.714844"/>
       <use xlink:href="#MicrosoftYaHei-31" x="141.357422"/>
       <use xlink:href="#MicrosoftYaHei-35" x="200"/>
      </g>
     </g>
    </g>
    <g id="xtick_5">
     <g id="line2d_5">
      <g>
       <use xlink:href="#ma4895b3b4d" x="565.599086" y="510.283337" style="stroke: #000000; stroke-width: 0.8"/>
      </g>
     </g>
     <g id="text_5">
      <!-- 0.020 -->
      <g transform="translate(552.667054 525.277087) scale(0.1 -0.1)">
       <defs>
        <path id="MicrosoftYaHei-32" d="M 2666 3572 
Q 2666 3963 2419 4186 
Q 2172 4409 1747 4409 
Q 1447 4409 1140 4256 
Q 834 4103 569 3819 
L 569 4413 
Q 806 4659 1107 4790 
Q 1409 4922 1816 4922 
Q 2472 4922 2872 4570 
Q 3272 4219 3272 3619 
Q 3272 3084 3026 2693 
Q 2781 2303 2188 1894 
Q 1581 1475 1376 1294 
Q 1172 1113 1090 947 
Q 1009 781 1009 544 
L 3416 544 
L 3416 0 
L 372 0 
L 372 241 
Q 372 659 486 951 
Q 600 1244 862 1520 
Q 1125 1797 1681 2184 
Q 2250 2584 2458 2886 
Q 2666 3188 2666 3572 
z
" transform="scale(0.015625)"/>
       </defs>
       <use xlink:href="#MicrosoftYaHei-30"/>
       <use xlink:href="#MicrosoftYaHei-2e" x="58.642578"/>
       <use xlink:href="#MicrosoftYaHei-30" x="82.714844"/>
       <use xlink:href="#MicrosoftYaHei-32" x="141.357422"/>
       <use xlink:href="#MicrosoftYaHei-30" x="200"/>
      </g>
     </g>
    </g>
    <g id="xtick_6">
     <g id="line2d_6">
      <g>
       <use xlink:href="#ma4895b3b4d" x="689.620114" y="510.283337" style="stroke: #000000; stroke-width: 0.8"/>
      </g>
     </g>
     <g id="text_6">
      <!-- 0.025 -->
      <g transform="translate(676.688083 525.277087) scale(0.1 -0.1)">
       <use xlink:href="#MicrosoftYaHei-30"/>
       <use xlink:href="#MicrosoftYaHei-2e" x="58.642578"/>
       <use xlink:href="#MicrosoftYaHei-30" x="82.714844"/>
       <use xlink:href="#MicrosoftYaHei-32" x="141.357422"/>
       <use xlink:href="#MicrosoftYaHei-35" x="200"/>
      </g>
     </g>
    </g>
    <g id="xtick_7">
     <g id="line2d_7">
      <g>
       <use xlink:href="#ma4895b3b4d" x="813.641143" y="510.283337" style="stroke: #000000; stroke-width: 0.8"/>
      </g>
     </g>
     <g id="text_7">
      <!-- 0.030 -->
      <g transform="translate(800.709112 525.277087) scale(0.1 -0.1)">
       <defs>
        <path id="MicrosoftYaHei-33" d="M 447 809 
Q 944 425 1569 425 
Q 2069 425 2361 670 
Q 2653 916 2653 1328 
Q 2653 2247 1338 2247 
L 934 2247 
L 934 2753 
L 1319 2753 
Q 2484 2753 2484 3616 
Q 2484 4413 1594 4413 
Q 1084 4413 634 4069 
L 634 4647 
Q 1109 4922 1744 4922 
Q 2363 4922 2738 4598 
Q 3113 4275 3113 3759 
Q 3113 2809 2144 2538 
L 2144 2525 
Q 2669 2469 2973 2155 
Q 3278 1841 3278 1372 
Q 3278 719 2808 319 
Q 2338 -81 1556 -81 
Q 869 -81 447 175 
L 447 809 
z
" transform="scale(0.015625)"/>
       </defs>
       <use xlink:href="#MicrosoftYaHei-30"/>
       <use xlink:href="#MicrosoftYaHei-2e" x="58.642578"/>
       <use xlink:href="#MicrosoftYaHei-30" x="82.714844"/>
       <use xlink:href="#MicrosoftYaHei-33" x="141.357422"/>
       <use xlink:href="#MicrosoftYaHei-30" x="200"/>
      </g>
     </g>
    </g>
    <g id="xtick_8">
     <g id="line2d_8">
      <g>
       <use xlink:href="#ma4895b3b4d" x="937.662171" y="510.283337" style="stroke: #000000; stroke-width: 0.8"/>
      </g>
     </g>
     <g id="text_8">
      <!-- 0.035 -->
      <g transform="translate(924.73014 525.277087) scale(0.1 -0.1)">
       <use xlink:href="#MicrosoftYaHei-30"/>
       <use xlink:href="#MicrosoftYaHei-2e" x="58.642578"/>
       <use xlink:href="#MicrosoftYaHei-30" x="82.714844"/>
       <use xlink:href="#MicrosoftYaHei-33" x="141.357422"/>
       <use xlink:href="#MicrosoftYaHei-35" x="200"/>
      </g>
     </g>
    </g>
    <g id="xtick_9">
     <g id="line2d_9">
      <g>
       <use xlink:href="#ma4895b3b4d" x="1061.6832" y="510.283337" style="stroke: #000000; stroke-width: 0.8"/>
      </g>
     </g>
     <g id="text_9">
      <!-- 0.040 -->
      <g transform="translate(1048.751169 525.277087) scale(0.1 -0.1)">
       <defs>
        <path id="MicrosoftYaHei-34" d="M 2906 4841 
L 2906 1644 
L 3631 1644 
L 3631 1138 
L 2906 1138 
L 2906 0 
L 2313 0 
L 2313 1138 
L 53 1138 
L 53 1616 
Q 656 2294 1265 3178 
Q 1875 4063 2272 4841 
L 2906 4841 
z
M 741 1644 
L 2313 1644 
L 2313 3950 
Q 1988 3366 1616 2817 
Q 1244 2269 741 1644 
z
" transform="scale(0.015625)"/>
       </defs>
       <use xlink:href="#MicrosoftYaHei-30"/>
       <use xlink:href="#MicrosoftYaHei-2e" x="58.642578"/>
       <use xlink:href="#MicrosoftYaHei-30" x="82.714844"/>
       <use xlink:href="#MicrosoftYaHei-34" x="141.357422"/>
       <use xlink:href="#MicrosoftYaHei-30" x="200"/>
      </g>
     </g>
    </g>
    <g id="text_10">
     <!-- 应变$\varepsilon$ -->
     <g transform="translate(552.849086 539.756775) scale(0.1 -0.1)">
      <defs>
       <path id="MicrosoftYaHei-5e94" d="M 2969 5134 
L 3425 5378 
Q 3694 5034 3938 4634 
L 3634 4459 
L 6169 4459 
L 6169 3984 
L 1300 3984 
L 1300 2453 
Q 1300 241 388 -853 
Q 238 -647 25 -422 
Q 775 416 775 2441 
L 775 4459 
L 3419 4459 
Q 3216 4803 2969 5134 
z
M 1263 -9 
L 4153 -9 
Q 4641 1238 5188 3403 
L 5731 3253 
Q 5147 1191 4694 -9 
L 6238 -9 
L 6238 -484 
L 1263 -484 
L 1263 -9 
z
M 1600 3059 
L 2075 3222 
Q 2463 2084 2825 672 
L 2294 509 
Q 2006 1747 1600 3059 
z
M 3106 3372 
L 3588 3509 
Q 3913 2384 4163 991 
L 3613 847 
Q 3431 2084 3106 3372 
z
" transform="scale(0.015625)"/>
       <path id="MicrosoftYaHei-53d8" d="M 838 1634 
L 838 2066 
L 5088 2066 
L 5088 1634 
Q 4494 853 3659 309 
Q 4675 -178 6313 -297 
Q 6088 -609 5950 -822 
Q 4275 -594 3178 34 
Q 2122 -509 425 -866 
Q 269 -622 106 -403 
Q 1741 -122 2728 328 
Q 2047 838 1553 1634 
L 838 1634 
z
M 231 4534 
L 3081 4534 
Q 2888 4884 2725 5141 
L 3175 5359 
Q 3481 4884 3600 4659 
L 3359 4534 
L 6200 4534 
L 6200 4091 
L 4181 4091 
L 4181 2353 
L 3700 2353 
L 3700 4091 
L 2694 4091 
L 2694 2341 
L 2213 2341 
L 2213 4091 
L 231 4091 
L 231 4534 
z
M 4475 1634 
L 2116 1634 
Q 2575 953 3197 572 
Q 3947 1016 4475 1634 
z
M 4556 3434 
L 4900 3728 
Q 5700 3009 6213 2459 
L 5825 2116 
Q 5219 2797 4556 3434 
z
M 1381 3741 
L 1756 3422 
Q 1119 2691 500 2097 
Q 344 2272 138 2447 
Q 794 3009 1381 3741 
z
" transform="scale(0.015625)"/>
       <path id="DejaVuSans-Oblique-3b5" d="M 1263 1888 
Q 925 1963 778 2166 
Q 669 2309 669 2503 
Q 669 3034 1175 3344 
Q 1575 3588 2188 3588 
Q 2425 3588 2684 3550 
Q 2944 3513 3234 3438 
L 3134 2916 
Q 2847 3006 2606 3047 
Q 2359 3088 2138 3088 
Q 1766 3088 1522 2944 
Q 1228 2772 1228 2522 
Q 1228 2356 1381 2241 
Q 1563 2103 1925 2103 
L 2409 2103 
L 2319 1628 
L 1856 1628 
Q 1425 1628 1172 1469 
Q 828 1253 828 916 
Q 828 703 1013 563 
Q 1244 388 1716 388 
Q 2006 388 2284 444 
Q 2563 503 2806 619 
L 2700 84 
Q 2403 -3 2131 -47 
Q 1859 -91 1609 -91 
Q 866 -91 516 194 
Q 250 413 250 781 
Q 250 1278 600 1584 
Q 859 1813 1263 1888 
z
" transform="scale(0.015625)"/>
      </defs>
      <use xlink:href="#MicrosoftYaHei-5e94" transform="translate(0 0.96875)"/>
      <use xlink:href="#MicrosoftYaHei-53d8" transform="translate(100 0.96875)"/>
      <use xlink:href="#DejaVuSans-Oblique-3b5" transform="translate(200 0.96875)"/>
     </g>
    </g>
   </g>
   <g id="matplotlib.axis_2">
    <g id="ytick_1">
     <g id="line2d_10">
      <defs>
       <path id="mf96d305e08" d="M 0 0 
L -3.5 0 
" style="stroke: #000000; stroke-width: 0.8"/>
      </defs>
      <g>
       <use xlink:href="#mf96d305e08" x="69.514971" y="488.75904" style="stroke: #000000; stroke-width: 0.8"/>
      </g>
     </g>
     <g id="text_11">
      <!-- 0 -->
      <g transform="translate(56.650909 492.755915) scale(0.1 -0.1)">
       <use xlink:href="#MicrosoftYaHei-30"/>
      </g>
     </g>
    </g>
    <g id="ytick_2">
     <g id="line2d_11">
      <g>
       <use xlink:href="#mf96d305e08" x="69.514971" y="400.920631" style="stroke: #000000; stroke-width: 0.8"/>
      </g>
     </g>
     <g id="text_12">
      <!-- 1000 -->
      <g transform="translate(39.058721 404.917506) scale(0.1 -0.1)">
       <use xlink:href="#MicrosoftYaHei-31"/>
       <use xlink:href="#MicrosoftYaHei-30" x="58.642578"/>
       <use xlink:href="#MicrosoftYaHei-30" x="117.285156"/>
       <use xlink:href="#MicrosoftYaHei-30" x="175.927734"/>
      </g>
     </g>
    </g>
    <g id="ytick_3">
     <g id="line2d_12">
      <g>
       <use xlink:href="#mf96d305e08" x="69.514971" y="313.082221" style="stroke: #000000; stroke-width: 0.8"/>
      </g>
     </g>
     <g id="text_13">
      <!-- 2000 -->
      <g transform="translate(39.058721 317.079096) scale(0.1 -0.1)">
       <use xlink:href="#MicrosoftYaHei-32"/>
       <use xlink:href="#MicrosoftYaHei-30" x="58.642578"/>
       <use xlink:href="#MicrosoftYaHei-30" x="117.285156"/>
       <use xlink:href="#MicrosoftYaHei-30" x="175.927734"/>
      </g>
     </g>
    </g>
    <g id="ytick_4">
     <g id="line2d_13">
      <g>
       <use xlink:href="#mf96d305e08" x="69.514971" y="225.243812" style="stroke: #000000; stroke-width: 0.8"/>
      </g>
     </g>
     <g id="text_14">
      <!-- 3000 -->
      <g transform="translate(39.058721 229.240687) scale(0.1 -0.1)">
       <use xlink:href="#MicrosoftYaHei-33"/>
       <use xlink:href="#MicrosoftYaHei-30" x="58.642578"/>
       <use xlink:href="#MicrosoftYaHei-30" x="117.285156"/>
       <use xlink:href="#MicrosoftYaHei-30" x="175.927734"/>
      </g>
     </g>
    </g>
    <g id="ytick_5">
     <g id="line2d_14">
      <g>
       <use xlink:href="#mf96d305e08" x="69.514971" y="137.405403" style="stroke: #000000; stroke-width: 0.8"/>
      </g>
     </g>
     <g id="text_15">
      <!-- 4000 -->
      <g transform="translate(39.058721 141.402278) scale(0.1 -0.1)">
       <use xlink:href="#MicrosoftYaHei-34"/>
       <use xlink:href="#MicrosoftYaHei-30" x="58.642578"/>
       <use xlink:href="#MicrosoftYaHei-30" x="117.285156"/>
       <use xlink:href="#MicrosoftYaHei-30" x="175.927734"/>
      </g>
     </g>
    </g>
    <g id="ytick_6">
     <g id="line2d_15">
      <g>
       <use xlink:href="#mf96d305e08" x="69.514971" y="49.566993" style="stroke: #000000; stroke-width: 0.8"/>
      </g>
     </g>
     <g id="text_16">
      <!-- 5000 -->
      <g transform="translate(39.058721 53.563868) scale(0.1 -0.1)">
       <use xlink:href="#MicrosoftYaHei-35"/>
       <use xlink:href="#MicrosoftYaHei-30" x="58.642578"/>
       <use xlink:href="#MicrosoftYaHei-30" x="117.285156"/>
       <use xlink:href="#MicrosoftYaHei-30" x="175.927734"/>
      </g>
     </g>
    </g>
    <g id="text_17">
     <!-- 荷载P(kN) -->
     <g transform="translate(32.572784 296.702787) rotate(-90) scale(0.1 -0.1)">
      <defs>
       <path id="MicrosoftYaHei-8377" d="M 2175 3503 
L 6231 3503 
L 6231 3066 
L 5556 3066 
L 5556 116 
Q 5556 -716 4744 -716 
L 3856 -716 
Q 3831 -528 3744 -197 
Q 4238 -241 4619 -241 
Q 5069 -241 5069 241 
L 5069 3066 
L 2175 3066 
L 2175 3503 
z
M 2350 2422 
L 4350 2422 
L 4350 541 
L 2813 541 
L 2813 209 
L 2350 209 
L 2350 2422 
z
M 219 4728 
L 1975 4728 
L 1975 5328 
L 2463 5328 
L 2463 4728 
L 4013 4728 
L 4013 5328 
L 4500 5328 
L 4500 4728 
L 6275 4728 
L 6275 4278 
L 4500 4278 
L 4500 3828 
L 4013 3828 
L 4013 4278 
L 2463 4278 
L 2463 3859 
L 1975 3859 
L 1975 4278 
L 219 4278 
L 219 4728 
z
M 69 1653 
Q 1006 2628 1538 3847 
L 2006 3659 
Q 1759 3169 1506 2744 
L 1506 -797 
L 1019 -797 
L 1019 2006 
Q 688 1553 344 1209 
Q 225 1409 69 1653 
z
M 3888 966 
L 3888 1997 
L 2813 1997 
L 2813 966 
L 3888 966 
z
" transform="scale(0.015625)"/>
       <path id="MicrosoftYaHei-8f7d" d="M 2881 -416 
Q 3622 91 4213 806 
Q 3894 1769 3806 3234 
L 125 3234 
L 125 3653 
L 1681 3653 
L 1681 4234 
L 381 4234 
L 381 4628 
L 1681 4628 
L 1681 5266 
L 2144 5266 
L 2144 4628 
L 3375 4628 
L 3375 4234 
L 2144 4234 
L 2144 3653 
L 3781 3653 
Q 3744 4397 3713 5297 
L 4194 5297 
Q 4197 4419 4241 3653 
L 6319 3653 
L 6319 3234 
L 4266 3234 
Q 4331 2081 4563 1269 
Q 5034 1941 5394 2766 
L 5825 2566 
Q 5344 1531 4744 738 
Q 4938 278 5200 -34 
Q 5363 -222 5500 -222 
Q 5669 -222 5725 28 
Q 5800 366 5869 878 
Q 6119 766 6319 709 
Q 6238 178 6138 -234 
Q 5981 -791 5581 -791 
Q 5125 -791 4713 -209 
Q 4544 22 4406 319 
Q 3869 -297 3250 -741 
Q 3063 -528 2881 -416 
z
M 1006 1472 
L 1863 1472 
L 1863 2047 
L 2306 2047 
L 2306 1472 
L 3488 1472 
L 3488 1078 
L 2306 1078 
L 2306 497 
Q 2878 544 3513 597 
Q 3494 397 3494 191 
Q 2931 153 2306 100 
L 2306 -816 
L 1863 -816 
L 1863 59 
Q 1128 -3 313 -91 
L 213 359 
Q 956 400 1863 466 
L 1863 1078 
L 488 1078 
L 488 1484 
Q 741 1813 984 2216 
L 275 2216 
L 275 2609 
L 1213 2609 
Q 1366 2888 1513 3197 
L 1975 3053 
Q 1847 2819 1725 2609 
L 3538 2609 
L 3538 2216 
L 1491 2216 
Q 1231 1791 1006 1472 
z
M 4613 4841 
L 4919 5147 
Q 5550 4672 5944 4303 
L 5588 3941 
Q 5163 4397 4613 4841 
z
" transform="scale(0.015625)"/>
       <path id="MicrosoftYaHei-50" d="M 1250 1809 
L 1250 0 
L 625 0 
L 625 4841 
L 2000 4841 
Q 2784 4841 3217 4462 
Q 3650 4084 3650 3381 
Q 3650 2669 3144 2226 
Q 2638 1784 1878 1809 
L 1250 1809 
z
M 1250 4291 
L 1250 2359 
L 1828 2359 
Q 2400 2359 2697 2617 
Q 2994 2875 2994 3356 
Q 2994 4291 1888 4291 
L 1250 4291 
z
" transform="scale(0.015625)"/>
       <path id="MicrosoftYaHei-28" d="M 1531 -1100 
Q 478 100 478 1847 
Q 478 3594 1531 4841 
L 2072 4841 
Q 1016 3544 1016 1853 
Q 1016 166 2066 -1100 
L 1531 -1100 
z
" transform="scale(0.015625)"/>
       <path id="MicrosoftYaHei-6b" d="M 3484 0 
L 2650 0 
L 1172 1666 
L 1159 1666 
L 1159 0 
L 547 0 
L 547 5116 
L 1159 5116 
L 1159 1872 
L 1172 1872 
L 2575 3456 
L 3363 3456 
L 1800 1794 
L 3484 0 
z
" transform="scale(0.015625)"/>
       <path id="MicrosoftYaHei-4e" d="M 4578 0 
L 3838 0 
L 1403 3766 
Q 1300 3925 1238 4081 
L 1219 4081 
Q 1244 3919 1244 3403 
L 1244 0 
L 625 0 
L 625 4841 
L 1409 4841 
L 3778 1141 
Q 3947 878 3978 806 
L 3991 806 
Q 3959 1013 3959 1513 
L 3959 4841 
L 4578 4841 
L 4578 0 
z
" transform="scale(0.015625)"/>
       <path id="MicrosoftYaHei-29" d="M 78 -1100 
Q 1131 163 1131 1853 
Q 1131 3547 72 4841 
L 616 4841 
Q 1672 3603 1672 1847 
Q 1672 91 616 -1100 
L 78 -1100 
z
" transform="scale(0.015625)"/>
      </defs>
      <use xlink:href="#MicrosoftYaHei-8377"/>
      <use xlink:href="#MicrosoftYaHei-8f7d" x="100"/>
      <use xlink:href="#MicrosoftYaHei-50" x="200"/>
      <use xlink:href="#MicrosoftYaHei-28" x="261.181641"/>
      <use xlink:href="#MicrosoftYaHei-6b" x="294.580078"/>
      <use xlink:href="#MicrosoftYaHei-4e" x="349.023438"/>
      <use xlink:href="#MicrosoftYaHei-29" x="430.322266"/>
     </g>
    </g>
   </g>
   <g id="line2d_16">
    <path d="M 69.514971 488.75904 
L 94.319178 298.899107 
L 119.123385 202.560553 
L 156.329687 122.799368 
L 212.139156 58.273097 
L 295.853345 72.120998 
L 327.246171 82.901977 
L 374.335402 98.032802 
L 444.969257 114.415544 
L 550.92005 129.442719 
L 590.651568 133.703343 
L 650.248904 138.353552 
L 739.644888 143.568321 
L 873.738824 149.019375 
L 924.024041 150.749726 
L 999.451904 152.6565 
L 1106.92 154.851179 
" clip-path="url(#pe0fdf95dc6)" style="fill: none; stroke: #e41a1c; stroke-width: 1.5; stroke-linecap: square"/>
   </g>
   <g id="line2d_17">
    <path d="M 69.514971 488.75904 
L 94.319178 302.440554 
L 119.123385 206.972676 
L 156.329687 127.338528 
L 212.139156 63.289197 
L 295.853345 78.850694 
L 327.246171 89.916313 
L 374.335402 104.87414 
L 444.969257 120.922942 
L 550.92005 135.588553 
L 590.651568 139.703914 
L 650.248904 144.213911 
L 739.644888 149.288578 
L 873.738824 154.752456 
L 924.024041 156.521632 
L 999.451904 158.577138 
L 1106.92 160.938267 
" clip-path="url(#pe0fdf95dc6)" style="fill: none; stroke: #377eb8; stroke-width: 1.5; stroke-linecap: square"/>
   </g>
   <g id="patch_3">
    <path d="M 69.514971 510.283337 
L 69.514971 36.7488 
" style="fill: none; stroke: #000000; stroke-width: 0.8; stroke-linejoin: miter; stroke-linecap: square"/>
   </g>
   <g id="patch_4">
    <path d="M 1061.6832 510.283337 
L 1061.6832 36.7488 
" style="fill: none; stroke: #000000; stroke-width: 0.8; stroke-linejoin: miter; stroke-linecap: square"/>
   </g>
   <g id="patch_5">
    <path d="M 69.514971 510.283337 
L 1061.6832 510.283337 
" style="fill: none; stroke: #000000; stroke-width: 0.8; stroke-linejoin: miter; stroke-linecap: square"/>
   </g>
   <g id="patch_6">
    <path d="M 69.514971 36.7488 
L 1061.6832 36.7488 
" style="fill: none; stroke: #000000; stroke-width: 0.8; stroke-linejoin: miter; stroke-linecap: square"/>
   </g>
   <g id="text_18">
    <!-- 自动稳定对结果的影响 -->
    <g transform="translate(505.599086 30.7488) scale(0.12 -0.12)">
     <defs>
      <path id="MicrosoftYaHei-81ea" d="M 775 4466 
L 2391 4466 
Q 2525 4828 2688 5328 
L 3219 5166 
Q 3059 4778 2909 4466 
L 5625 4466 
L 5625 -822 
L 5125 -822 
L 5125 -447 
L 1275 -447 
L 1275 -822 
L 775 -822 
L 775 4466 
z
M 1275 3 
L 5125 3 
L 5125 1053 
L 1275 1053 
L 1275 3 
z
M 1275 1497 
L 5125 1497 
L 5125 2534 
L 1275 2534 
L 1275 1497 
z
M 5125 4016 
L 1275 4016 
L 1275 2978 
L 5125 2978 
L 5125 4016 
z
" transform="scale(0.015625)"/>
      <path id="MicrosoftYaHei-52a8" d="M 2975 4022 
L 3906 4022 
Q 3916 4650 3913 5309 
L 4425 5309 
Q 4422 4656 4409 4022 
L 6094 4022 
Q 6050 1659 5969 216 
Q 5900 -666 5150 -678 
Q 4763 -678 4306 -659 
Q 4263 -397 4206 -109 
Q 4638 -166 4994 -172 
Q 5456 -172 5475 347 
Q 5569 1897 5588 3547 
L 4400 3547 
Q 4394 3278 4388 3016 
Q 4356 553 2900 -872 
Q 2725 -659 2525 -447 
Q 3831 716 3888 3028 
Q 3894 3284 3900 3547 
L 2975 3547 
L 2975 4022 
z
M 2338 1866 
Q 2731 1016 3063 178 
Q 2788 59 2594 -28 
Q 2550 91 2506 209 
Q 1316 97 338 -16 
L 119 491 
Q 394 647 563 997 
Q 869 1613 1200 2559 
L 144 2559 
L 144 3022 
L 3163 3022 
L 3163 2559 
L 1725 2559 
Q 1191 1228 800 491 
Q 1519 544 2347 631 
Q 2138 1163 1906 1672 
L 2338 1866 
z
M 406 4778 
L 2913 4778 
L 2913 4316 
L 406 4316 
L 406 4778 
z
" transform="scale(0.015625)"/>
      <path id="MicrosoftYaHei-7a33" d="M 2444 1778 
L 5450 1778 
L 5450 2316 
L 2563 2316 
L 2563 2728 
L 5450 2728 
L 5450 3259 
L 2575 3259 
L 2575 3653 
L 2488 3566 
Q 2331 3716 2119 3878 
Q 2831 4522 3275 5366 
L 3763 5272 
Q 3616 5009 3456 4766 
L 5313 4766 
L 5313 4359 
Q 5063 4022 4800 3684 
L 5925 3684 
L 5925 1128 
L 5450 1128 
L 5450 1353 
L 2444 1353 
L 2444 1778 
z
M 31 991 
Q 619 1803 988 3034 
L 144 3034 
L 144 3472 
L 1025 3472 
L 1025 4466 
Q 653 4431 269 4403 
Q 238 4603 181 4853 
Q 1200 4916 2231 5059 
L 2331 4597 
Q 1916 4550 1488 4506 
L 1488 3472 
L 2269 3472 
L 2269 3034 
L 1488 3034 
L 1488 2288 
L 1744 2491 
Q 2100 2128 2413 1741 
L 2044 1434 
Q 1772 1822 1488 2144 
L 1488 -834 
L 1025 -834 
L 1025 1938 
Q 703 1072 244 466 
Q 150 728 31 991 
z
M 2950 991 
L 3425 991 
L 3425 97 
Q 3425 -259 3825 -259 
L 4425 -259 
Q 4819 -259 4888 53 
Q 4944 297 4981 634 
Q 5188 541 5456 447 
Q 5394 128 5319 -147 
Q 5181 -691 4563 -691 
L 3731 -691 
Q 2950 -691 2950 72 
L 2950 991 
z
M 4744 4353 
L 3172 4353 
Q 2903 3991 2603 3684 
L 4259 3684 
Q 4525 4038 4744 4353 
z
M 2275 991 
L 2694 841 
Q 2481 178 2200 -409 
Q 2000 -303 1769 -216 
Q 2069 322 2275 991 
z
M 5419 797 
L 5825 978 
Q 6175 309 6388 -147 
L 5956 -353 
Q 5750 153 5419 797 
z
M 3663 1097 
L 4000 1334 
Q 4369 909 4650 522 
L 4269 253 
Q 3994 691 3663 1097 
z
" transform="scale(0.015625)"/>
      <path id="MicrosoftYaHei-5b9a" d="M 81 -384 
Q 1119 509 1281 2241 
L 1806 2159 
Q 1731 1581 1578 1081 
Q 2063 50 3081 -103 
L 3081 2647 
L 225 2647 
L 225 3116 
L 6163 3116 
L 6163 2647 
L 3600 2647 
L 3600 1634 
L 5775 1634 
L 5775 1172 
L 3600 1172 
L 3600 -138 
Q 4844 -169 6306 -116 
Q 6200 -359 6125 -634 
Q 4594 -653 3450 -616 
Q 2041 -616 1378 528 
Q 1022 -300 413 -872 
Q 269 -628 81 -384 
z
M 450 4566 
L 3116 4566 
Q 2931 4834 2725 5091 
L 3200 5347 
Q 3444 5066 3731 4716 
L 3450 4566 
L 5981 4566 
L 5981 3378 
L 5488 3378 
L 5488 4097 
L 944 4097 
L 944 3384 
L 450 3384 
L 450 4566 
z
" transform="scale(0.015625)"/>
      <path id="MicrosoftYaHei-5bf9" d="M 694 3691 
Q 1234 2909 1741 2166 
Q 2113 3081 2213 4147 
L 250 4147 
L 250 4622 
L 2725 4622 
L 2725 4166 
Q 2553 2809 2059 1700 
Q 2569 953 3044 247 
L 2594 -53 
Q 2203 563 1803 1181 
Q 1247 163 388 -622 
Q 263 -428 81 -166 
Q 975 638 1500 1647 
Q 919 2538 319 3434 
L 694 3691 
z
M 2975 3941 
L 5056 3941 
L 5056 5278 
L 5563 5278 
L 5563 3941 
L 6325 3941 
L 6325 3466 
L 5563 3466 
L 5563 191 
Q 5563 -716 4669 -716 
Q 4388 -716 3744 -709 
Q 3713 -478 3644 -147 
Q 4263 -197 4588 -197 
Q 5056 -197 5056 278 
L 5056 3466 
L 2975 3466 
L 2975 3941 
z
M 3088 2684 
L 3494 2928 
Q 4000 2184 4388 1484 
L 3919 1216 
Q 3550 1922 3088 2684 
z
" transform="scale(0.015625)"/>
      <path id="MicrosoftYaHei-7ed3" d="M 2625 1709 
L 5925 1709 
L 5925 -828 
L 5438 -828 
L 5438 -441 
L 3113 -441 
L 3113 -828 
L 2625 -828 
L 2625 1709 
z
M 2500 2897 
L 4025 2897 
L 4025 3872 
L 2294 3872 
L 2294 4322 
L 4025 4322 
L 4025 5322 
L 4525 5322 
L 4525 4322 
L 6275 4322 
L 6275 3872 
L 4525 3872 
L 4525 2897 
L 6056 2897 
L 6056 2447 
L 2500 2447 
L 2500 2897 
z
M 894 1566 
Q 1725 1684 2269 1778 
Q 2231 1534 2213 1303 
Q 1519 1203 319 1009 
L 219 1472 
Q 619 1888 1172 2791 
Q 647 2756 219 2722 
L 100 3147 
Q 675 3916 1294 5366 
L 1769 5178 
Q 1094 3853 663 3184 
Q 1025 3194 1419 3206 
Q 1631 3569 1863 3997 
L 2325 3766 
Q 1613 2578 894 1566 
z
M 5438 1272 
L 3113 1272 
L 3113 -3 
L 5438 -3 
L 5438 1272 
z
M 75 91 
Q 1231 316 2331 584 
Q 2313 334 2313 109 
Q 1300 -103 213 -391 
L 75 91 
z
" transform="scale(0.015625)"/>
      <path id="MicrosoftYaHei-679c" d="M 6338 -53 
Q 6100 -309 5944 -522 
Q 4425 -41 3438 1181 
L 3438 -841 
L 2963 -841 
L 2963 1188 
Q 2084 172 450 -603 
Q 300 -416 75 -203 
Q 1550 363 2472 1259 
L 213 1259 
L 213 1709 
L 2963 1709 
L 2963 2384 
L 1306 2384 
L 1306 2141 
L 831 2141 
L 831 5016 
L 5569 5016 
L 5569 2141 
L 5094 2141 
L 5094 2384 
L 3438 2384 
L 3438 1709 
L 6200 1709 
L 6200 1259 
L 3856 1259 
Q 4769 294 6338 -53 
z
M 3438 2809 
L 5094 2809 
L 5094 3497 
L 3438 3497 
L 3438 2809 
z
M 5094 4591 
L 3438 4591 
L 3438 3903 
L 5094 3903 
L 5094 4591 
z
M 1306 2809 
L 2963 2809 
L 2963 3497 
L 1306 3497 
L 1306 2809 
z
M 1306 3903 
L 2963 3903 
L 2963 4591 
L 1306 4591 
L 1306 3903 
z
" transform="scale(0.015625)"/>
      <path id="MicrosoftYaHei-7684" d="M 356 4284 
L 988 4284 
Q 1219 4853 1369 5322 
L 1894 5172 
Q 1697 4694 1513 4284 
L 2763 4284 
L 2763 -691 
L 2263 -691 
L 2263 -203 
L 856 -203 
L 856 -734 
L 356 -734 
L 356 4284 
z
M 2856 3003 
Q 3444 3934 3850 5322 
L 4375 5191 
Q 4216 4719 4050 4303 
L 6063 4303 
Q 5988 1091 5938 259 
Q 5894 -722 4906 -722 
Q 4338 -722 3750 -684 
Q 3713 -372 3650 -128 
L 3669 -128 
Q 4294 -216 4813 -216 
Q 5381 -216 5425 384 
Q 5494 1316 5525 3834 
L 3850 3834 
Q 3578 3231 3288 2772 
Q 3119 2891 2856 3003 
z
M 856 266 
L 2263 266 
L 2263 1847 
L 856 1847 
L 856 266 
z
M 2263 3816 
L 856 3816 
L 856 2297 
L 2263 2297 
L 2263 3816 
z
M 3406 2578 
L 3788 2859 
Q 4481 2041 4894 1441 
L 4431 1116 
Q 3988 1841 3406 2578 
z
" transform="scale(0.015625)"/>
      <path id="MicrosoftYaHei-5f71" d="M 119 2734 
L 1803 2734 
Q 1713 2903 1613 3053 
L 1897 3191 
L 875 3191 
L 875 3028 
L 450 3028 
L 450 5041 
L 3563 5041 
L 3563 3028 
L 3138 3028 
L 3138 3191 
L 2047 3191 
Q 2188 2972 2303 2734 
L 3969 2734 
L 3969 2372 
L 119 2372 
L 119 2734 
z
M 550 2016 
L 3475 2016 
L 3475 703 
L 3050 703 
L 3050 797 
L 2275 797 
L 2275 -72 
Q 2275 -791 1625 -791 
Q 1406 -791 1050 -784 
Q 1025 -559 969 -341 
Q 1288 -384 1513 -384 
Q 1844 -384 1844 -22 
L 1844 797 
L 975 797 
L 975 703 
L 550 703 
L 550 2016 
z
M 3600 -497 
Q 5038 378 5913 1734 
L 6300 1447 
Q 5319 -9 3931 -866 
Q 3763 -634 3600 -497 
z
M 3825 1784 
Q 4913 2522 5756 3634 
L 6144 3328 
Q 5200 2178 4150 1409 
Q 3981 1628 3825 1784 
z
M 3756 3616 
Q 4681 4203 5469 5222 
L 5856 4934 
Q 5075 3928 4088 3259 
Q 3906 3478 3756 3616 
z
M 3050 1678 
L 975 1678 
L 975 1134 
L 3050 1134 
L 3050 1678 
z
M 3138 4691 
L 875 4691 
L 875 4278 
L 3138 4278 
L 3138 4691 
z
M 875 3541 
L 3138 3541 
L 3138 3953 
L 875 3953 
L 875 3541 
z
M 81 -347 
Q 525 22 1019 609 
L 1381 359 
Q 838 -278 400 -634 
L 81 -347 
z
M 2575 372 
L 2869 641 
Q 3225 359 3675 -47 
L 3350 -366 
Q 3019 3 2575 372 
z
" transform="scale(0.015625)"/>
      <path id="MicrosoftYaHei-54cd" d="M 2425 4441 
L 3525 4441 
Q 3700 4884 3838 5316 
L 4344 5197 
Q 4181 4803 4019 4441 
L 5875 4441 
L 5875 -59 
Q 5875 -766 5225 -772 
Q 4900 -778 4444 -772 
Q 4413 -547 4356 -284 
Q 4781 -322 5100 -322 
Q 5438 -322 5438 72 
L 5438 4016 
L 2863 4016 
L 2863 -859 
L 2425 -859 
L 2425 4441 
z
M 413 4484 
L 1925 4484 
L 1925 166 
L 1488 166 
L 1488 641 
L 850 641 
L 850 72 
L 413 72 
L 413 4484 
z
M 3325 3191 
L 4975 3191 
L 4975 741 
L 3750 741 
L 3750 466 
L 3325 466 
L 3325 3191 
z
M 1488 4053 
L 850 4053 
L 850 1072 
L 1488 1072 
L 1488 4053 
z
M 4550 2803 
L 3750 2803 
L 3750 1128 
L 4550 1128 
L 4550 2803 
z
" transform="scale(0.015625)"/>
     </defs>
     <use xlink:href="#MicrosoftYaHei-81ea"/>
     <use xlink:href="#MicrosoftYaHei-52a8" x="100"/>
     <use xlink:href="#MicrosoftYaHei-7a33" x="200"/>
     <use xlink:href="#MicrosoftYaHei-5b9a" x="300"/>
     <use xlink:href="#MicrosoftYaHei-5bf9" x="400"/>
     <use xlink:href="#MicrosoftYaHei-7ed3" x="500"/>
     <use xlink:href="#MicrosoftYaHei-679c" x="600"/>
     <use xlink:href="#MicrosoftYaHei-7684" x="700"/>
     <use xlink:href="#MicrosoftYaHei-5f71" x="800"/>
     <use xlink:href="#MicrosoftYaHei-54cd" x="900"/>
    </g>
   </g>
   <g id="legend_1">
    <g id="patch_7">
     <path d="M 942.6832 75.708175 
L 1054.6832 75.708175 
Q 1056.6832 75.708175 1056.6832 73.708175 
L 1056.6832 43.7488 
Q 1056.6832 41.7488 1054.6832 41.7488 
L 942.6832 41.7488 
Q 940.6832 41.7488 940.6832 43.7488 
L 940.6832 73.708175 
Q 940.6832 75.708175 942.6832 75.708175 
z
" style="fill: #ffffff; opacity: 0.8; stroke: #cccccc; stroke-linejoin: miter"/>
    </g>
    <g id="line2d_18">
     <path d="M 944.6832 50.24255 
L 954.6832 50.24255 
L 964.6832 50.24255 
" style="fill: none; stroke: #e41a1c; stroke-width: 1.5; stroke-linecap: square"/>
    </g>
    <g id="text_19">
     <!-- 开启自动稳定 -->
     <g transform="translate(972.6832 53.74255) scale(0.1 -0.1)">
      <defs>
       <path id="MicrosoftYaHei-5f00" d="M 125 2553 
L 1756 2553 
L 1756 4372 
L 400 4372 
L 400 4866 
L 6006 4866 
L 6006 4372 
L 4731 4372 
L 4731 2553 
L 6275 2553 
L 6275 2059 
L 4731 2059 
L 4731 -791 
L 4219 -791 
L 4219 2059 
L 2266 2059 
Q 2244 916 1938 359 
Q 1631 -253 531 -872 
Q 369 -647 175 -434 
Q 1131 53 1450 584 
Q 1734 1013 1753 2059 
L 125 2059 
L 125 2553 
z
M 2269 2553 
L 4219 2553 
L 4219 4372 
L 2269 4372 
L 2269 2553 
z
" transform="scale(0.015625)"/>
       <path id="MicrosoftYaHei-542f" d="M 2781 5166 
L 3225 5391 
Q 3469 5006 3691 4603 
L 5938 4603 
L 5938 2516 
L 5450 2516 
L 5450 2747 
L 1288 2747 
L 1288 2728 
Q 1288 209 413 -878 
Q 244 -678 50 -472 
Q 788 459 788 2728 
L 788 4603 
L 3119 4603 
Q 2966 4881 2781 5166 
z
M 5869 1822 
L 5869 -847 
L 5381 -847 
L 5381 -441 
L 2225 -441 
L 2225 -847 
L 1738 -847 
L 1738 1822 
L 5869 1822 
z
M 5381 1384 
L 2225 1384 
L 2225 -9 
L 5381 -9 
L 5381 1384 
z
M 1288 4166 
L 1288 3184 
L 5450 3184 
L 5450 4166 
L 1288 4166 
z
" transform="scale(0.015625)"/>
      </defs>
      <use xlink:href="#MicrosoftYaHei-5f00"/>
      <use xlink:href="#MicrosoftYaHei-542f" x="100"/>
      <use xlink:href="#MicrosoftYaHei-81ea" x="200"/>
      <use xlink:href="#MicrosoftYaHei-52a8" x="300"/>
      <use xlink:href="#MicrosoftYaHei-7a33" x="400"/>
      <use xlink:href="#MicrosoftYaHei-5b9a" x="500"/>
     </g>
    </g>
    <g id="line2d_19">
     <path d="M 944.6832 65.722237 
L 954.6832 65.722237 
L 964.6832 65.722237 
" style="fill: none; stroke: #377eb8; stroke-width: 1.5; stroke-linecap: square"/>
    </g>
    <g id="text_20">
     <!-- 没有开启自动稳定 -->
     <g transform="translate(972.6832 69.222237) scale(0.1 -0.1)">
      <defs>
       <path id="MicrosoftYaHei-6ca1" d="M 2156 2116 
L 2156 2547 
L 5638 2547 
L 5638 2134 
Q 5253 1128 4391 406 
Q 5178 -94 6319 -316 
Q 6100 -591 5938 -816 
Q 4775 -491 3975 91 
Q 3100 -503 1838 -872 
Q 1675 -641 1513 -422 
Q 2744 -100 3575 419 
Q 2819 1119 2481 2116 
L 2156 2116 
z
M 4850 4553 
L 3213 4553 
L 3213 4291 
Q 3213 3253 2156 2666 
Q 1981 2872 1788 3053 
Q 2725 3516 2725 4328 
L 2725 5016 
L 5338 5016 
L 5338 3753 
Q 5338 3472 5613 3472 
L 6319 3472 
Q 6288 3216 6269 3009 
L 5469 3009 
Q 4850 3009 4850 3659 
L 4850 4553 
z
M 5075 2116 
L 2959 2116 
Q 3303 1272 3984 703 
Q 4747 1300 5075 2116 
z
M 1000 1853 
Q 1263 1734 1500 1641 
Q 1025 228 725 -791 
L 181 -603 
Q 575 441 1000 1853 
z
M 400 3622 
Q 850 3309 1513 2766 
Q 1306 2534 1156 2353 
Q 438 2991 88 3259 
L 400 3622 
z
M 650 5222 
Q 1238 4759 1738 4328 
Q 1525 4109 1369 3941 
Q 838 4441 331 4878 
L 650 5222 
z
" transform="scale(0.015625)"/>
       <path id="MicrosoftYaHei-6709" d="M 1856 -816 
L 1363 -816 
L 1363 2419 
Q 909 1891 363 1403 
Q 231 1622 63 1859 
Q 1269 2869 1947 4097 
L 238 4097 
L 238 4559 
L 2181 4559 
Q 2359 4950 2488 5359 
L 3006 5241 
Q 2881 4894 2731 4559 
L 6263 4559 
L 6263 4097 
L 2506 4097 
Q 2313 3728 2081 3378 
L 5506 3378 
L 5506 41 
Q 5506 -734 4750 -734 
Q 4419 -741 3744 -741 
Q 3713 -528 3650 -228 
Q 4225 -272 4575 -272 
Q 5006 -272 5006 153 
L 5006 597 
L 1856 597 
L 1856 -816 
z
M 1856 1022 
L 5006 1022 
L 5006 1772 
L 1856 1772 
L 1856 1022 
z
M 5006 2941 
L 1856 2941 
L 1856 2197 
L 5006 2197 
L 5006 2941 
z
" transform="scale(0.015625)"/>
      </defs>
      <use xlink:href="#MicrosoftYaHei-6ca1"/>
      <use xlink:href="#MicrosoftYaHei-6709" x="100"/>
      <use xlink:href="#MicrosoftYaHei-5f00" x="200"/>
      <use xlink:href="#MicrosoftYaHei-542f" x="300"/>
      <use xlink:href="#MicrosoftYaHei-81ea" x="400"/>
      <use xlink:href="#MicrosoftYaHei-52a8" x="500"/>
      <use xlink:href="#MicrosoftYaHei-7a33" x="600"/>
      <use xlink:href="#MicrosoftYaHei-5b9a" x="700"/>
     </g>
    </g>
   </g>
  </g>
 </g>
 <defs>
  <clipPath id="pe0fdf95dc6">
   <rect x="69.514971" y="36.7488" width="992.168229" height="473.534537"/>
  </clipPath>
 </defs>
</svg>
